<ttFont>
<head>
    <!-- Most of this table will be recalculated by the compiler -->
    <tableVersion value="1.0"/>
    <fontRevision value="2.004"/>
    <checkSumAdjustment value="0x50adbe19"/>
    <magicNumber value="0x5f0f3cf5"/>
    <flags value="00000000 00000011"/>
    <unitsPerEm value="1000"/>
    <created value="Thu Oct  8 10:00:54 2009"/>
    <modified value="Thu Oct  8 10:00:54 2009"/>
    <xMin value="-411"/>
    <yMin value="-308"/>
    <xMax value="1407"/>
    <yMax value="1154"/>
    <macStyle value="00000000 00000000"/>
    <lowestRecPPEM value="3"/>
    <fontDirectionHint value="2"/>
    <indexToLocFormat value="0"/>
    <glyphDataFormat value="0"/>
  </head>
          <CharString index="0">
            401 hmoveto
            293 vlineto
            96 -69 70 -93 -60 -45 -14 -28 -49 vhcurveto
            6 -66 rlineto
            32 44 46 18 58 hhcurveto
            46 40 -37 -73 hvcurveto
            -41 vlineto
            -45 -2 -60 -3 -60 -20 rrcurveto
            -67 -23 -39 -37 -50 vvcurveto
            -44 26 -81 85 55 70 16 31 37 vhcurveto
            -37 vlineto
            -2 134 rmoveto
            -20 0 -24 -33 -20 vhcurveto
            -17 -27 -34 -3 -15 hhcurveto
            -54 -37 29 37 68 139 15 61 hvcurveto
            return
          </CharString>
          <CharString index="1">
            407 225 rmoveto
            43 -4 61 -32 53 vhcurveto
            69 -41 -70 8 -29 hhcurveto
            -108 -90 -104 -130 -132 96 -103 116 46 55 13 40 55 hvcurveto
            4 -3 33 0 vhcurveto
            0 -3 23 4 vvcurveto
            -50 -59 -59 -7 -30 hhcurveto
            -77 -66 69 106 -2 hvcurveto
            246 54 rmoveto
            -240 hlineto
            67 17 47 53 59 hhcurveto
            31 69 -14 -106 17 hvcurveto
            return
          </CharString>
          <CharString index="2">
            rmoveto
            -60 hlineto
            -75 -2 -55 -38 -48 hhcurveto
            -52 -52 41 72 -2 hvcurveto
            -60 hlineto
            -107 2 78 -71 85 hhcurveto
            88 76 73 105 2 hvcurveto
            return
          </CharString>
          <CharString index="3">
            459 220 rmoveto
            135 -99 104 -115 -118 -97 -106 -133 -131 100 -99 114 118 97 101 129 vhcurveto
            -76 10 rmoveto
            -123 -71 -55 -67 -72 -67 60 118 121 75 48 63 69 70 -52 -117 vhcurveto
            return
          </CharString>
          <CharString index="4">
            rmoveto
            -11 61 rlineto
            -19 -68 -1 -32 -66 hvcurveto
            28 -33 -40 5 -20 hhcurveto
            -87 -70 -73 -88 -36 11 -33 22 -30 hvcurveto
            -23 -32 -6 -30 -24 vvcurveto
            -37 14 -25 11 -13 vhcurveto
            hintmask 1111000101110000
            -51 -33 -12 -43 -28 vvcurveto
            -73 95 -61 122 122 96 59 76 140 -162 0 -41 vhcurveto
            -85 hlineto
            -14 -43 0 53 22 4 6 6 9 hvcurveto
            -12 17 33 -17 40 hhcurveto
            86 71 71 91 36 -13 37 -20 28 hvcurveto
            0 2 -2 1 -2 vhcurveto
            2 21 22 3 37 hhcurveto
            3 23 0 -2 25 hvcurveto
            -170 -100 rmoveto
            -89 -56 -18 -31 vhcurveto
            hintmask 1000100010100000
            -44 -44 30 76 89 56 18 31 44 44 -30 -76 hvcurveto
            87 -364 rmoveto
            -46 -69 -33 -78 vhcurveto
            hintmask 0100000100010000
            -78 -70 31 49 3 0 65 76 hvcurveto
            87 hlineto
            22 110 0 -69 hvcurveto
            return
          </CharString>
          <CharString index="5">
            hstemhm
            54 86 441 86 hintmask 11001100
            -106 callgsubr
            return
          </CharString>
          <CharString index="6">
            hstemhm
            33 75 240 59 hintmask 11100110
            -106 callsubr
            return
          </CharString>
          <CharString index="7">
            576 233 rmoveto
            461 -76 -462 vlineto
            -134 -84 -63 -80 -79 -81 62 135 vhcurveto
            462 -86 -461 vlineto
            -147 115 -107 130 130 111 109 145 vhcurveto
            return
          </CharString>
          <CharString index="8">
            541 hmoveto
            68 -131 -18 callsubr
            -198 263 324 60 -324 240 -47 callsubr
            180 63 -438 -692 hlineto
            return
          </CharString>
          <CharString index="9">
            -98 callgsubr
            hintmask 00011000
            return
          </CharString>
          <CharString index="10">
            rmoveto
            -60 hlineto
            hintmask 00010000
            -26 -9 -32 -29 -23 -25 18 7 -10 vhcurveto
            hintmask 00001000
            21 -29 -20 12 -25 hhcurveto
            hintmask 00010000
            -43 -50 -39 -79 -2 hvcurveto
            60 hlineto
            hintmask 00001000
            26 9 32 29 23 25 -18 -7 10 vhcurveto
            hintmask 00010000
            -21 29 20 -12 25 hhcurveto
            hintmask 00001000
            43 50 39 79 -17 callsubr
          </CharString>
          <CharString index="11">
            22 -41 -50 27 -89 hhcurveto
            -134 -87 -96 -100 -71 43 -46 5 -5 hvcurveto
            49 -50 34 -9 64 -16 85 -21 14 -4 32 -33 rrcurveto
            17 -18 15 -32 -35 vvcurveto
            -69 -57 -64 -86 -73 -78 29 54 -59 vhcurveto
            -15 -81 rlineto
            -60 91 88 -9 46 hhcurveto
            129 91 99 111 hvcurveto
            return
          </CharString>
          <CharString index="12">
            rmoveto
            -111 hlineto
            -175 -122 rlineto
            89 hlineto
            endchar
          </CharString>
          <CharString index="13">
            433 444 rmoveto
            -75 hlineto
            -46 -118 -77 -196 -4 -72 rrcurveto
            -1 hlineto
            -5 59 -53 132 -8 20 -71 175 rcurveline
            -79 hlineto
            186 -444 -35 -91 rlineto
            -50 -22 -15 -5 -18 hhcurveto
            -14 -32 3 12 -31 hvcurveto
            6 -65 rlineto
            -1 6 33 -7 32 hhcurveto
            24 47 0 110 43 hvcurveto
            return
          </CharString>
          <CharString index="14">
            575 45 rmoveto
            -6 70 -27 -20 -29 -20 -33 -11 rlinecurve
            -10 -32 -34 -2 -34 hhcurveto
            -64 -58 36 51 -40 hvcurveto
            -46 59 -21 74 75 vvcurveto
            75 21 75 46 59 vhcurveto
            51 40 58 35 64 hhcurveto
            30 30 -3 -9 29 hvcurveto
            29 -10 27 -15 25 -18 15 83 rcurveline
            -30 12 -30 9 -31 6 rrcurveto
            6 -31 -32 2 -31 hhcurveto
            -86 -80 -40 -65 -56 hvcurveto
            -62 -69 -30 -91 -93 vvcurveto
            -92 30 -91 62 -70 vhcurveto
            -64 56 80 -41 86 hhcurveto
            34 35 2 9 33 hvcurveto
            34 10 30 17 29 18 rrcurveto
            return
          </CharString>
          <CharString index="15">
            rmoveto
            -31 -30 -6 -19 -8 -41 0 37 31 30 6 19 8 41 0 -37 vhcurveto
            60 -1 rmoveto
            47 -48 38 -61 -64 -45 -41 -42 -47 48 -38 61 64 45 41 42 vhcurveto
            return
          </CharString>
          <CharString index="16">
            rmoveto
            -60 hlineto
            hintmask 10000000
            -26 -9 -32 -29 -23 -25 18 7 -10 vhcurveto
            hintmask 01000000
            21 -29 -20 12 -25 hhcurveto
            hintmask 10000000
            -43 -50 -39 -79 -2 hvcurveto
            60 hlineto
            hintmask 01000000
            26 9 32 29 23 25 -18 -7 10 vhcurveto
            hintmask 10000000
            -21 29 20 -12 25 hhcurveto
            hintmask 01000000
            43 50 39 79 -17 callsubr
          </CharString>
          <CharString index="17">
            521 445 rmoveto
            79 vlineto
            -1 1 rlineto
            -80 -1 hlineto
            -79 vlineto
            -1 24 vlineto
            -40 -32 rlineto
            32 -76 -294 vlineto
            -59 -51 -46 -60 -33 -19 2 12 -15 vhcurveto
            -14 11 -3 18 24 vvcurveto
            332 -76 -332 vlineto
            -39 5 -30 19 -24 vhcurveto
            -21 18 28 -8 33 hhcurveto
            68 62 22 38 40 hvcurveto
            -50 74 374 vlineto
            96 70 rlineto
            return
          </CharString>
          <CharString index="18">
            rmoveto
            -125 172 rlineto
            -60 hlineto
            -125 -172 rlineto
            59 hlineto
            96 123 96 -123 rlineto
            return
          </CharString>
          <CharString index="19">
            rmoveto
            -62 167 rlineto
            -76 hlineto
            78 -13 callgsubr
            -103 hmoveto
            -62 167 rlineto
            -76 hlineto
            78 61 callgsubr
          </CharString>
          <CharString index="20">
            30 -64 -54 1 -23 hhcurveto
            -23 -139 0 -130 -44 24 -30 15 -14 hvcurveto
            36 -31 25 -5 59 -12 rrcurveto
            33 -7 58 -12 -53 vvcurveto
            -69 -78 0 -14 -40 -58 11 39 -54 vhcurveto
            -12 -68 rlineto
            -3 5 68 -41 92 hhcurveto
            129 31 78 59 hvcurveto
            return
          </CharString>
          <CharString index="21">
            904 694 rmoveto
            -73 hlineto
            -91 -328 -22 -79 0 -2 -18 -67 rlinecurve
            -13 -48 -15 -58 -4 -36 rrcurveto
            -1 hlineto
            -5 42 -22 86 -17 60 -118 430 rcurveline
            -85 hlineto
            -86 -310 -7 -24 -60 -218 -7 -65 rlinecurve
            -1 hlineto
            -4 39 -25 97 -4 17 -43 160 rcurveline
            -84 304 rlineto
            -85 hlineto
            196 -694 rlineto
            83 hlineto
            94 340 25 89 38 137 6 53 rlinecurve
            1 hlineto
            0 7 -52 47 -171 vhcurveto
            109 -396 rlineto
            88 hlineto
            return
          </CharString>
          <CharString index="22">
            35 vstem
            694 347 rmoveto
            192 -155 155 -192 -192 -155 -155 -192 -192 155 -155 192 192 155 155 192 vhcurveto
            -35 hmoveto
            -172 -139 -140 -173 -172 -140 140 172 173 140 139 172 173 139 -139 -173 vhcurveto
            return
          </CharString>
          <CharString index="23">
            643 694 rmoveto
            -86 hlineto
            -172 -259 -19 -28 -20 -31 -16 -27 rlinecurve
            -3 5 -11 20 -43 65 -170 255 rcurveline
            -100 hlineto
            278 -416 rlineto
            -278 84 278 vlineto
            return
          </CharString>
          <CharString index="24">
            rmoveto
            -59 hlineto
            -97 -97 -97 97 rlineto
            -59 hlineto
            126 -134 rlineto
            60 hlineto
            endchar
          </CharString>
          <CharString index="25">
            -74 callsubr
            endchar
          </CharString>
          <CharString index="26">
            222 rmoveto
            128 -66 109 -91 -74 -56 -36 -45 -37 vhcurveto
            148 11 71 93 99 hhcurveto
            43 31 -10 -11 29 hvcurveto
            58 vlineto
            15 -41 -29 5 -35 hhcurveto
            -135 -125 -139 -215 -287 125 -56 79 60 43 24 46 39 hvcurveto
            45 54 14 47 72 vvcurveto
            -79 -1 rmoveto
            -41 0 -43 -30 -45 vhcurveto
            -27 -18 -25 -26 -49 hhcurveto
            -104 -15 147 32 -3 hvcurveto
            return
          </CharString>
          <CharString index="27">
            707 345 rmoveto
            170 -94 91 -32 31 vhcurveto
            51 91 -54 30 -47 -84 rlineto
            25 -45 -53 16 -52 hhcurveto
            -179 -148 -163 -207 -144 72 -100 54 -44 hvcurveto
            -51 -91 54 -30 47 84 rlineto
            -3 5 63 -38 82 hhcurveto
            178 149 160 206 hvcurveto
            -208 274 rmoveto
            -285 -502 rlineto
            -30 34 -46 72 122 vvcurveto
            200 121 110 121 47 42 -17 -19 30 vhcurveto
            124 -274 rmoveto
            -199 -121 -107 -121 -54 -43 21 15 -22 vhcurveto
            285 501 rlineto
            55 -63 21 -85 -83 vvcurveto
            return
          </CharString>
          <CharString index="28">
            -20 hstemhm
            54 77 281 77 hintmask 01000100
            -84 callgsubr
            hintmask 10100110
            -96 callsubr
            hintmask 00011000
            return
          </CharString>
          <CharString index="29">
            -68 callsubr
            169 rmoveto
            -89 hlineto
            -197 122 rlineto
            111 hlineto
            endchar
          </CharString>
          <CharString index="30">
            -31 -35 -37 -4 -18 hhcurveto
            -44 -6 47 35 hvcurveto
            252 138 58 -138 127 -69 -127 -84 -58 82 -269 vlineto
            -58 13 -69 69 vhcurveto
            return
          </CharString>
          <CharString index="31">
            318 387 rmoveto
            67 vlineto
            -91 -1 -53 -53 -27 -39 rrcurveto
            88 -69 -449 74 219 vlineto
            101 76 66 90 1 vhcurveto
            return
          </CharString>
          <CharString index="32">
            707 -10 60 -3 60 91 54 -27 54 12 60 48 60 -58 58 hstemhm
            46 71 -36 76 158 76 228 60 hintmask 0010101011000000
            679 225 rmoveto
            36 -1 198 -162 -13 -75 0 -77 -60 vhcurveto
            37 -24 -41 40 -74 hhcurveto
            -60 -46 -15 -27 -48 hvcurveto
            6 -66 rlineto
            27 38 45 23 66 hhcurveto
            41 44 -33 -77 hvcurveto
            -39 vlineto
            hintmask 0000000100000000
            -142 -1 -127 -44 -91 vvcurveto
            hintmask 1000000010000000
            -34 18 -92 93 4 59 0 15 54 vhcurveto
            68 20 20 31 8 11 rrcurveto
            -49 43 56 -28 62 hhcurveto
            hintmask 0100000000000000
            79 63 48 9 hvcurveto
            5 -3 23 5 0 -3 23 4 vvcurveto
            hintmask 1001010101100000
            -43 -44 -52 -14 -39 hhcurveto
            -70 -69 63 112 -2 hvcurveto
            228 54 rmoveto
            -222 hlineto
            74 18 50 46 51 hhcurveto
            48 43 -37 -83 12 hvcurveto
            -300 -146 rmoveto
            -21 0 -22 -33 -20 vhcurveto
            -14 -22 -32 -6 -26 hhcurveto
            -52 -37 30 37 hvcurveto
            hintmask 0010000000000000
            71 152 8 47 2 vhcurveto
            1 -18 2 -30 -17 vvcurveto
            endchar
          </CharString>
          <CharString index="33">
            rmoveto
            86 -86 -86 vlineto
            return
          </CharString>
          <CharString index="34">
            632 626 rmoveto
            63 -597 -63 132 vlineto
            12 12 1 12 hhcurveto
            88 -627 86 627 88 -59 callgsubr
            return
          </CharString>
          <CharString index="35">
            548 hmoveto
            64 -94 vlineto
            -259 -2 rlineto
            -32 hlineto
            380 592 rlineto
            40 -475 -61 196 vlineto
            12 12 1 12 hhcurveto
            134 hlineto
            -380 -593 rlineto
            -41 vlineto
            return
          </CharString>
          <CharString index="36">
            rmoveto
            125 -84 98 -101 -40 -37 -15 -25 -28 vhcurveto
            207 257 62 -328 -368 65 vlineto
            57 25 44 22 41 hhcurveto
            47 53 -42 -119 -126 -72 -40 -58 -55 -66 30 63 -32 hvcurveto
            -33 -54 rlineto
            -94 66 94 -5 27 hhcurveto
            118 97 99 125 hvcurveto
            endchar
          </CharString>
          <CharString index="37">
            rmoveto
            78 -77 -78 vlineto
            244 hmoveto
            78 -77 -78 vlineto
            return
          </CharString>
          <CharString index="38">
            -46 callgsubr
            -56 -48 -25 -48 -38 vhcurveto
            68 -71 -449 -72 callgsubr
            return
          </CharString>
          <CharString index="39">
            -103 callgsubr
            46 return
          </CharString>
          <CharString index="40">
            rmoveto
            78 -77 -78 vlineto
            218 hmoveto
            78 -77 -78 vlineto
            return
          </CharString>
          <CharString index="41">
            469 -10 60 149 52 150 58 return
          </CharString>
          <CharString index="42">
            rmoveto
            77 -51 68 -85 29 vhcurveto
            70 38 39 67 66 vvcurveto
            86 -81 65 -97 -80 -71 -44 -66 -38 vhcurveto
            35 -54 rlineto
            64 25 61 43 67 hhcurveto
            51 48 -29 -65 -67 -46 -55 -54 -12 hvcurveto
            -5 -1 -63 -5 -10 -1 rrcurveto
            -60 71 vlineto
            return
          </CharString>
          <CharString index="43">
            -95 callgsubr
            165 return
          </CharString>
          <CharString index="44">
            rmoveto
            8 callsubr
            42 65 callsubr
            return
          </CharString>
          <CharString index="45">
            -89 callgsubr
            358 return
          </CharString>
          <CharString index="46">
            rmoveto
            -68 callgsubr
            return
          </CharString>
          <CharString index="47">
            rmoveto
            80 -81 -81 25 vlineto
            -25 -125 rlineto
            40 hlineto
            return
          </CharString>
          <CharString index="48">
            949 -21 60 -39 67 264 60 240 63 -39 60 hstemhm
            24 84 351 84 hintmask 01110010
            907 hmoveto
            68 -130 -18 callsubr
            -198 264 323 60 -323 241 -47 callsubr
            179 63 -389 hlineto
            -11 -21 0 9 -43 hvcurveto
            hintmask 10001100
            12 -52 -18 0 -12 hhcurveto
            -168 -156 -157 -213 -212 156 -154 168 24 18 3 8 38 hvcurveto
            hintmask 01000000
            8 36 16 2 25 hhcurveto
            -46 199 rmoveto
            hintmask 10001110
            -134 -27 -26 -79 -138 -107 145 176 167 110 128 134 79 28 -24 -136 vhcurveto
            endchar
          </CharString>
          <CharString index="49">
            647 21 -34 callgsubr
            return
          </CharString>
          <CharString index="50">
            rmoveto
            63 -353 -63 vlineto
            endchar
          </CharString>
          <CharString index="51">
            -105 callsubr
            -22 157 -95 callsubr
          </CharString>
          <CharString index="52">
            437 -50 callgsubr
            11 293 hlineto
            96 -69 70 -93 -60 -45 -14 -28 -49 vhcurveto
            6 -66 rlineto
            32 44 46 18 58 hhcurveto
            46 40 -37 -73 hvcurveto
            -41 vlineto
            -45 -2 -60 -3 -60 -20 rrcurveto
            -67 -23 -39 -37 -50 vvcurveto
            -44 26 -81 85 55 70 16 31 37 vhcurveto
            -37 -30 callsubr
            -112 321 rmoveto
            -20 0 -24 -33 -20 vhcurveto
            -17 -27 -34 -3 -15 hhcurveto
            -54 -37 29 37 68 139 15 61 hvcurveto
            return
          </CharString>
          <CharString index="53">
            rmoveto
            272 -111 69 -88 -72 -42 -33 -42 -35 vhcurveto
            -48 -57 -9 -53 -57 vvcurveto
            -129 66 -109 91 73 56 35 47 38 vhcurveto
            -140 -8 -65 -99 -92 hhcurveto
            -41 -31 13 26 -27 hvcurveto
            return
          </CharString>
          <CharString index="54">
            -105 callsubr
            -22 35 rmoveto
            -89 hlineto
            -197 122 rlineto
            111 hlineto
            endchar
          </CharString>
          <CharString index="55">
            -58 callsubr
            -20 return
          </CharString>
          <CharString index="56">
            583 0 67 263 60 239 63 return
          </CharString>
          <CharString index="57">
            141 -54 callsubr
            hintmask 11100101
            -31 -53 rlineto
            -35 45 41 -11 44 hhcurveto
            127 119 137 219 hvcurveto
            -83 76 rmoveto
            -76 -43 -79 -83 -17 -44 0 59 -33 vhcurveto
            hintmask 00001000
            -19 36 -4 29 54 vvcurveto
            hintmask 00010110
            44 1 42 30 45 vhcurveto
            22 15 27 32 54 hhcurveto
            96 17 -135 -49 2 hvcurveto
            1 -7 0 -10 -7 vvcurveto
            endchar
          </CharString>
          <CharString index="58">
            667 345 rmoveto
            212 -144 158 -162 -166 -141 -161 -209 -203 134 -151 153 -11 vhcurveto
            -35 -28 -24 -39 2 -40 rrcurveto
            -60 callgsubr
            -75 callgsubr
            rrcurveto
            35 26 29 34 23 vhcurveto
            144 27 116 146 189 vvcurveto
            -86 15 rmoveto
            -196 -108 -122 -112 -116 -105 125 193 184 109 109 111 114 107 -112 -181 vhcurveto
            return
          </CharString>
          <CharString index="59">
            176 hmoveto
            694 -86 -694 vlineto
            return
          </CharString>
          <CharString index="60">
            136 -59 callgsubr
            return
          </CharString>
          <CharString index="61">
            632 hmoveto
            -274 419 261 275 rlineto
            -94 hlineto
            -350 -369 rlineto
            369 -84 -694 84 226 vlineto
            129 136 236 -362 rlineto
            return
          </CharString>
          <CharString index="62">
            12 12 -1 12 hhcurveto
            return
          </CharString>
          <CharString index="63">
            231 rmoveto
            67 -9 69 -42 52 vhcurveto
            45 -37 -58 19 -58 hhcurveto
            -58 -58 -19 -45 -37 hvcurveto
            -42 -52 -9 -69 -67 vvcurveto
            -67 9 -69 42 -52 vhcurveto
            -45 37 58 -19 58 hhcurveto
            58 58 19 45 37 hvcurveto
            42 52 9 69 67 vvcurveto
            -77 hmoveto
            -50 -4 -52 -28 -42 vhcurveto
            -31 -21 -36 -17 -38 hhcurveto
            -38 -36 17 31 -21 hvcurveto
            -28 42 -4 52 50 vvcurveto
            50 4 52 28 42 vhcurveto
            31 21 36 17 38 hhcurveto
            38 36 -17 -31 21 hvcurveto
            28 -42 4 -52 -50 vvcurveto
            endchar
          </CharString>
          <CharString index="64">
            152 hmoveto
            444 -74 -444 vlineto
            return
          </CharString>
          <CharString index="65">
            60 175 30 callsubr
            return
          </CharString>
          <CharString index="66">
            326 rmoveto
            67 -3 77 -26 71 vhcurveto
            112 -43 -78 23 -53 hhcurveto
            -65 -63 -33 -79 -37 hvcurveto
            -33 -71 -6 -81 -86 vvcurveto
            -109 9 -62 32 -70 vhcurveto
            -66 30 64 -40 68 hhcurveto
            66 63 36 69 34 hvcurveto
            34 71 7 73 98 vvcurveto
            -76 12 rmoveto
            -64 0 -66 -18 -62 vhcurveto
            -96 -27 -56 -11 -26 hhcurveto
            -128 0 205 94 65 0 61 18 57 hvcurveto
            71 24 44 24 41 hhcurveto
            128 0 -186 -92 hvcurveto
            endchar
          </CharString>
          <CharString index="67">
            37 56 12 49 50 hvcurveto
            -51 vlineto
            118 vmoveto
            -43 -24 -35 -25 -44 hhcurveto
            -61 -72 47 124 133 85 40 58 39 32 -20 -33 22 hvcurveto
            return
          </CharString>
          <CharString index="68">
            612 480 rmoveto
            -14 13 -12 -12 -10 -10 -195 -195 rcurveline
            -196 195 -10 10 -12 12 -13 -12 rlinecurve
            -13 -14 12 -12 10 -10 195 -195 rcurveline
            -195 -196 -10 -10 -12 -12 12 -13 rlinecurve
            14 -13 12 12 10 10 196 195 rcurveline
            195 -195 10 -10 12 -12 13 12 rlinecurve
            13 14 -12 12 -10 10 -195 196 rcurveline
            195 195 10 10 12 12 -12 13 rlinecurve
            return
          </CharString>
          <CharString index="69">
            490 -205 55 148 72 61 55 209 59 -55 55 return
          </CharString>
          <CharString index="70">
            -21 694 -20 return
          </CharString>
          <CharString index="71">
            103 25 -88 -55 -81 -49 -61 -72 -64 -79 32 72 -46 hvcurveto
            -11 -59 rlineto
            -89 65 88 -16 49 hhcurveto
            117 88 95 106 hvcurveto
            endchar
          </CharString>
          <CharString index="72">
            704 0 56 260 62 260 56 hstem
            91 84 390 84 cntrmask 11100000
            649 341 rmoveto
            195 -133 158 -168 vhcurveto
            -257 -316 -76 -62 76 -316 257 hlineto
            167 134 151 190 hvcurveto
            -84 1 rmoveto
            -183 -111 -103 -129 vhcurveto
            -150 260 101 62 -101 260 67 callsubr
          </CharString>
          <CharString index="73">
            640 39 callgsubr
            43 65 callsubr
            25 hlineto
            28 callgsubr
            -50 -28 -40 -48 3 -51 rlinecurve
            -60 callgsubr
            -205 446 rmoveto
            -239 hlineto
            119 363 rlineto
            return
          </CharString>
          <CharString index="74">
            21 -37 callsubr
            return
          </CharString>
          <CharString index="75">
            490 -10 62 347 60 return
          </CharString>
          <CharString index="76">
            -35 callgsubr
            hintmask 00000100
            63 60 52 93 hvcurveto
            return
          </CharString>
          <CharString index="77">
            vlineto
            -50 -28 -40 -48 3 -51 rrcurveto
            -60 callgsubr
            return
          </CharString>
          <CharString index="78">
            6 callsubr
            271 hmoveto
            -38 callgsubr
            endchar
          </CharString>
          <CharString index="79">
            74 hintmask 11001000
            -43 callsubr
            return
          </CharString>
          <CharString index="80">
            667 -21 56 659 -20 return
          </CharString>
          <CharString index="81">
            19 -17 0 -15 vhcurveto
            -589 -4 callgsubr
            589 hlineto
            14 18 0 18 hvcurveto
            return
          </CharString>
          <CharString index="82">
            hmoveto
            68 -178 -18 callsubr
            -107 hlineto
            26 27 93 92 65 58 rrcurveto
            74 65 63 62 92 vvcurveto
            111 -77 102 -132 -108 -55 -71 -93 -27 vhcurveto
            32 -40 0 -2 9 -12 rrcurveto
            107 25 37 49 74 hhcurveto
            86 56 -67 -86 -52 -21 -58 -67 -66 hvcurveto
            -223 -222 rlineto
            -63 vlineto
            endchar
          </CharString>
          <CharString index="83">
            623 21 -21 289 58 291 56 hstem
            91 84 314 79 vstem
            568 492 rmoveto
            106 -97 96 -136 vhcurveto
            -244 -694 86 289 158 hlineto
            138 95 99 104 hvcurveto
            -79 1 rmoveto
            -79 -61 -67 -114 vhcurveto
            -139 291 139 hlineto
            117 58 -70 -75 hvcurveto
            endchar
          </CharString>
          <CharString index="84">
            230 -6 callgsubr
            return
          </CharString>
          <CharString index="85">
            8 0 13 1 7 vhcurveto
            70 40 83 86 33 32 -9 -50 29 vhcurveto
            22 -40 1 -40 -39 vvcurveto
            endchar
          </CharString>
          <CharString index="86">
            57 callgsubr
            60 32 18 27 20 21 -5 -11 17 vhcurveto
            66 vlineto
            8 -20 -7 2 -31 hhcurveto
            -74 -57 -71 -97 hvcurveto
            return
          </CharString>
          <CharString index="87">
            647 23 callgsubr
            14 618 vstem
            632 hmoveto
            -274 366 234 328 rlineto
            -93 hlineto
            -183 -262 -188 262 rlineto
            -101 hlineto
            247 -328 -260 -366 rlineto
            92 hlineto
            210 306 216 -306 rlineto
            endchar
          </CharString>
          <CharString index="88">
            152 hmoveto
            694 72 callsubr
            return
          </CharString>
          <CharString index="89">
            vlineto
            -45 callgsubr
            return
          </CharString>
          <CharString index="90">
            2 hvcurveto
            endchar
          </CharString>
          <CharString index="91">
            hstemhm
            27 70 -36 69 44 70 61 69 18 70 return
          </CharString>
          <CharString index="92">
            18 callsubr
            hstemhm
            31 74 0 74 hintmask 01010000
            179 -59 rmoveto
            503 -74 -513 vlineto
            hintmask 10100000
            -35 callgsubr
            hintmask 00010000
            63 60 52 93 hvcurveto
            endchar
          </CharString>
          <CharString index="93">
            hstemhm
            -19 callgsubr
            return
          </CharString>
          <CharString index="94">
            -20 54 callsubr
            -338 86 hintmask 00010001
            29 callgsubr
            hintmask 01101110
            -252 -694 rlineto
            74 hlineto
            73 203 rlineto
            282 hlineto
            74 -203 rlineto
            -95 259 rmoveto
            -239 hlineto
            119 363 rlineto
            return
          </CharString>
          <CharString index="95">
            -20 hstemhm
            136 77 64 77 hintmask 10011000
            16 callsubr
            hintmask 01100000
            return
          </CharString>
          <CharString index="96">
            76 239 vlineto
            -31 34 42 -24 54 hhcurveto
            96 86 97 136 hvcurveto
            -76 -1 rmoveto
            -100 -69 -72 -74 -28 -19 10 14 -18 vhcurveto
            -25 22 -3 18 16 vvcurveto
            206 vlineto
            34 23 38 22 41 hhcurveto
            74 60 -75 -95 hvcurveto
            endchar
          </CharString>
          <CharString index="97">
            rmoveto
            -76 hlineto
            -62 51 callsubr
            return
          </CharString>
          <CharString index="98">
            hstemhm
            30 76 277 76 return
          </CharString>
          <CharString index="99">
            -20 49 callgsubr
            hintmask 11001100
            -69 callsubr
            hintmask 00110000
            return
          </CharString>
          <CharString index="100">
            -67 callsubr
            endchar
          </CharString>
          <CharString index="101">
            hmoveto
            60 -97 422 -90 vlineto
            -248 -422 rlineto
            -60 vlineto
            hintmask 11010000
            259 -194 79 194 hlineto
            -74 60 rmoveto
            -187 hlineto
            110 194 rlineto
            hintmask 01001000
            39 68 2 14 36 91 rrcurveto
            endchar
          </CharString>
          <CharString index="102">
            934 vlineto
            14 0 19 -20 -20 0 -19 -14 vhcurveto
            -934 0 callsubr
            return
          </CharString>
          <CharString index="103">
            475 393 rmoveto
            -11 61 rlineto
            -19 -68 -1 -32 -66 hvcurveto
            28 -33 -40 5 -20 hhcurveto
            -87 -70 -73 -88 -36 11 -33 22 -30 hvcurveto
            -23 -32 -6 -30 -24 vvcurveto
            -37 14 -25 11 -13 vhcurveto
            return
          </CharString>
          <CharString index="104">
            -20 -10 -20 -11 -17 -14 -54 -44 rcurveline
            hintmask 10010000
            14 -17 rlineto
            41 49 53 30 51 hhcurveto
            40 29 -17 -20 35 hvcurveto
            -17 29 31 -17 40 hhcurveto
            hintmask 01000000
            25 26 8 10 22 hvcurveto
            return
          </CharString>
          <CharString index="105">
            326 193 58 hstem
            11 260 vstem
            271 193 19 callsubr
          </CharString>
          <CharString index="106">
            62 -23 58 299 58 127 -20 return
          </CharString>
          <CharString index="107">
            vlineto
            -14 0 -19 20 20 0 19 14 vhcurveto
            return
          </CharString>
          <CharString index="108">
            hmoveto
            58 -122 618 -19 vlineto
            -16 -16 -48 -47 -108 -2 rrcurveto
            -14 -1 -1 -18 hvcurveto
            -40 vlineto
            61 46 15 9 21 hvcurveto
            -518 -122 -58 vlineto
            endchar
          </CharString>
          <CharString index="109">
            rmoveto
            63 -189 -63 vlineto
            118 -47 0 118 hhcurveto
            endchar
          </CharString>
          <CharString index="110">
            hmoveto
            58 -122 424 -10 vlineto
            -13 -5 -7 -5 -11 hvcurveto
            -28 -52 -56 -4 -55 hhcurveto
            -58 vlineto
            42 45 1 15 40 hvcurveto
            -338 -122 -58 vlineto
            endchar
          </CharString>
          <CharString index="111">
            68 callgsubr
            694 -20 return
          </CharString>
          <CharString index="112">
            174 301 -105 callsubr
            return
          </CharString>
          <CharString index="113">
            488 rmoveto
            -38 callgsubr
            return
          </CharString>
          <CharString index="114">
            75 501 -105 callsubr
            return
          </CharString>
          <CharString index="115">
            16 callgsubr
            44 return
          </CharString>
          <CharString index="116">
            630 21 33 callsubr
            return
          </CharString>
          <CharString index="117">
            653 -11 11 callsubr
            return
          </CharString>
          <CharString index="118">
            63 191 60 339 63 return
          </CharString>
          <CharString index="119">
            326 29 rmoveto
            -15 58 rlineto
            return
          </CharString>
          <CharString index="120">
            -276 276 hlineto
            14 0 18 -18 -19 0 -17 -15 vhcurveto
            -276 -276 vlineto
            -18 callgsubr
            276 return
          </CharString>
          <CharString index="121">
            -131 572 -67 callsubr
            return
          </CharString>
          <CharString index="122">
            200 485 -70 callsubr
            return
          </CharString>
          <CharString index="123">
            213 572 -67 callsubr
            return
          </CharString>
          <CharString index="124">
            346 hlineto
            -42 -25 -48 -51 3 -51 40 callgsubr
            return
          </CharString>
          <CharString index="125">
            258 -204 63 585 -20 return
          </CharString>
          <CharString index="126">
            rmoveto
            58 -260 -58 vlineto
            endchar
          </CharString>
          <CharString index="127">
            rmoveto
            66 vlineto
            3 -9 -28 7 -30 hhcurveto
            -86 -61 -74 -95 hvcurveto
            -91 7 callgsubr
            115 58 vlineto
            return
          </CharString>
          <CharString index="128">
            375 -10 62 286 62 0 59 return
          </CharString>
          <CharString index="129">
            435 -10 62 345 62 return
          </CharString>
          <CharString index="130">
            89 38 callgsubr
            return
          </CharString>
          <CharString index="131">
            hlineto
            -77 -292 rlineto
            -4 -14 0 -4 0 vvcurveto
            -11 8 -8 11 14 3 13 10 3 vhcurveto
            81 306 rlineto
            return
          </CharString>
          <CharString index="132">
            68 callsubr
            203 56 435 -20 return
          </CharString>
          <CharString index="133">
            614 17 callgsubr
            78 -614 rmoveto
            444 -74 -444 vlineto
            -82 59 callsubr
            return
          </CharString>
          <CharString index="134">
            145 -61 callsubr
            return
          </CharString>
          <CharString index="135">
            674 rmoveto
            -42 hlineto
            -392 -654 rlineto
            42 hlineto
            endchar
          </CharString>
          <CharString index="136">
            67 539 65 0 65 return
          </CharString>
          <CharString index="137">
            54 120 60 return
          </CharString>
          <CharString index="138">
            469 -7 callgsubr
            104 60 149 52 150 58 return
          </CharString>
          <CharString index="139">
            60 344 60 240 -20 hstemhm
            return
          </CharString>
          <CharString index="140">
            -21 317 60 261 56 return
          </CharString>
          <CharString index="141">
            326 193 58 hstem
            33 260 vstem
            293 193 19 callsubr
          </CharString>
          <CharString index="142">
            -403 88 callgsubr
            return
          </CharString>
          <CharString index="143">
            hstem
            215 60 98 60 vstem
            373 return
          </CharString>
          <CharString index="144">
            -229 -21 1000 -20 return
          </CharString>
          <CharString index="145">
            21 77 callsubr
            return
          </CharString>
          <CharString index="146">
            225 rmoveto
            -103 224 rlineto
            -60 hlineto
            87 -224 -87 -225 rlineto
            60 hlineto
            endchar
          </CharString>
          <CharString index="147">
            hintmask 00111000
            286 867 -95 callsubr
          </CharString>
          <CharString index="148">
            668 21 89 callsubr
            return
          </CharString>
          <CharString index="149">
            546 -21 172 -20 hstem
            return
          </CharString>
          <CharString index="150">
            598 0 64 569 61 return
          </CharString>
          <CharString index="151">
            63 611 62 return
          </CharString>
          <CharString index="152">
            83 -19 53 82 79 hhcurveto
            65 48 -58 -67 hvcurveto
            76 hlineto
            109 -82 92 -107 return
          </CharString>
          <CharString index="153">
            rmoveto
            13 -6 21 -31 -21 -29 -8 -6 -21 vhcurveto
            -3 -1 -25 -7 -20 -2 1 return
          </CharString>
          <CharString index="154">
            -21 60 360 60 160 57 return
          </CharString>
          <CharString index="155">
            hstem
            95 81 vstem
            176 return
          </CharString>
          <CharString index="156">
            vhcurveto
            -294 vlineto
            return
          </CharString>
          <CharString index="157">
            69 callgsubr
            114 71 204 86 vstem
            475 return
          </CharString>
          <CharString index="158">
            -13 callgsubr
            60 hlineto
            return
          </CharString>
          <CharString index="159">
            69 callgsubr
            79 71 204 86 vstem
            440 return
          </CharString>
          <CharString index="160">
            rmoveto
            -75 callgsubr
            return
          </CharString>
          <CharString index="161">
            hstemhm
            27 592 return
          </CharString>
          <CharString index="162">
            36 62 -4 -50 68 hvcurveto
            15 81 rlineto
            26 -67 -53 9 -59 hhcurveto
            return
          </CharString>
          <CharString index="163">
            hstemhm
            90 86 36 77 90 77 44 76 return
          </CharString>
          <CharString index="164">
            29 callsubr
            hstemhm
            54 77 return
          </CharString>
          <CharString index="165">
            333 21 -21 454 -20 return
          </CharString>
          <CharString index="166">
            386 rmoveto
            58 -117 return
          </CharString>
          <CharString index="167">
            490 506 -21 return
          </CharString>
          <CharString index="168">
            vstem
            576 35 rmoveto
            -6 69 rlineto
            -47 -63 -39 -16 -80 hhcurveto
            return
          </CharString>
          <CharString index="169">
            647 -212 70 163 -34 callgsubr
            -20 return
          </CharString>
          <CharString index="170">
            113 -20 -16 callsubr
            return
          </CharString>
          <CharString index="171">
            -63 186 -21 2 rlineto
            -55 hlineto
            57 -138 23 -50 rlineto
            return
          </CharString>
          <CharString index="172">
            34 46 26 rrcurveto
            return
          </CharString>
          <CharString index="173">
            74 callgsubr
            61 return
          </CharString>
          <CharString index="174">
            150 hlineto
            134 106 -115 -181 hvcurveto
            endchar
          </CharString>
          <CharString index="175">
            647 4 callgsubr
            return
          </CharString>
          <CharString index="176">
            -20 hstemhm
            77 76 55 86 54 76 return
          </CharString>
          <CharString index="177">
            -33 callsubr
            61 78 hstemhm
            return
          </CharString>
          <CharString index="178">
            hstemhm
            90 86 hintmask 11100100
            return
          </CharString>
          <CharString index="179">
            -74 -694 vlineto
            return
          </CharString>
          <CharString index="180">
            57 callsubr
            281 77 return
          </CharString>
          <CharString index="181">
            60 hstemhm
            99 74 -2 74 126 74 197 74 return
          </CharString>
          <CharString index="182">
            129 44 13 18 39 26 -69 -72 vhcurveto
            endchar
          </CharString>
          <CharString index="183">
            -246 65 113 -20 return
          </CharString>
          <CharString index="184">
            -21 394 60 return
          </CharString>
          <CharString index="185">
            -56 60 283 60 0 60 283 60 hstemhm
            return
          </CharString>
          <CharString index="186">
            rmoveto
            -76 hlineto
            -45 -133 -18 -57 rlineto
            59 hlineto
            return
          </CharString>
          <CharString index="187">
            21 -21 253 62 64 62 253 -20 hstem
            return
          </CharString>
          <CharString index="188">
            86 hstem
            93 86 vstem
            179 return
          </CharString>
          <CharString index="189">
            626 -11 63 590 63 return
          </CharString>
          <CharString index="190">
            490 522 65 return
          </CharString>
          <CharString index="191">
            626 -21 62 612 62 hstem
            66 86 return
          </CharString>
          <CharString index="192">
            hlineto
            -17 -14 -10 -12 -12 14 -9 17 hvcurveto
            return
          </CharString>
          <CharString index="193">
            hstemhm
            90 86 173 63 24 63 -34 63 return
          </CharString>
          <CharString index="194">
            78 hstem
            -343 77 64 77 vstem
            -266 return
          </CharString>
          <CharString index="195">
            32 callsubr
            35 76 return
          </CharString>
          <CharString index="196">
            -21 626 63 return
          </CharString>
        <CharString name=".notdef">
          280 endchar
        </CharString>
        <CharString name="A">
          -52 callsubr
          hstem
          27 592 vstem
          -101 callgsubr
          endchar
        </CharString>
        <CharString name="AE">
          36 callgsubr
          hstem
          407 85 vstem
          -54 callgsubr
          endchar
        </CharString>
        <CharString name="AE.dup">
          36 callgsubr
          hstem
          407 85 vstem
          -54 callgsubr
          endchar
        </CharString>
        <CharString name="AEacute">
          36 callgsubr
          76 callgsubr
          407 85 hintmask 11110010
          -54 callgsubr
          hintmask 00001100
          203 235 -95 callsubr
        </CharString>
        <CharString name="Aacute">
          -52 callsubr
          92 -21 122 -95 callgsubr
          199 245 -95 callsubr
        </CharString>
        <CharString name="Abreve">
          -52 callsubr
          71 65 113 -95 callgsubr
          5 callsubr
          endchar
        </CharString>
        <CharString name="Abreveacute">
          -52 callsubr
          71 65 270 -95 callgsubr
          174 301 -56 callsubr
        </CharString>
        <CharString name="Abrevedotbelow">
          25 callsubr
          71 65 113 -13 callsubr
          5 callsubr
          hintmask 10000001
          -122 -1123 -82 callsubr
        </CharString>
        <CharString name="Abrevegrave">
          -52 callsubr
          71 65 113 -95 callgsubr
          174 301 -53 callsubr
        </CharString>
        <CharString name="Abrevehookabove">
          -52 callsubr
          71 65 344 -95 callgsubr
          5 callsubr
          -70 152 -107 callgsubr
        </CharString>
        <CharString name="Abrevetilde">
          -52 callsubr
          71 65 168 60 -2 60 54 callsubr
          hintmask 11100010
          -101 callgsubr
          hintmask 00010100
          5 callsubr
          -3 173 -90 callgsubr
        </CharString>
        <CharString name="Acaron">
          -52 callsubr
          82 -21 134 -64 callsubr
          247 -83 callsubr
        </CharString>
        <CharString name="Acircumflex">
          -52 callsubr
          82 -21 134 -64 callsubr
          113 -103 callgsubr
          endchar
        </CharString>
        <CharString name="Acircumflexacute">
          -52 callsubr
          82 -21 291 -64 callsubr
          113 -78 callgsubr
        </CharString>
        <CharString name="Acircumflexdotbelow">
          25 callsubr
          82 -21 134 -13 callsubr
          165 113 -103 callgsubr
          hintmask 10000001
          -54 -935 -82 callsubr
        </CharString>
        <CharString name="Acircumflexgrave">
          -52 callsubr
          82 -21 134 -64 callsubr
          113 -78 callsubr
        </CharString>
        <CharString name="Acircumflexhookabove">
          -52 callsubr
          82 -21 365 -64 callsubr
          113 -103 callgsubr
          93 286 -107 callgsubr
        </CharString>
        <CharString name="Acircumflextilde">
          -52 callsubr
          82 -21 189 60 -2 60 54 callsubr
          hintmask 11100010
          -101 callgsubr
          hintmask 00010100
          165 113 -103 callgsubr
          66 307 -90 callgsubr
        </CharString>
        <CharString name="Adblgrave">
          -52 callsubr
          92 -21 167 -95 callgsubr
          121 123 -88 callsubr
        </CharString>
        <CharString name="Adieresis">
          -52 callsubr
          61 78 54 callsubr
          -417 77 90 77 hintmask 00100100
          29 callgsubr
          hintmask 11001000
          -252 -694 rlineto
          74 hlineto
          73 203 rlineto
          282 hlineto
          74 -203 rlineto
          -95 259 rmoveto
          -239 hlineto
          119 363 rlineto
          hintmask 00010110
          -36 113 -70 callsubr
          endchar
        </CharString>
        <CharString name="Adotbelow">
          25 callsubr
          54 callsubr
          -338 86 hintmask 00010100
          29 callgsubr
          hintmask 01101000
          -252 -694 rlineto
          74 hlineto
          73 203 rlineto
          282 hlineto
          74 -203 rlineto
          -95 259 rmoveto
          -239 hlineto
          119 363 rlineto
          hintmask 10000100
          52 -822 -82 callsubr
        </CharString>
        <CharString name="Agrave">
          -52 callsubr
          92 -21 122 -95 callgsubr
          105 123 -67 callgsubr
        </CharString>
        <CharString name="Ahookabove">
          -52 callsubr
          82 -21 216 -95 callgsubr
          104 250 -107 callgsubr
        </CharString>
        <CharString name="Alpha">
          -52 callsubr
          hstem
          27 592 vstem
          -101 callgsubr
          endchar
        </CharString>
        <CharString name="Amacron">
          -52 callsubr
          81 63 54 callsubr
          hintmask 11101000
          -101 callgsubr
          hintmask 00010000
          185 133 -57 callsubr
        </CharString>
        <CharString name="Aogonek">
          62 callsubr
          hstem
          443 63 vstem
          -34 callsubr
          endchar
        </CharString>
        <CharString name="Aogonekacute">
          62 callsubr
          92 26 callgsubr
          443 63 hintmask 11110010
          -34 callsubr
          hintmask 00001100
          199 245 -95 callsubr
        </CharString>
        <CharString name="Aring">
          -58 callsubr
          47 74 47 54 callsubr
          -404 60 98 60 hintmask 11101000
          -101 callgsubr
          hintmask 00110110
          58 156 -92 callsubr
          endchar
        </CharString>
        <CharString name="Aringacute">
          -58 callsubr
          47 74 47 157 -20 54 callsubr
          -404 60 98 60 hintmask 11100100
          -101 callgsubr
          hintmask 00111011
          58 156 -92 callsubr
          34 242 -95 callsubr
        </CharString>
        <CharString name="Atilde">
          -52 callsubr
          61 60 -2 60 -96 callgsubr
          hintmask 00001000
          171 231 -97 callsubr
        </CharString>
        <CharString name="B">
          -47 callgsubr
        </CharString>
        <CharString name="Beta">
          -47 callgsubr
        </CharString>
        <CharString name="C">
          82 callsubr
          hstem
          66 85 vstem
          -93 callsubr
          endchar
        </CharString>
        <CharString name="Cacute">
          82 callsubr
          61 26 callgsubr
          66 85 hintmask 11001000
          -93 callsubr
          hintmask 00110000
          -41 822 -95 callsubr
        </CharString>
        <CharString name="Ccaron">
          82 callsubr
          51 -21 134 -20 hstemhm
          66 85 hintmask 11001000
          -93 callsubr
          hintmask 00110000
          -75 824 -83 callsubr
        </CharString>
        <CharString name="Ccedilla">
          84 callsubr
          61 callsubr
          -148 -88 151 155 167 99 139 133 55 callsubr
          -187 -133 -172 -196 -193 130 -175 191 78 40 11 45 71 hvcurveto
          -186 -79 -10 callgsubr
        </CharString>
        <CharString name="Ccircumflex">
          82 callsubr
          51 -21 134 -20 hstemhm
          66 85 hintmask 11001000
          -93 callsubr
          hintmask 00110000
          -75 690 -103 callgsubr
          endchar
        </CharString>
        <CharString name="Cdotaccent">
          82 callsubr
          30 86 hstemhm
          66 85 150 86 hintmask 11010000
          -93 callsubr
          hintmask 00101000
          -188 690 -82 callsubr
        </CharString>
        <CharString name="Chi">
          -20 callsubr
        </CharString>
        <CharString name="D">
          704 0 56 582 56 hstem
          91 84 390 84 vstem
          -66 callgsubr
          endchar
        </CharString>
        <CharString name="Dcaron">
          704 0 56 582 56 62 -21 134 -20 hstemhm
          91 84 390 84 hintmask 11001100
          -66 callgsubr
          hintmask 00110000
          -159 527 -83 callsubr
        </CharString>
        <CharString name="Dcroat">
          -35 callsubr
        </CharString>
        <CharString name="Ddotbelow">
          704 -7 callgsubr
          114 56 582 56 hstemhm
          91 84 32 86 272 84 hintmask 01110100
          -66 callgsubr
          hintmask 10001000
          -272 -542 -82 callsubr
        </CharString>
        <CharString name="Delta">
          816 0 81 613 -20 hstem
          774 hmoveto
          -321 694 rlineto
          -91 hlineto
          -321 -694 rlineto
          601 81 rmoveto
          -487 hlineto
          176 383 35 80 21 45 11 33 rlinecurve
          36 -88 37 -83 rlineto
          endchar
        </CharString>
        <CharString name="Dlinebelow">
          704 -188 63 125 56 582 56 hstemhm
          91 84 390 84 hintmask 01111000
          -66 callgsubr
          hintmask 10000000
          -139 -530 -57 callsubr
        </CharString>
        <CharString name="E">
          -51 callsubr
          hstem
          90 86 vstem
          -99 callsubr
          endchar
        </CharString>
        <CharString name="Eacute">
          -51 callsubr
          74 -21 122 -89 callgsubr
          392 867 -95 callsubr
        </CharString>
        <CharString name="Ebreve">
          -51 callsubr
          53 65 113 -89 callgsubr
          367 923 -105 callsubr
          endchar
        </CharString>
        <CharString name="Ecaron">
          -51 callsubr
          64 -21 134 -62 callsubr
          869 -83 callsubr
        </CharString>
        <CharString name="Ecircumflex">
          -51 callsubr
          64 -21 134 -62 callsubr
          735 -103 callgsubr
          endchar
        </CharString>
        <CharString name="Ecircumflexacute">
          -51 callsubr
          64 -21 291 -62 callsubr
          735 -78 callgsubr
        </CharString>
        <CharString name="Ecircumflexdotbelow">
          583 -7 callgsubr
          114 67 263 60 239 63 64 -21 134 -20 hstemhm
          90 86 73 86 hintmask 01111110
          -99 callsubr
          358 735 -103 callgsubr
          hintmask 10000001
          -54 -935 -82 callsubr
        </CharString>
        <CharString name="Ecircumflexgrave">
          -51 callsubr
          64 -21 134 -62 callsubr
          735 -78 callsubr
        </CharString>
        <CharString name="Ecircumflexhookabove">
          -51 callsubr
          64 -21 365 -62 callsubr
          735 -103 callgsubr
          93 286 -107 callgsubr
        </CharString>
        <CharString name="Ecircumflextilde">
          -51 callsubr
          64 -21 189 31 callgsubr
          90 86 hintmask 11100010
          -99 callsubr
          hintmask 00010100
          358 735 -103 callgsubr
          66 307 -90 callgsubr
        </CharString>
        <CharString name="Edblgrave">
          -51 callsubr
          74 -21 167 -89 callgsubr
          341 745 -88 callsubr
        </CharString>
        <CharString name="Edieresis">
          -51 callsubr
          43 78 hstemhm
          90 86 -6 77 90 77 hintmask 11101000
          -99 callsubr
          hintmask 00010110
          157 735 -70 callsubr
          endchar
        </CharString>
        <CharString name="Edotaccent">
          -51 callsubr
          43 86 hstemhm
          90 86 73 86 hintmask 11101000
          -99 callsubr
          hintmask 00010100
          245 735 -82 callsubr
        </CharString>
        <CharString name="Edotbelow">
          583 -7 callgsubr
          114 67 263 60 239 63 hstemhm
          90 86 73 86 hintmask 01111000
          -99 callsubr
          hintmask 10000100
          245 -200 -82 callsubr
        </CharString>
        <CharString name="Egrave">
          -51 callsubr
          74 -21 122 -89 callgsubr
          298 745 -67 callgsubr
        </CharString>
        <CharString name="Ehookabove">
          -51 callsubr
          64 -21 216 -89 callgsubr
          297 872 -107 callgsubr
        </CharString>
        <CharString name="Emacron">
          -51 callsubr
          63 63 hstemhm
          90 86 hintmask 11101000
          -99 callsubr
          hintmask 00010000
          378 755 -57 callsubr
        </CharString>
        <CharString name="Eng">
          686 -21 76 584 76 43 callgsubr
          595 347 rmoveto
          181 -60 187 -158 -79 -71 -34 -55 -51 vhcurveto
          68 -86 -694 86 465 vlineto
          98 20 81 76 100 hhcurveto
          119 13 -154 -138 -138 -13 -154 -119 hvcurveto
          -76 vlineto
          158 60 188 180 hvcurveto
          endchar
        </CharString>
        <CharString name="Eogonek">
          53 callgsubr
          86 callsubr
          hintmask 1000001010000000
          546 -9 callgsubr
          rrcurveto
          hintmask 0011110100000000
          3 callgsubr
          hintmask 0010110010000000
          180 63 -438 -692 hlineto
          hintmask 0110001100000000
          17 callsubr
          endchar
        </CharString>
        <CharString name="Eogonekacute">
          53 callgsubr
          74 -21 122 -20 86 callsubr
          hintmask 1000000010100000
          546 -9 callgsubr
          rrcurveto
          hintmask 0011100101000000
          3 callgsubr
          hintmask 0010100100100000
          180 63 -438 -692 hlineto
          hintmask 0110000011000000
          17 callsubr
          hintmask 0000011000000000
          -64 1054 -95 callsubr
        </CharString>
        <CharString name="Epsilon">
          -51 callsubr
          hstem
          90 86 vstem
          -99 callsubr
          endchar
        </CharString>
        <CharString name="Ereversed">
          -51 callsubr
          hstem
          455 86 vstem
          541 hmoveto
          692 -438 -63 180 vlineto
          12 12 1 12 hhcurveto
          136 -240 -324 -60 324 -263 -198 hlineto
          -12 -12 1 -12 hhcurveto
          -131 -68 hlineto
          endchar
        </CharString>
        <CharString name="Eta">
          10 callgsubr
          43 callgsubr
          -53 callgsubr
          endchar
        </CharString>
        <CharString name="Eth">
          -35 callsubr
        </CharString>
        <CharString name="Etilde">
          -51 callsubr
          43 60 -2 60 -91 callgsubr
          hintmask 00001000
          364 853 -97 callsubr
        </CharString>
        <CharString name="Euro">
          586 -21 56 -56 62 214 56 72 56 214 62 hstemhm
          120 86 hintmask 01111100
          537 35 rmoveto
          -6 70 rlineto
          -51 -46 -29 -13 -68 hhcurveto
          -56 -44 41 49 -29 hvcurveto
          -23 38 -14 42 -8 44 rrcurveto
          237 hlineto
          10 56 rlineto
          -254 hlineto
          -1 12 0 12 12 vvcurveto
          12 0 12 1 12 vhcurveto
          266 hlineto
          10 56 rlineto
          -269 hlineto
          8 44 14 42 23 39 rrcurveto
          48 29 44 41 56 hhcurveto
          52 36 -16 -39 35 hvcurveto
          15 83 rlineto
          25 -47 -38 9 -53 hhcurveto
          -77 -67 -45 -62 -46 hvcurveto
          -36 -51 -23 -57 -11 -61 rrcurveto
          -69 hlineto
          -10 -56 rlineto
          72 hlineto
          -1 -12 0 -12 -12 vvcurveto
          -12 0 -12 1 -12 vhcurveto
          -62 hlineto
          -10 -56 rlineto
          79 hlineto
          11 -60 23 -58 36 -50 rrcurveto
          -62 46 67 -46 77 hhcurveto
          hintmask 10000000
          68 29 11 45 52 hvcurveto
          endchar
        </CharString>
        <CharString name="F">
          556 21 -21 316 60 253 63 hstem
          90 86 vstem
          514 629 rmoveto
          63 -424 -692 86 316 297 60 -297 254 129 vlineto
          -45 callsubr
          endchar
        </CharString>
        <CharString name="G">
          10 callsubr
          hstem
          66 85 358 77 vstem
          -99 callgsubr
          endchar
        </CharString>
        <CharString name="Gacute">
          10 callsubr
          61 26 callgsubr
          66 85 358 77 hintmask 11100110
          -99 callgsubr
          hintmask 00011000
          -69 829 -95 callsubr
        </CharString>
        <CharString name="Gamma">
          529 21 -21 629 63 hstem
          90 86 vstem
          487 629 rmoveto
          63 -397 -692 86 630 116 vlineto
          -45 callsubr
          endchar
        </CharString>
        <CharString name="Gbreve">
          10 callsubr
          40 65 77 callgsubr
          66 85 358 77 hintmask 11100110
          -99 callgsubr
          hintmask 00011000
          -94 885 -105 callsubr
          endchar
        </CharString>
        <CharString name="Gcaron">
          10 callsubr
          51 -21 134 -20 hstemhm
          66 85 358 77 hintmask 11100110
          -99 callgsubr
          hintmask 00011000
          -103 831 -83 callsubr
        </CharString>
        <CharString name="Gcedilla">
          653 -39 callgsubr
          65 11 callsubr
          hstem
          66 85 358 77 vstem
          -99 callgsubr
          -223 -186 -86 callgsubr
        </CharString>
        <CharString name="Gcircumflex">
          10 callsubr
          51 -21 134 -20 hstemhm
          66 85 358 77 hintmask 11100110
          -99 callgsubr
          hintmask 00011000
          -103 697 -103 callgsubr
          endchar
        </CharString>
        <CharString name="Gcommaaccent">
          653 -39 callgsubr
          65 11 callsubr
          hstemhm
          66 85 358 77 hintmask 00111110
          -99 callgsubr
          hintmask 11000000
          -223 -186 -86 callgsubr
        </CharString>
        <CharString name="Gdotaccent">
          10 callsubr
          30 86 hstemhm
          66 85 132 86 140 77 hintmask 11101010
          -99 callgsubr
          hintmask 00010100
          -217 697 -82 callsubr
        </CharString>
        <CharString name="H">
          10 callgsubr
          43 callgsubr
          -53 callgsubr
          endchar
        </CharString>
        <CharString name="H_uni0303">
          10 callgsubr
          61 31 callgsubr
          90 86 333 86 hintmask 11100110
          -53 callgsubr
          hintmask 00001000
          -4 853 -97 callsubr
        </CharString>
        <CharString name="Hbar">
          686 21 -21 331 60 99 62 142 -20 43 callgsubr
          646 490 rmoveto
          62 -51 142 -86 -142 -333 142 -86 -142 -51 -62 51 -490 86 331 333 -331 86 490 vlineto
          -86 -99 rmoveto
          -333 99 333 hlineto
          endchar
        </CharString>
        <CharString name="Hbrevebelow">
          686 76 callsubr
          109 -21 331 60 303 -20 hstemhm
          90 86 333 86 hintmask 00111110
          -53 callgsubr
          hintmask 11000000
          -1 -68 -105 callsubr
          endchar
        </CharString>
        <CharString name="Hcircumflex">
          10 callgsubr
          82 -21 134 -20 hstemhm
          90 86 333 86 hintmask 11100110
          -53 callgsubr
          hintmask 00011000
          -10 735 -103 callgsubr
          endchar
        </CharString>
        <CharString name="Hdieresis">
          10 callgsubr
          61 78 hstemhm
          90 86 45 77 90 77 44 86 hintmask 11101001
          -53 callgsubr
          hintmask 00010110
          -211 735 -70 callsubr
          endchar
        </CharString>
        <CharString name="Hdotbelow">
          686 4 callgsubr
          331 60 303 -20 hstemhm
          90 86 124 86 123 86 hintmask 01111010
          -53 callgsubr
          hintmask 10000100
          -123 -200 -82 callsubr
        </CharString>
        <CharString name="I">
          12 callgsubr
          hstem
          90 86 vstem
          -48 callsubr
          endchar
        </CharString>
        <CharString name="I_J">
          699 -21 62 653 -20 hstem
          90 86 359 84 vstem
          -48 callsubr
          529 -52 callgsubr
          endchar
        </CharString>
        <CharString name="Iacute">
          12 callgsubr
          92 26 callgsubr
          90 86 hintmask 11001000
          -48 callsubr
          40 callsubr
        </CharString>
        <CharString name="Ibreve">
          12 callgsubr
          71 65 77 callgsubr
          90 86 hintmask 11001000
          -48 callsubr
          hintmask 00110000
          208 923 -105 callsubr
          endchar
        </CharString>
        <CharString name="Icaron">
          12 callgsubr
          82 -21 134 -20 hstemhm
          90 86 hintmask 11001000
          -48 callsubr
          hintmask 00110000
          199 869 -83 callsubr
        </CharString>
        <CharString name="Icircumflex">
          12 callgsubr
          82 -21 134 -20 hstemhm
          90 86 hintmask 11001000
          -48 callsubr
          hintmask 00110000
          199 735 -103 callgsubr
          endchar
        </CharString>
        <CharString name="Idblgrave">
          12 callgsubr
          92 38 callgsubr
          90 86 hintmask 11001000
          -48 callsubr
          hintmask 00110000
          182 745 -88 callsubr
        </CharString>
        <CharString name="Idieresis">
          266 70 callsubr
          11 77 2 86 2 77 hintmask 11001000
          -48 callsubr
          hintmask 00110100
          -2 735 -70 callsubr
          endchar
        </CharString>
        <CharString name="Idieresisacute">
          12 callgsubr
          61 78 76 callgsubr
          11 77 2 86 2 77 hintmask 11000010
          -48 callsubr
          hintmask 00111101
          -2 735 -70 callsubr
          145 251 -95 callsubr
        </CharString>
        <CharString name="Idotaccent">
          12 callgsubr
          61 86 hstemhm
          90 86 hintmask 11010000
          -48 callsubr
          hintmask 00110000
          86 735 -82 callsubr
        </CharString>
        <CharString name="Idotbelow">
          266 4 callgsubr
          694 -20 hstemhm
          90 86 hintmask 01110000
          -48 callsubr
          hintmask 10010000
          86 -200 -82 callsubr
        </CharString>
        <CharString name="Igrave">
          12 callgsubr
          92 26 callgsubr
          90 86 hintmask 11001000
          -48 callsubr
          hintmask 00111000
          86 745 -67 callgsubr
        </CharString>
        <CharString name="Ihookabove">
          12 callgsubr
          82 -21 216 -20 hstemhm
          90 86 hintmask 11001000
          -48 callsubr
          hintmask 00110000
          138 872 -107 callgsubr
        </CharString>
        <CharString name="Imacron">
          12 callgsubr
          81 63 hstemhm
          90 86 hintmask 11010000
          -48 callsubr
          hintmask 00100000
          219 755 -57 callsubr
        </CharString>
        <CharString name="Imacron.alt">
          12 callgsubr
          81 63 hstemhm
          90 86 hintmask 11010000
          -48 callsubr
          hintmask 00100000
          137 755 2 callsubr
        </CharString>
        <CharString name="Iogonek">
          266 -212 70 163 -37 callsubr
          hstem
          90 86 vstem
          223 -50 callgsubr
          694 -86 -694 23 -30 callsubr
          endchar
        </CharString>
        <CharString name="Iogonekacute">
          266 -212 70 163 -37 callsubr
          92 -21 122 -20 71 callsubr
          223 -50 callgsubr
          694 -86 -694 23 -30 callsubr
          hintmask 00011100
          153 1054 -95 callsubr
        </CharString>
        <CharString name="Iota">
          12 callgsubr
          hstem
          90 86 vstem
          -48 callsubr
          endchar
        </CharString>
        <CharString name="Itilde">
          12 callgsubr
          61 31 callgsubr
          90 86 hintmask 11001000
          -48 callsubr
          hintmask 00010000
          205 853 -102 callgsubr
        </CharString>
        <CharString name="J">
          459 -21 62 653 -20 hstem
          295 84 vstem
          379 -52 callgsubr
          endchar
        </CharString>
        <CharString name="J_uni030C.cap">
          459.48572 -21 62 489 -21 113 72 hstem
          295 84 vstem
          379 -52 callgsubr
          109 474 -86 callgsubr
        </CharString>
        <CharString name="Jacute">
          459 -21 62 653 -20 92 26 callgsubr
          295 84 hintmask 11001000
          379 -52 callgsubr
          hintmask 00111000
          202 719 -95 callsubr
        </CharString>
        <CharString name="Jcircumflex">
          459 -21 62 653 -20 82 -21 134 -20 hstemhm
          295 84 hintmask 11001000
          379 -52 callgsubr
          hintmask 00110000
          114 587 -103 callgsubr
          endchar
        </CharString>
        <CharString name="K">
          674 23 callgsubr
          91 84 vstem
          -46 callsubr
          endchar
        </CharString>
        <CharString name="Kappa">
          674 23 callgsubr
          91 84 vstem
          -46 callsubr
          endchar
        </CharString>
        <CharString name="Kcedilla">
          674 4 callsubr
          hstem
          91 84 vstem
          -46 callsubr
          -167 -148 -86 callgsubr
        </CharString>
        <CharString name="Kcommaaccent">
          674 -1 callgsubr
          91 84 hintmask 00111000
          -46 callsubr
          hintmask 11000000
          -167 -148 -86 callgsubr
        </CharString>
        <CharString name="L">
          529 0 89 callgsubr
          hstem
          90 86 vstem
          -48 callgsubr
          endchar
        </CharString>
        <CharString name="L_uni0303">
          529 0 89 callgsubr
          61 31 callgsubr
          90 86 hintmask 11001000
          -48 callgsubr
          hintmask 00010000
          205 853 -102 callgsubr
        </CharString>
        <CharString name="Lacute">
          529 0 89 callgsubr
          92 26 callgsubr
          90 86 hintmask 11001000
          -48 callgsubr
          40 callsubr
        </CharString>
        <CharString name="Lambda">
          593 23 callgsubr
          565 hmoveto
          -226 694 rlineto
          -86 hlineto
          -226 -694 rlineto
          73 hlineto
          97 302 26 80 57 178 7 58 rlinecurve
          1 hlineto
          7 -59 55 -171 25 -79 99 -309 rcurveline
          endchar
        </CharString>
        <CharString name="Lcaron">
          529 0 62 468 -21 113 72 hstem
          90 86 vstem
          -48 callgsubr
          213 622 -86 callgsubr
        </CharString>
        <CharString name="Lcedilla">
          529 -39 callgsubr
          76 89 callgsubr
          hstem
          90 86 vstem
          -48 callgsubr
          211 -148 -86 callgsubr
        </CharString>
        <CharString name="Lcommaaccent">
          529 -39 callgsubr
          76 89 callgsubr
          hstemhm
          90 86 hintmask 00111000
          -48 callgsubr
          hintmask 11000000
          211 -148 -86 callgsubr
        </CharString>
        <CharString name="Ldot">
          529 0 62 263 86 283 -20 hstem
          90 86 178 86 vstem
          -48 callgsubr
          350 325 -82 callsubr
        </CharString>
        <CharString name="Ldotbelow">
          529 -7 callgsubr
          114 89 callgsubr
          hstemhm
          90 86 45 86 hintmask 01110000
          -48 callgsubr
          hintmask 10001000
          217 -200 -82 callsubr
        </CharString>
        <CharString name="Ldotbelowmacron">
          529 -7 callgsubr
          114 89 callgsubr
          81 63 hstemhm
          90 86 45 86 hintmask 11101100
          -48 callgsubr
          217 -200 -74 callsubr
          hintmask 00010000
          88 955 -57 callsubr
        </CharString>
        <CharString name="Lslash">
          611 0 89 callgsubr
          hstem
          162 86 vstem
          559 hmoveto
          64 vlineto
          -263 -2 rlineto
          -48 300 hlineto
          170 141 -38 45 -132 -111 rlineto
          257 -86 -329 vlineto
          -102 -87 37 -43 65 56 rlineto
          -291 vlineto
          endchar
        </CharString>
        <CharString name="M">
          850 23 callgsubr
          95 77 505 77 vstem
          -61 callgsubr
          endchar
        </CharString>
        <CharString name="Mdotbelow">
          850 4 callgsubr
          694 -20 hstemhm
          95 77 210 86 209 77 hintmask 01110100
          -61 callgsubr
          hintmask 10001000
          -209 -200 -82 callsubr
        </CharString>
        <CharString name="Mu">
          850 23 callgsubr
          95 77 505 77 vstem
          -61 callgsubr
          endchar
        </CharString>
        <CharString name="N">
          686 23 callgsubr
          91 77 349 77 vstem
          -83 callgsubr
          endchar
        </CharString>
        <CharString name="Nacute">
          686 -33 callsubr
          92 26 callgsubr
          91 77 349 77 hintmask 11001100
          -83 callgsubr
          hintmask 00110000
          62 867 -95 callsubr
        </CharString>
        <CharString name="Ncaron">
          686 -33 callsubr
          82 -21 134 -20 hstemhm
          91 77 349 77 hintmask 11001100
          -83 callgsubr
          hintmask 00110000
          28 869 -83 callsubr
        </CharString>
        <CharString name="Ncedilla">
          686 4 callsubr
          hstem
          91 77 349 77 vstem
          -83 callgsubr
          -92 -148 -86 callgsubr
        </CharString>
        <CharString name="Ncommaaccent">
          686 -1 callgsubr
          91 77 349 77 hintmask 00111100
          -83 callgsubr
          hintmask 11000000
          -92 -148 -86 callgsubr
        </CharString>
        <CharString name="Ndotaccent">
          686 -33 callsubr
          61 86 hstemhm
          91 77 132 86 131 77 hintmask 11010100
          -83 callgsubr
          hintmask 00101000
          -85 735 -82 callsubr
        </CharString>
        <CharString name="Ndotbelow">
          686 4 callgsubr
          694 -20 hstemhm
          91 77 132 86 131 77 hintmask 01110100
          -83 callgsubr
          hintmask 10001000
          -85 -200 -82 callsubr
        </CharString>
        <CharString name="Ntilde">
          686 -33 callsubr
          61 31 callgsubr
          91 77 349 77 hintmask 11001100
          -83 callgsubr
          hintmask 00010000
          34 853 -102 callgsubr
        </CharString>
        <CharString name="Nu">
          686 23 callgsubr
          91 77 349 77 vstem
          -83 callgsubr
          endchar
        </CharString>
        <CharString name="O">
          -27 callgsubr
          hstem
          54 86 441 86 vstem
          -106 callgsubr
          endchar
        </CharString>
        <CharString name="OE">
          -59 callsubr
        </CharString>
        <CharString name="OE.dup">
          -59 callsubr
        </CharString>
        <CharString name="Oacute">
          -27 callgsubr
          51 -21 122 -100 callgsubr
          -30 507 -95 callsubr
        </CharString>
        <CharString name="Obreve">
          -27 callgsubr
          30 65 113 -100 callgsubr
          -55 563 -105 callsubr
          endchar
        </CharString>
        <CharString name="Ocaron">
          -27 callgsubr
          41 -21 134 -81 callgsubr
          509 -83 callsubr
        </CharString>
        <CharString name="Ocircumflex">
          -27 callgsubr
          41 -21 134 -81 callgsubr
          375 -103 callgsubr
          endchar
        </CharString>
        <CharString name="Ocircumflexacute">
          -27 callgsubr
          41 -21 291 -81 callgsubr
          375 -78 callgsubr
        </CharString>
        <CharString name="Ocircumflexdotbelow">
          722 -7 callgsubr
          93 44 callsubr
          41 -21 134 -20 hstemhm
          54 86 178 86 177 86 hintmask 01111101
          -106 callgsubr
          -64 375 -103 callgsubr
          hintmask 10000010
          -54 -935 -82 callsubr
        </CharString>
        <CharString name="Ocircumflexgrave">
          -27 callgsubr
          41 -21 134 -81 callgsubr
          375 -78 callsubr
        </CharString>
        <CharString name="Ocircumflexhookabove">
          -27 callgsubr
          41 -21 365 -81 callgsubr
          375 -103 callgsubr
          93 286 -107 callgsubr
        </CharString>
        <CharString name="Ocircumflextilde">
          -27 callgsubr
          41 -21 189 31 callgsubr
          54 86 441 86 hintmask 11000110
          -106 callgsubr
          hintmask 00101000
          -64 375 -103 callgsubr
          66 307 -97 callsubr
        </CharString>
        <CharString name="Odblgrave">
          -27 callgsubr
          51 -21 167 -100 callgsubr
          -81 385 -88 callsubr
        </CharString>
        <CharString name="Odieresis">
          -27 callgsubr
          20 78 hstemhm
          54 86 99 77 90 77 98 86 hintmask 11010010
          -106 callgsubr
          hintmask 00101100
          -265 375 -70 callsubr
          endchar
        </CharString>
        <CharString name="Odotbelow">
          722 -7 callgsubr
          93 44 callsubr
          hstemhm
          54 86 178 86 177 86 hintmask 01110100
          -106 callgsubr
          hintmask 10001000
          -177 -560 -82 callsubr
        </CharString>
        <CharString name="Ograve">
          -27 callgsubr
          51 -21 122 -100 callgsubr
          -124 385 -67 callgsubr
        </CharString>
        <CharString name="Ohookabove">
          -27 callgsubr
          41 -21 216 -100 callgsubr
          -125 512 -107 callgsubr
        </CharString>
        <CharString name="Ohorn">
          44 callgsubr
          60 -20 hstemhm
          54 86 377 81 -80 81 -19 86 hintmask 00000100
          666 345 rmoveto
          95 -29 93 -60 74 vhcurveto
          -13 14 -13 14 -14 12 62 47 rcurveline
          1 vlineto
          79 vlineto
          hintmask 00101000
          -1 1 rlineto
          -79 hlineto
          hintmask 11010100
          -79 callgsubr
          hintmask 00000010
          60 72 29 93 94 vvcurveto
          -86 16 rmoveto
          hintmask 11011000
          -74 callgsubr
          hintmask 00000010
          45 -59 18 -74 -74 vvcurveto
          endchar
        </CharString>
        <CharString name="Ohornacute">
          44 callgsubr
          51 -21 30 -20 112 -87 callgsubr
          -56 506 -95 callsubr
        </CharString>
        <CharString name="Ohorndotbelow">
          722 -7 callgsubr
          93 64 610 62 60 -20 hstemhm
          54 86 178 86 113 81 -80 81 -19 86 hintmask 0000000100000000
          666 345 rmoveto
          95 -29 93 -60 74 vhcurveto
          -13 14 -13 14 -14 12 62 47 rcurveline
          1 vlineto
          79 vlineto
          hintmask 0001001000000000
          -1 1 rlineto
          -79 hlineto
          hintmask 0110100100000000
          -69 callgsubr
          hintmask 0110101000000000
          -63 callgsubr
          hintmask 1000010000000000
          -176 -561 -82 callsubr
        </CharString>
        <CharString name="Ohorngrave">
          44 callgsubr
          51 -21 30 -20 112 -87 callgsubr
          -123 384 -67 callgsubr
        </CharString>
        <CharString name="Ohornhookabove">
          44 callgsubr
          41 -21 40 -20 196 -87 callgsubr
          -124 511 -107 callgsubr
        </CharString>
        <CharString name="Ohorntilde">
          44 callgsubr
          20 31 callgsubr
          54 86 377 81 -80 81 -19 86 hintmask 00000010
          666 345 rmoveto
          95 -29 93 -60 74 vhcurveto
          -13 14 -13 14 -14 12 62 47 rcurveline
          1 vlineto
          79 vlineto
          hintmask 00000100
          -1 1 rlineto
          -79 hlineto
          hintmask 11001010
          -79 callgsubr
          hintmask 00000001
          60 72 29 93 94 vvcurveto
          -86 16 rmoveto
          hintmask 11001100
          -74 callgsubr
          hintmask 00000001
          45 -59 18 -74 -74 vvcurveto
          hintmask 00010000
          -57 492 -102 callgsubr
        </CharString>
        <CharString name="Ohungarumlaut">
          -27 callgsubr
          51 -21 167 -100 callgsubr
          -221 552 -64 callgsubr
        </CharString>
        <CharString name="Omacron">
          -27 callgsubr
          40 63 hstemhm
          54 86 441 86 hintmask 11011000
          -106 callgsubr
          hintmask 00100000
          -44 395 -57 callsubr
        </CharString>
        <CharString name="Omega">
          -55 callgsubr
        </CharString>
        <CharString name="Omicron">
          -27 callgsubr
          hstem
          54 86 441 86 vstem
          -106 callgsubr
          endchar
        </CharString>
        <CharString name="Oogonek">
          722 -20 62 611 62 hstem
          54 86 441 86 vstem
          -49 callsubr
          endchar
        </CharString>
        <CharString name="Oogonekacute">
          722 -20 62 611 62 51 26 callgsubr
          54 86 441 86 hintmask 11001100
          -49 callsubr
          hintmask 00110000
          -30 507 -95 callsubr
        </CharString>
        <CharString name="Orogate">
          722 54 86 191 60 190 86 vstem
          667 345 rmoveto
          199 -127 151 -149 18 vhcurveto
          168 -60 -168 vlineto
          -153 -18 -124 -154 -196 vvcurveto
          -198 128 -149 149 -17 vhcurveto
          -167 60 167 vlineto
          151 18 125 150 196 vvcurveto
          -86 15 rmoveto
          -196 -108 -122 -112 -116 -105 125 193 184 109 109 111 114 107 -112 -181 vhcurveto
          endchar
        </CharString>
        <CharString name="Oslash">
          32 callgsubr
          hstem
          54 84 485 84 vstem
          -80 callsubr
          endchar
        </CharString>
        <CharString name="Oslash.dup">
          32 callgsubr
          hstem
          54 84 485 84 vstem
          -80 callsubr
          endchar
        </CharString>
        <CharString name="Oslashacute">
          32 callgsubr
          28 26 callgsubr
          54 84 485 84 hintmask 1111100110000000
          -80 callsubr
          hintmask 0000011000000000
          -52 522 -95 callsubr
        </CharString>
        <CharString name="Otilde">
          -27 callgsubr
          20 60 -2 60 -102 callsubr
          hintmask 00010000
          -58 493 -102 callgsubr
        </CharString>
        <CharString name="P">
          -24 callsubr
        </CharString>
        <CharString name="Phi">
          707 21 -21 106 61 360 61 106 -20 hstem
          54 84 172 81 177 84 vstem
          652 347 rmoveto
          113 -101 111 -160 17 vhcurveto
          106 -81 -107 vlineto
          -136 -13 -120 -101 -126 vvcurveto
          -126 120 -101 136 -13 vhcurveto
          -107 81 106 vlineto
          161 17 100 111 113 vvcurveto
          -342 -180 rmoveto
          -111 16 -61 77 87 vvcurveto
          87 61 77 111 16 vhcurveto
          258 -180 rmoveto
          -87 -62 -78 -115 -16 vhcurveto
          362 vlineto
          115 -16 62 -78 -87 vvcurveto
          endchar
        </CharString>
        <CharString name="Pi">
          686 21 -21 632 60 43 callgsubr
          595 hmoveto
          692 -505 -692 86 632 333 -632 vlineto
          endchar
        </CharString>
        <CharString name="Psi">
          762 21 -21 108 61 384 60 81 -20 hstem
          123 81 134 81 138 81 vstem
          707 553 rmoveto
          60 -71 vlineto
          -43 -36 -10 -163 -74 -1 -163 -137 -34 hvcurveto
          525 -81 -525 vlineto
          -127 36 -7 144 72 vvcurveto
          148 -15 44 -64 vhcurveto
          -71 -60 hlineto
          64 -4 5 -78 -67 vvcurveto
          1 -103 32 -167 182 -27 rrcurveto
          -107 81 107 vlineto
          217 27 2 231 60 vvcurveto
          54 10 71 59 3 vhcurveto
          endchar
        </CharString>
        <CharString name="Q">
          722 -104 -21 104 62 612 62 hstem
          54 84 316 84 45 84 -3 callgsubr
          -209 142 -157 165 42 38 12 5 13 vhcurveto
          84 -121 rlineto
          101 hlineto
          -117 158 rlineto
          99 80 46 109 123 vvcurveto
          -84 hmoveto
          -128 -50 -86 -51 -42 vhcurveto
          -78 105 rlineto
          -87 hlineto
          100 -144 rlineto
          -7 -20 -8 -2 -28 hhcurveto
          -116 -107 118 186 190 109 118 113 117 106 -121 -187 hvcurveto
          endchar
        </CharString>
        <CharString name="R">
          9 callsubr
          hstem
          91 84 321 79 vstem
          -94 callgsubr
          endchar
        </CharString>
        <CharString name="Racute">
          9 callsubr
          76 callgsubr
          91 84 321 79 hintmask 11100110
          -94 callgsubr
          hintmask 00011000
          9 360 -95 callsubr
        </CharString>
        <CharString name="Rcaron">
          9 callsubr
          62 -21 134 -20 hstemhm
          91 84 321 79 hintmask 11100110
          -94 callgsubr
          hintmask 00011000
          -25 362 -83 callsubr
        </CharString>
        <CharString name="Rcedilla">
          630 68 callgsubr
          317 60 261 56 hstem
          91 84 321 79 vstem
          -94 callgsubr
          -145 -655 -86 callgsubr
        </CharString>
        <CharString name="Rcommaaccent">
          630 68 callgsubr
          317 60 261 56 hstemhm
          91 84 321 79 hintmask 00111110
          -94 callgsubr
          hintmask 11000000
          -145 -655 -86 callgsubr
        </CharString>
        <CharString name="Rdblgrave">
          9 callsubr
          72 38 callgsubr
          91 84 321 79 hintmask 11100110
          -94 callgsubr
          hintmask 00011000
          -69 238 -88 callsubr
        </CharString>
        <CharString name="Rdotaccent">
          9 callsubr
          41 86 71 callgsubr
          hintmask 11101010
          -94 callgsubr
          hintmask 00010100
          -138 228 -82 callsubr
        </CharString>
        <CharString name="Rdotbelow">
          630 -200 86 135 33 callsubr
          71 callgsubr
          hintmask 01111010
          -94 callgsubr
          hintmask 10000100
          -138 -707 -82 callsubr
        </CharString>
        <CharString name="Rdotbelowmacron">
          630 -200 86 135 33 callsubr
          61 63 71 callgsubr
          hintmask 11110111
          -94 callgsubr
          -138 -707 -74 callsubr
          hintmask 00001000
          219 955 -57 callsubr
        </CharString>
        <CharString name="Rho">
          -24 callsubr
        </CharString>
        <CharString name="S">
          544 -21 73 callsubr
          hintmask 01010000
          -84 callgsubr
          hintmask 10111000
          -96 callsubr
          endchar
        </CharString>
        <CharString name="S_S">
          1088 -21 73 callsubr
          109 77 281 77 hintmask 01010000
          -84 callgsubr
          hintmask 10111100
          -96 callsubr
          544 hmoveto
          64 -31 48 -22 25 vhcurveto
          -46 49 -37 10 -67 17 -68 17 -25 6 -22 21 rrcurveto
          -13 14 -27 25 45 vvcurveto
          61 55 59 88 vhcurveto
          hintmask 01000000
          85 45 -33 -32 36 hvcurveto
          15 81 rlineto
          hintmask 10100110
          -96 callsubr
          endchar
        </CharString>
        <CharString name="Sacute">
          22 callgsubr
          51 -21 122 -79 callsubr
          -27 678 -95 callsubr
        </CharString>
        <CharString name="Scaron">
          22 callgsubr
          41 -21 134 -79 callsubr
          -61 680 -83 callsubr
        </CharString>
        <CharString name="Scedilla">
          544 -21 73 callsubr
          hintmask 01010000
          -84 callgsubr
          hintmask 10111000
          -96 callsubr
          -171 -233 -10 callgsubr
        </CharString>
        <CharString name="Scircumflex">
          22 callgsubr
          41 -21 134 -79 callsubr
          -61 546 -103 callgsubr
          endchar
        </CharString>
        <CharString name="Sdotbelow">
          544 -7 callgsubr
          93 57 callsubr
          98 86 97 77 hintmask 00101000
          -84 callgsubr
          hintmask 01011010
          -96 callsubr
          hintmask 10000100
          -174 -389 -82 callsubr
        </CharString>
        <CharString name="Sigma">
          707 0 68 563 63 hstem
          54 598 vstem
          652 hmoveto
          68 -236 -18 callsubr
          -189 hlineto
          188 280 -217 285 rlineto
          200 -59 callgsubr
          254 63 -598 -62 hlineto
          226 -296 -226 -336 rlineto
          endchar
        </CharString>
        <CharString name="T">
          41 callsubr
          hstem
          291 86 vstem
          -73 callsubr
          endchar
        </CharString>
        <CharString name="T_uni0303">
          41 callsubr
          46 31 callgsubr
          291 86 hintmask 11001000
          -73 callsubr
          hintmask 00010000
          -5 227 -102 callgsubr
        </CharString>
        <CharString name="T_uni0308">
          41 callsubr
          46 78 hstemhm
          212 77 2 86 2 77 hintmask 11001000
          -73 callsubr
          hintmask 00110100
          -212 109 -70 callsubr
          endchar
        </CharString>
        <CharString name="Tau">
          41 callsubr
          hstem
          291 86 vstem
          -73 callsubr
          endchar
        </CharString>
        <CharString name="Tcaron">
          41 callsubr
          67 -21 134 -20 hstemhm
          291 86 hintmask 11001000
          -73 callsubr
          hintmask 00110000
          -11 243 -83 callsubr
        </CharString>
        <CharString name="Tcedilla">
          668 -170 -21 168 -20 64 89 callsubr
          hstemhm
          232 132 -73 86 hintmask 01110100
          -73 callsubr
          -137 -649 rmoveto
          -60 hlineto
          hintmask 11001000
          -72 -168 rlineto
          68 hlineto
          endchar
        </CharString>
        <CharString name="Tdotbelow">
          668 4 callgsubr
          626 63 hstemhm
          291 86 hintmask 01110000
          -73 callsubr
          hintmask 10010000
          -124 -826 -82 callsubr
        </CharString>
        <CharString name="Theta">
          762 -21 61 267 81 267 60 hstem
          54 81 491 81 vstem
          707 345 rmoveto
          210 -151 160 -175 -179 -148 -163 -207 -209 152 -157 174 178 149 160 206 vhcurveto
          -81 hmoveto
          -186 -118 -119 -127 -131 -115 122 183 187 117 123 128 132 114 -126 -184 vhcurveto
          -55 -38 rmoveto
          81 -381 -81 vlineto
          endchar
        </CharString>
        <CharString name="Thorn">
          568 21 -21 180 56 275 56 127 -20 hstem
          97 72 265 79 vstem
          513 374 rmoveto
          99 -83 94 -122 vhcurveto
          -139 127 -72 -694 72 180 126 hlineto
          160 58 115 79 hvcurveto
          -79 -1 rmoveto
          -38 -28 -99 -139 vhcurveto
          -98 275 98 hlineto
          103 64 -68 -70 hvcurveto
          endchar
        </CharString>
        <CharString name="Tlinebelow">
          668 -188 63 146 89 callsubr
          hstemhm
          291 86 hintmask 01110000
          -73 callsubr
          hintmask 10000000
          9 -814 -57 callsubr
        </CharString>
        <CharString name="U">
          -27 callsubr
          hstem
          90 86 324 76 vstem
          -100 callsubr
          endchar
        </CharString>
        <CharString name="U_uni032F">
          667 -225 -21 113 65 47 56 659 -20 hstemhm
          90 86 324 76 hintmask 00111100
          -100 callsubr
          hintmask 11000000
          -77 -479 -71 callgsubr
        </CharString>
        <CharString name="Uacute">
          -27 callsubr
          92 26 callgsubr
          90 86 324 76 hintmask 11001100
          -100 callsubr
          hintmask 00110000
          -52 634 -95 callsubr
        </CharString>
        <CharString name="Ubreve">
          -27 callsubr
          71 65 77 callgsubr
          90 86 324 76 hintmask 11001100
          -100 callsubr
          hintmask 00110000
          -77 690 -105 callsubr
          endchar
        </CharString>
        <CharString name="Ucaron">
          -27 callsubr
          82 -21 134 -20 hstemhm
          90 86 324 76 hintmask 11001100
          -100 callsubr
          hintmask 00110000
          -86 636 -83 callsubr
        </CharString>
        <CharString name="Ucircumflex">
          -27 callsubr
          82 -21 134 -20 hstemhm
          90 86 324 76 hintmask 11001100
          -100 callsubr
          hintmask 00110000
          -86 502 -103 callgsubr
          endchar
        </CharString>
        <CharString name="Udblgrave">
          -27 callsubr
          92 38 callgsubr
          90 86 324 76 hintmask 11001100
          -100 callsubr
          hintmask 00110000
          -103 512 -88 callsubr
        </CharString>
        <CharString name="Udieresis">
          -27 callsubr
          61 78 56 callsubr
          hintmask 11010010
          -100 callsubr
          hintmask 00101100
          15 callgsubr
          endchar
        </CharString>
        <CharString name="Udieresisacute">
          -27 callsubr
          61 78 72 -21 122 -20 56 callsubr
          hintmask 1100010010000000
          -100 callsubr
          hintmask 0011101100000000
          15 callgsubr
          145 251 -95 callsubr
        </CharString>
        <CharString name="Udieresiscaron">
          -27 callsubr
          61 78 62 -21 134 -20 56 callsubr
          hintmask 1100010010000000
          -100 callsubr
          hintmask 0011101100000000
          15 callgsubr
          111 253 -83 callsubr
        </CharString>
        <CharString name="Udieresisgrave">
          -27 callsubr
          61 78 72 -21 122 -20 56 callsubr
          hintmask 1100010010000000
          -100 callsubr
          hintmask 0011101100000000
          15 callgsubr
          51 129 -67 callgsubr
        </CharString>
        <CharString name="Udotbelow">
          667 -7 callgsubr
          93 56 659 -20 hstemhm
          90 86 114 86 124 76 hintmask 01110100
          -100 callsubr
          hintmask 10001000
          -200 -433 -82 callsubr
        </CharString>
        <CharString name="Ugrave">
          -27 callsubr
          92 26 callgsubr
          90 86 324 76 hintmask 11001100
          -100 callsubr
          hintmask 00110000
          -146 512 -67 callgsubr
        </CharString>
        <CharString name="Uhookabove">
          -27 callsubr
          82 -21 216 -20 hstemhm
          90 86 324 76 hintmask 11001100
          -100 callsubr
          hintmask 00110000
          -147 639 -107 callgsubr
        </CharString>
        <CharString name="Uhorn">
          667 -21 56 740 -20 hstem
          42 callgsubr
          vstem
          -93 callgsubr
          endchar
        </CharString>
        <CharString name="Uhornacute">
          667 -21 56 731 -21 30 -20 112 -20 70 callgsubr
          hintmask 10101110
          -93 callgsubr
          hintmask 01010000
          -170 173 -95 callsubr
        </CharString>
        <CharString name="Uhorndotbelow">
          667 -7 callgsubr
          93 56 740 -20 hstemhm
          95 76 119 86 118 76 16 81 hintmask 01110110
          -93 callgsubr
          hintmask 10001000
          -290 -894 -82 callsubr
        </CharString>
        <CharString name="Uhorngrave">
          667 -21 56 731 -21 30 -20 112 -20 70 callgsubr
          hintmask 10101110
          -93 callgsubr
          hintmask 01010000
          -237 51 -67 callgsubr
        </CharString>
        <CharString name="Uhornhookabove">
          667 -21 56 721 -21 40 -20 196 -20 70 callgsubr
          hintmask 10101110
          -93 callgsubr
          hintmask 01010000
          -238 178 -107 callgsubr
        </CharString>
        <CharString name="Uhorntilde">
          667 -21 56 700 60 -2 60 70 callgsubr
          hintmask 10011100
          -93 callgsubr
          hintmask 00100000
          -171 159 -80 callgsubr
        </CharString>
        <CharString name="Uhungarumlaut">
          -27 callsubr
          92 38 callgsubr
          90 86 324 76 hintmask 11001100
          -100 callsubr
          hintmask 00110000
          -243 679 -64 callgsubr
        </CharString>
        <CharString name="Umacron">
          -27 callsubr
          81 63 hstemhm
          90 86 324 76 hintmask 11011000
          -100 callsubr
          hintmask 00100000
          -66 522 -57 callsubr
        </CharString>
        <CharString name="Uogonek">
          667 -212 70 121 56 659 -20 hstem
          90 86 324 76 vstem
          576 233 rmoveto
          461 -76 -462 vlineto
          -134 -84 -63 -80 -79 -81 62 135 vhcurveto
          462 -86 -461 vlineto
          -138 102 -103 120 -12 vhcurveto
          -35 -28 -24 -39 2 -40 rrcurveto
          -60 callgsubr
          16 callgsubr
          35 26 29 34 23 rrcurveto
          111 21 88 100 129 vvcurveto
          endchar
        </CharString>
        <CharString name="Upsilon">
          762 21 -21 650 65 hstem
          54 77 207 86 206 77 vstem
          707 555 rmoveto
          98 -2 -75 62 -79 hhcurveto
          -110 -43 -104 -113 -17 hvcurveto
          -1 hlineto
          67 -10 -28 150 -132 hhcurveto
          -79 -75 -62 -98 -2 hvcurveto
          76 hlineto
          58 2 35 37 43 hhcurveto
          70 58 -48 -219 hvcurveto
          -383 86 385 vlineto
          209 52 56 75 43 35 -37 -58 2 vhcurveto
          endchar
        </CharString>
        <CharString name="Uring">
          667 -21 56 659 47 74 47 hstemhm
          90 86 49 60 98 60 57 76 hintmask 11010010
          -100 callsubr
          hintmask 01101100
          -193 545 -92 callsubr
          endchar
        </CharString>
        <CharString name="Utilde">
          -27 callsubr
          61 31 callgsubr
          90 86 324 76 hintmask 11001100
          -100 callsubr
          hintmask 00010000
          -80 620 -102 callgsubr
        </CharString>
        <CharString name="V">
          647 23 callgsubr
          14 618 vstem
          632 694 rmoveto
          -76 hlineto
          -125 -332 -40 -107 -50 -132 -11 -49 rlinecurve
          -1 hlineto
          -9 43 -32 84 -24 64 -160 429 rcurveline
          -90 hlineto
          264 -694 rlineto
          90 hlineto
          endchar
        </CharString>
        <CharString name="W">
          919 23 callgsubr
          14 890 vstem
          -86 callsubr
          endchar
        </CharString>
        <CharString name="Wacute">
          919 -33 callsubr
          92 26 callgsubr
          14 890 hintmask 11001000
          -86 callsubr
          hintmask 00110000
          -58 867 -95 callsubr
        </CharString>
        <CharString name="Wcircumflex">
          919 -33 callsubr
          82 -21 134 -20 hstemhm
          14 890 hintmask 11001000
          -86 callsubr
          hintmask 00110000
          -92 735 -103 callgsubr
          endchar
        </CharString>
        <CharString name="Wdieresis">
          919 70 callsubr
          14 890 -566 77 90 77 hintmask 01000100
          904 694 rmoveto
          -73 hlineto
          -91 -328 -22 -79 0 -2 -18 -67 rlinecurve
          -13 -48 -15 -58 -4 -36 rrcurveto
          -1 hlineto
          -5 42 -22 86 -17 60 -118 430 rcurveline
          -85 hlineto
          -86 -310 -7 -24 -60 -218 -7 -65 rlinecurve
          -1 hlineto
          -4 39 -25 97 -4 17 -43 160 rcurveline
          -84 304 rlineto
          hintmask 11010000
          -85 hlineto
          196 -694 rlineto
          83 hlineto
          94 340 25 89 38 137 6 53 rlinecurve
          1 hlineto
          0 7 -52 47 -171 vhcurveto
          109 -396 rlineto
          88 hlineto
          hintmask 00101100
          -293 735 -70 callsubr
          endchar
        </CharString>
        <CharString name="Wgrave">
          919 -33 callsubr
          92 26 callgsubr
          14 890 hintmask 11001000
          -86 callsubr
          hintmask 00110000
          -152 745 -67 callgsubr
        </CharString>
        <CharString name="X">
          -20 callsubr
        </CharString>
        <CharString name="Xi">
          653 0 72 -72 73 249 72 222 73 -72 72 hstemhm
          41 570 hintmask 00001000
          606 616 rmoveto
          73 -560 vlineto
          hintmask 00010000
          -73 122 vlineto
          hintmask 00001000
          157 1 rlineto
          hintmask 01010100
          159 -1 rlineto
          127 -616 rmoveto
          73 -125 vlineto
          hintmask 10000000
          -159 -1 rlineto
          hintmask 01100100
          -161 1 rlineto
          -125 -73 hlineto
          502 322 rmoveto
          72 -434 -72 vlineto
          endchar
        </CharString>
        <CharString name="Y">
          647 23 callgsubr
          281 84 vstem
          -84 callsubr
          endchar
        </CharString>
        <CharString name="Yacute">
          647 -33 callsubr
          92 26 callgsubr
          281 84 hintmask 11001000
          -84 callsubr
          hintmask 00110000
          149 589 -95 callsubr
        </CharString>
        <CharString name="Ycircumflex">
          647 -33 callsubr
          82 -21 134 -20 hstemhm
          281 84 hintmask 11001000
          -84 callsubr
          hintmask 00110000
          115 457 -103 callgsubr
          endchar
        </CharString>
        <CharString name="Ydieresis">
          647 70 callsubr
          202 77 2 84 4 77 hintmask 11001000
          -84 callsubr
          hintmask 00110100
          -86 457 -70 callsubr
          endchar
        </CharString>
        <CharString name="Ydotbelow">
          68 callsubr
          694 -20 hstemhm
          281 84 -84 86 hintmask 01110000
          -84 callsubr
          hintmask 10001000
          2 -478 -82 callsubr
        </CharString>
        <CharString name="Ygrave">
          647 -33 callsubr
          92 26 callgsubr
          281 84 hintmask 11001000
          -84 callsubr
          hintmask 00110000
          55 467 -67 callgsubr
        </CharString>
        <CharString name="Yhookabove">
          647 -33 callsubr
          82 -21 216 -20 hstemhm
          281 84 hintmask 11001000
          -84 callsubr
          hintmask 00110000
          54 594 -107 callgsubr
        </CharString>
        <CharString name="Ytilde">
          647 -33 callsubr
          61 31 callgsubr
          281 84 hintmask 11001000
          -84 callsubr
          hintmask 00010000
          121 575 -102 callgsubr
        </CharString>
        <CharString name="Z">
          43 callsubr
          hstem
          54 494 vstem
          -72 callsubr
          endchar
        </CharString>
        <CharString name="Zacute">
          43 callsubr
          76 callgsubr
          54 494 hintmask 11001000
          -72 callsubr
          hintmask 00110000
          435 867 -95 callsubr
        </CharString>
        <CharString name="Zcaron">
          43 callsubr
          62 -21 134 -20 hstemhm
          54 494 hintmask 11001000
          -72 callsubr
          hintmask 00110000
          401 869 -83 callsubr
        </CharString>
        <CharString name="Zdotaccent">
          43 callsubr
          41 86 hstemhm
          54 494 -292 86 hintmask 11010000
          -72 callsubr
          hintmask 00101000
          288 735 -82 callsubr
        </CharString>
        <CharString name="Zdotbelow">
          598 -7 callgsubr
          114 64 569 61 hstemhm
          54 494 -292 86 hintmask 01110000
          -72 callsubr
          hintmask 10001000
          288 -200 -82 callsubr
        </CharString>
        <CharString name="Zeta">
          43 callsubr
          hstem
          54 494 vstem
          -72 callsubr
          endchar
        </CharString>
        <CharString name="a">
          -66 callsubr
          hstem
          -19 callgsubr
          vstem
          -107 callsubr
          endchar
        </CharString>
        <CharString name="aacute">
          -66 callsubr
          89 -21 167 -104 callgsubr
          47 495 -77 callgsubr
        </CharString>
        <CharString name="abreve">
          -66 callsubr
          63 65 113 -104 callgsubr
          7 callsubr
          endchar
        </CharString>
        <CharString name="abreveacute">
          -66 callsubr
          63 65 270 -104 callgsubr
          75 501 -56 callsubr
        </CharString>
        <CharString name="abrevedotbelow">
          31 callsubr
          63 65 77 callgsubr
          54 71 66 86 48 76 hintmask 0111111010000000
          -107 callsubr
          7 callsubr
          hintmask 1000000100000000
          -123 -900 -82 callsubr
        </CharString>
        <CharString name="abrevegrave">
          -66 callsubr
          63 65 113 -104 callgsubr
          75 501 -53 callsubr
        </CharString>
        <CharString name="abrevehookabove">
          -66 callsubr
          63 65 344 -104 callgsubr
          7 callsubr
          -70 152 -107 callgsubr
        </CharString>
        <CharString name="abrevetilde">
          -66 callsubr
          63 65 168 60 -2 60 -14 callsubr
          hintmask 11100011
          -107 callsubr
          hintmask 00010100
          7 callsubr
          -3 173 -90 callgsubr
        </CharString>
        <CharString name="acaron">
          -66 callsubr
          87 -21 172 -104 callgsubr
          65 498 -82 callgsubr
        </CharString>
        <CharString name="acircumflex">
          -66 callsubr
          87 -21 172 -104 callgsubr
          65 326 -89 callsubr
          endchar
        </CharString>
        <CharString name="acircumflexacute">
          -66 callsubr
          87 -21 291 -104 callgsubr
          66 326 -78 callgsubr
        </CharString>
        <CharString name="acircumflexdotbelow">
          31 callsubr
          87 -21 172 -20 hstemhm
          54 71 66 86 48 76 hintmask 0111111010000000
          -107 callsubr
          65 326 -89 callsubr
          hintmask 1000000100000000
          -54 -725 -82 callsubr
        </CharString>
        <CharString name="acircumflexgrave">
          -66 callsubr
          87 -21 134 -104 callgsubr
          66 326 -78 callsubr
        </CharString>
        <CharString name="acircumflexhookabove">
          -66 callsubr
          87 -21 365 -104 callgsubr
          66 326 -103 callgsubr
          93 286 -107 callgsubr
        </CharString>
        <CharString name="acircumflextilde">
          -66 callsubr
          87 -21 189 60 -2 60 -14 callsubr
          hintmask 11100011
          -107 callsubr
          hintmask 00010100
          66 326 -103 callgsubr
          66 307 -90 callgsubr
        </CharString>
        <CharString name="acute">
          490 548 -11 callgsubr
          hstem
          382 694 -77 callgsubr
        </CharString>
        <CharString name="acute.cap">
          490 516 52 callgsubr
          hstem
          435 617 -95 callsubr
        </CharString>
        <CharString name="acute.dup">
          490 548 -11 callgsubr
          hstem
          382 694 -77 callgsubr
        </CharString>
        <CharString name="acute.ts1">
          489 561 -21 190 -20 hstem
          407 730 rmoveto
          -76 hlineto
          -101 -145 -30 -45 rlineto
          59 hlineto
          endchar
        </CharString>
        <CharString name="adblgrave">
          -66 callsubr
          89 -21 167 -104 callgsubr
          49 328 -88 callsubr
        </CharString>
        <CharString name="adieresis">
          -66 callsubr
          113 78 hstemhm
          54 71 1 77 64 77 -19 76 hintmask 11101001
          -107 callsubr
          hintmask 00010110
          -122 373 -7 callsubr
        </CharString>
        <CharString name="adotbelow">
          31 callsubr
          hstemhm
          54 71 66 86 48 76 hintmask 01111010
          -107 callsubr
          hintmask 10000100
          -48 -399 -82 callsubr
        </CharString>
        <CharString name="ae">
          -75 callsubr
        </CharString>
        <CharString name="ae.dup">
          -75 callsubr
        </CharString>
        <CharString name="aeacute">
          707 -10 60 -3 60 91 54 -27 54 12 60 48 60 -58 58 23 callsubr
          46 71 -36 76 158 76 228 60 hintmask 0010101000110000
          679 225 rmoveto
          36 -1 198 -162 -13 -75 0 -77 -60 vhcurveto
          37 -24 -41 40 -74 hhcurveto
          -60 -46 -15 -27 -48 hvcurveto
          6 -66 rlineto
          27 38 45 23 66 hhcurveto
          41 44 -33 -77 hvcurveto
          -39 vlineto
          hintmask 0000000001000000
          -142 -1 -127 -44 -91 vvcurveto
          hintmask 1000000000100000
          -34 18 -92 93 4 59 0 15 54 vhcurveto
          68 20 20 31 8 11 rrcurveto
          -49 43 56 -28 62 hhcurveto
          hintmask 0100000000000000
          79 63 48 9 hvcurveto
          5 -3 23 5 0 -3 23 4 vvcurveto
          hintmask 1001010001011000
          -43 -44 -52 -14 -39 hhcurveto
          -70 -69 63 112 -2 hvcurveto
          228 54 rmoveto
          -222 hlineto
          74 18 50 46 51 hhcurveto
          48 43 -37 -83 12 hvcurveto
          -300 -146 rmoveto
          -21 0 -22 -33 -20 vhcurveto
          -14 -22 -32 -6 -26 hhcurveto
          -52 -37 30 37 hvcurveto
          hintmask 0010000000000000
          71 152 8 47 2 vhcurveto
          1 -18 2 -30 -17 vvcurveto
          hintmask 0000000110000000
          172 561 -77 callgsubr
        </CharString>
        <CharString name="agrave">
          -66 callsubr
          89 -21 167 -104 callgsubr
          -21 328 -58 callgsubr
        </CharString>
        <CharString name="ahookabove">
          -66 callsubr
          65 -21 216 -104 callgsubr
          5 441 -107 callgsubr
        </CharString>
        <CharString name="amacron">
          -66 callsubr
          120 63 -14 callsubr
          hintmask 11101100
          -107 callsubr
          hintmask 00010000
          86 380 -57 callsubr
        </CharString>
        <CharString name="ampersand">
          741 -21 62 303 62 249 60 hstem
          41 76 41 65 130 70 vstem
          686 -5 rmoveto
          66 vlineto
          -14 -39 -43 -6 -29 hhcurveto
          -14 -40 0 39 -49 hvcurveto
          107 101 50 117 23 91 -61 17 rcurveline
          -34 -125 -56 -94 -75 -65 -12 13 -102 121 -39 88 rrcurveto
          97 86 53 66 64 vvcurveto
          73 -47 82 -82 -83 -53 -89 -108 -87 30 -77 2 -5 vhcurveto
          -80 -72 rlineto
          -28 -25 -41 -37 -70 vvcurveto
          -87 73 -79 107 31 78 4 54 85 vhcurveto
          -53 69 55 -5 35 hhcurveto
          10 43 0 16 59 hvcurveto
          -333 566 rmoveto
          -57 -51 -49 -53 -52 vhcurveto
          -20 59 -6 57 33 vvcurveto
          73 38 30 33 51 8 -69 -25 vhcurveto
          14 -481 rmoveto
          -18 -30 -56 -21 -59 hhcurveto
          -72 -33 61 49 56 25 22 73 62 hvcurveto
          52 -96 60 -72 40 -43 rrcurveto
          endchar
        </CharString>
        <CharString name="anglearc">
          762 -56 -21 654 -20 hstem
          548 36 vstem
          707 18 rmoveto
          8 -5 6 -7 3 vhcurveto
          -138 52 rlineto
          18 52 9 55 56 vvcurveto
          56 -9 55 -18 52 vhcurveto
          138 52 rlineto
          7 3 5 6 8 vvcurveto
          13 -13 8 -11 -4 vhcurveto
          -138 -52 -19 44 -24 42 -30 37 rlinecurve
          4 -4 -5 3 -5 hhcurveto
          -10 -8 -8 -10 -4 1 -4 3 -3 hvcurveto
          27 -35 23 -38 17 -41 -445 -167 rcurveline
          -7 -3 -5 -6 -8 vvcurveto
          -8 5 -6 7 -3 vhcurveto
          445 -167 -17 -41 -23 -38 -27 -35 rlinecurve
          -3 -3 -1 -4 -4 vvcurveto
          -10 8 -8 10 5 5 3 4 4 vhcurveto
          30 37 24 42 19 44 138 -52 rcurveline
          11 -4 13 8 13 vvcurveto
          -159 232 rmoveto
          -52 -8 -50 -16 -49 vhcurveto
          -401 151 401 151 rlineto
          16 -49 8 -50 -52 vvcurveto
          endchar
        </CharString>
        <CharString name="angleleft">
          381 37 callsubr
          21 -20 hstemhm
          hintmask 00100000
          326 -230 rmoveto
          -1 6 -2 5 -2 5 -165 440 rcurveline
          -3 7 -6 10 8 vvcurveto
          3 2 4 2 4 vhcurveto
          122 325 50 133 rlineto
          1 5 2 5 5 vvcurveto
          9 -2 -8 7 -8 hhcurveto
          hintmask 11000000
          -5 -1 -9 -2 -4 -8 -3 -8 rlinecurve
          -169 -451 rlineto
          -3 -9 -7 -12 -10 vvcurveto
          -9 6 -10 3 -8 vhcurveto
          88 -235 70 -187 10 -26 rlineto
          -11 4 5 -14 14 hhcurveto
          10 8 11 9 hvcurveto
          endchar
        </CharString>
        <CharString name="angleright">
          381 37 callsubr
          21 -20 hstemhm
          hintmask 00100000
          272 251 rmoveto
          10 -6 10 -4 9 vhcurveto
          -167 447 rlineto
          11 -4 -5 13 -14 hhcurveto
          hintmask 11000000
          -4 -1 rlineto
          -9 -2 -5 -8 -9 vvcurveto
          1 -5 2 -5 2 -5 71 -189 rcurveline
          72 -193 22 -57 rlineto
          3 -8 6 -10 -9 vvcurveto
          -3 -2 -4 -2 -4 vhcurveto
          -168 -449 rlineto
          -3 -7 -4 -8 -7 vvcurveto
          -11 10 -7 10 vhcurveto
          11 1 5 10 3 9 62 166 rcurveline
          83 220 24 64 rlineto
          3 9 7 12 10 vvcurveto
          endchar
        </CharString>
        <CharString name="aogonek">
          469 -10 60 351 58 hstem
          -19 callgsubr
          vstem
          -55 callsubr
          endchar
        </CharString>
        <CharString name="aogonekacute">
          469 -10 60 351 58 89 -21 167 -20 -14 callsubr
          hintmask 11001100
          -55 callsubr
          hintmask 00110000
          47 495 -77 callgsubr
        </CharString>
        <CharString name="aring">
          -66 callsubr
          58 47 74 47 hstemhm
          54 71 1 60 98 60 -19 76 hintmask 1110010010000000
          -107 callsubr
          hintmask 0001101100000000
          -41 402 -92 callsubr
          endchar
        </CharString>
        <CharString name="aringacute">
          -66 callsubr
          58 47 74 47 157 -20 hstemhm
          54 71 1 60 98 60 -19 76 hintmask 1110001001000000
          -107 callsubr
          hintmask 0001110110000000
          -41 402 -92 callsubr
          34 242 -95 callsubr
        </CharString>
        <CharString name="asciicircum">
          556 583 -21 123 59 hstem
          -5 566 vstem
          561 584 rmoveto
          -283 160 -283 -160 11 -22 271 123 272 -123 rlineto
          endchar
        </CharString>
        <CharString name="asciitilde">
          556 193 43 -25 43 -8 43 -25 43 hstemhm
          hintmask 10010000
          555 290 13 callgsubr
          hintmask 01000000
          -3 callsubr
          hintmask 00100000
          20 10 20 11 17 14 rrcurveto
          endchar
        </CharString>
        <CharString name="asciitilde.low">
          556 0 43 -25 43 -8 43 -25 43 hstemhm
          0 555 hintmask 10010000
          555 97 13 callgsubr
          hintmask 01001000
          -3 callsubr
          hintmask 00101000
          20 10 20 11 17 14 rrcurveto
          endchar
        </CharString>
        <CharString name="asterisk">
          490 327 54 callgsubr
          hstem
          211 67 vstem
          426 435 rmoveto
          10 -3 12 -18 10 vhcurveto
          -113 61 113 61 rlineto
          18 10 3 12 10 vvcurveto
          17 -14 17 -19 -10 -5 -3 -6 -8 vhcurveto
          -100 -71 8 141 rlineto
          23 -18 11 -15 -18 -16 -12 -22 vhcurveto
          8 -141 -99 71 rlineto
          9 -12 -9 0 -3 hhcurveto
          -19 -14 -17 -17 -10 3 -12 18 -10 hvcurveto
          113 -61 -113 -61 rlineto
          -18 -10 -3 -12 -10 vvcurveto
          -17 14 -17 19 10 5 3 6 8 vhcurveto
          100 71 -8 -141 rlineto
          -23 18 -11 15 18 16 12 22 vhcurveto
          -1 9 -7 132 99 -71 rlineto
          -9 12 9 0 3 hhcurveto
          19 14 17 17 hvcurveto
          endchar
        </CharString>
        <CharString name="asterisk.math">
          489 50 54 callgsubr
          hstem
          161 52 5 52 5 52 cntrmask 00111000
          425 159 rmoveto
          16 -9 9 -16 8 vhcurveto
          -73 40 -11 6 -11 7 -11 5 rlinecurve
          2 vlineto
          11 5 11 7 11 6 73 40 rcurveline
          16 8 9 8 17 vvcurveto
          21 -16 14 -21 vhcurveto
          -15 -1 -12 -13 -12 -8 -26 -19 -26 -20 -27 -18 rrcurveto
          3 46 5 48 46 vvcurveto
          15 -11 19 -23 -18 -16 -14 -22 -16 2 -16 1 -15 vhcurveto
          5 -91 -27 18 -26 20 -26 19 rlinecurve
          -12 8 -12 13 -15 1 rrcurveto
          -21 -16 -14 -21 -16 9 -9 16 -8 hvcurveto
          73 -40 11 -6 11 -7 11 -5 rlinecurve
          -2 vlineto
          -11 -5 -11 -7 -11 -6 -73 -40 rcurveline
          -16 -8 -9 -8 -17 vvcurveto
          -21 16 -14 21 vhcurveto
          15 1 12 13 12 8 26 19 26 20 27 18 rrcurveto
          -3 -46 -5 -48 -46 vvcurveto
          -15 11 -19 23 18 16 14 22 16 -2 16 -1 15 vhcurveto
          -5 91 27 -18 26 -20 26 -19 rlinecurve
          12 -8 12 -13 15 -1 rrcurveto
          21 16 14 21 hvcurveto
          endchar
        </CharString>
        <CharString name="at">
          653 -10 60 71 60 332 60 71 60 hstem
          54 75 105 75 214 75 vstem
          598 85 rmoveto
          -47 hlineto
          -15 -2 0 -4 -8 hvcurveto
          -9 -21 -53 -22 -69 hhcurveto
          -144 -110 134 163 175 123 122 126 50 45 -26 -69 25 hvcurveto
          1 -2 -35 23 -45 hhcurveto
          -96 -86 -96 -130 -130 86 -96 96 66 116 57 184 86 -1 256 -218 -172 -153 -153 -204 -202 151 -155 175 100 77 49 46 41 hvcurveto
          -75 262 rmoveto
          -95 -50 -71 -57 -57 -50 70 96 95 50 71 57 57 50 -70 -96 vhcurveto
          endchar
        </CharString>
        <CharString name="atilde">
          -66 callsubr
          93 60 -2 60 -105 callgsubr
          hintmask 00001000
          72 471 -97 callsubr
        </CharString>
        <CharString name="b">
          1 callgsubr
          296 -74 -694 -14 callgsubr
        </CharString>
        <CharString name="backslash">
          500 37 callsubr
          hstem
          56 387 vstem
          443 -230 rmoveto
          0 0 5 -5 13 vhcurveto
          -340 940 rlineto
          11 -4 -4 11 -14 hhcurveto
          -11 -9 -9 -11 0 0 -5 5 -13 hvcurveto
          340 -940 rlineto
          -11 4 4 -11 14 hhcurveto
          11 9 9 11 hvcurveto
          endchar
        </CharString>
        <CharString name="baht">
          650 0 56 275 60 243 60 -56 56 hstemhm
          93 81 112 62 142 77 -51 79 hintmask 10011110
          595 188 rmoveto
          88 -87 71 -103 16 vhcurveto
          117 32 45 67 58 vvcurveto
          85 -91 79 -128 9 vhcurveto
          63 -62 -62 -193 -694 193 -62 62 62 3 vlineto
          hintmask 00100101
          141 103 90 98 hvcurveto
          -105 331 rmoveto
          -59 -60 -50 -82 -15 vhcurveto
          239 vlineto
          hintmask 01011110
          82 -14 60 -46 -55 vvcurveto
          -204 -128 rmoveto
          -112 247 112 hlineto
          230 -449 rmoveto
          -65 -69 -58 -99 -9 vhcurveto
          271 vlineto
          hintmask 11001101
          105 -13 63 -64 -62 vvcurveto
          -230 -133 rmoveto
          -112 275 112 hlineto
          endchar
        </CharString>
        <CharString name="bar">
          278 87 callgsubr
          vstem
          159 -217 rmoveto
          -5 callsubr
          endchar
        </CharString>
        <CharString name="bigcircle">
          694 0 35 624 35 hstem
          0 35 624 -85 callsubr
          endchar
        </CharString>
        <CharString name="blanksymbol">
          1 callgsubr
          142 vlineto
          95 88 -43 45 -52 -49 rlineto
          70 -74 -139 vlineto
          -78 -73 42 -45 36 33 rlineto
          -470 -14 callgsubr
        </CharString>
        <CharString name="braceleft">
          500 -229 -21 487 24 489 -20 hstem
          216 67 vstem
          427 -239 rmoveto
          10 -6 0 -10 1 vhcurveto
          -79 5 -37 45 -9 36 rrcurveto
          -3 11 0 2 35 vvcurveto
          150 vlineto
          30 0 51 -2 10 vhcurveto
          -13 66 -64 26 -39 11 rrcurveto
          118 34 0 71 28 vvcurveto
          180 vlineto
          72 0 22 24 25 vhcurveto
          18 18 23 24 70 4 rrcurveto
          5 1 4 4 6 vvcurveto
          11 -8 0 -12 -100 -89 -51 -72 -2 vhcurveto
          -183 vlineto
          -94 0 -16 -26 -28 vhcurveto
          -14 -14 -27 -27 -63 -4 rrcurveto
          -7 -7 -1 -10 -10 6 0 10 -1 hvcurveto
          43 -3 85 -21 -100 vvcurveto
          -198 vlineto
          -58 0 -34 52 -37 vhcurveto
          -30 43 65 -8 31 hhcurveto
          12 8 0 11 hvcurveto
          endchar
        </CharString>
        <CharString name="braceright">
          500 -229 -21 510 -21 511 -20 hstem
          216 67 vstem
          427 250 rmoveto
          10 -6 0 -10 1 vhcurveto
          -43 3 -85 21 100 vvcurveto
          198 vlineto
          58 0 34 -52 37 vhcurveto
          29 -43 -64 9 -32 hhcurveto
          -10 -10 0 -11 -10 6 0 10 -1 hvcurveto
          79 -5 37 -45 9 -36 rrcurveto
          3 -11 0 -2 -35 vvcurveto
          -150 vlineto
          -30 0 -51 2 -10 vhcurveto
          13 -66 64 -26 39 -11 rrcurveto
          -118 -34 0 -71 -28 vvcurveto
          -180 vlineto
          -72 0 -22 -24 -25 vhcurveto
          -18 -18 -23 -24 -70 -4 rrcurveto
          -5 -1 -4 -4 -6 vvcurveto
          -11 10 0 10 100 89 51 72 2 vhcurveto
          183 vlineto
          94 0 16 26 28 vhcurveto
          14 14 27 27 63 4 rrcurveto
          7 7 1 10 hvcurveto
          endchar
        </CharString>
        <CharString name="bracketleft">
          283 -250 60 880 60 hstem
          99 71 vstem
          261 -250 rmoveto
          60 -91 880 91 60 -162 -1000 vlineto
          endchar
        </CharString>
        <CharString name="bracketright">
          283 -250 60 880 60 hstem
          112 71 vstem
          183 -250 rmoveto
          1000 -162 -60 91 -880 -91 -60 vlineto
          endchar
        </CharString>
        <CharString name="breve">
          83 callsubr
          113 -20 hstem
          410 700 -105 callsubr
          endchar
        </CharString>
        <CharString name="breve.cap">
          490 495 65 113 -20 hstem
          410 673 -105 callsubr
          endchar
        </CharString>
        <CharString name="breve.ts1">
          598 529 65 136 -20 hstem
          79 60 319 60 vstem
          518 730 rmoveto
          -60 hlineto
          -84 -84 -52 -76 -75 -84 50 86 vhcurveto
          -60 hlineto
          -113 100 -88 119 102 118 71 130 vhcurveto
          endchar
        </CharString>
        <CharString name="brokenbar">
          278 87 callgsubr
          vstem
          159 343 rmoveto
          374 vlineto
          14 0 19 -20 -20 0 -19 -14 vhcurveto
          -374 vlineto
          -15 6 -16 14 14 6 16 15 vhcurveto
          -560 vmoveto
          374 vlineto
          15 -6 16 -14 -14 -6 -16 -15 vhcurveto
          -374 0 callsubr
          endchar
        </CharString>
        <CharString name="bullet">
          762 128 280 hstem
          241 280 67 callgsubr
          endchar
        </CharString>
        <CharString name="c">
          22 callsubr
          hstem
          35 76 vstem
          -85 callgsubr
          endchar
        </CharString>
        <CharString name="cacute">
          22 callsubr
          23 callsubr
          35 76 hintmask 11001000
          -85 callgsubr
          hintmask 00110000
          -31 652 -77 callgsubr
        </CharString>
        <CharString name="caron">
          490 42 callsubr
          400 697 -82 callgsubr
        </CharString>
        <CharString name="caron.cap">
          60 callsubr
          134 -20 hstem
          401 619 -83 callsubr
        </CharString>
        <CharString name="caron.ts1">
          598 511 -21 261 -20 hstem
          466 751 rmoveto
          -59 -2 -11 -15 -97 -175 -109 190 -17 2 rlineto
          -42 hlineto
          29 -67 40 -62 33 -65 rrcurveto
          -31 16 14 -36 14 hhcurveto
          43 hlineto
          15 1 15 9 6 hvcurveto
          25 53 31 53 27 52 14 26 15 26 12 27 rrcurveto
          endchar
        </CharString>
        <CharString name="ccaron">
          22 callsubr
          87 -21 172 -20 hstemhm
          35 76 hintmask 11001000
          -85 callgsubr
          hintmask 00110000
          -13 655 -82 callgsubr
        </CharString>
        <CharString name="ccedilla">
          22 callsubr
          hstem
          35 76 vstem
          -85 callgsubr
          -122 -86 -10 callgsubr
        </CharString>
        <CharString name="ccircumflex">
          22 callsubr
          87 -21 172 -20 hstemhm
          35 76 hintmask 11001000
          -85 callgsubr
          hintmask 00110000
          -13 483 -89 callsubr
          endchar
        </CharString>
        <CharString name="cdotaccent">
          22 callsubr
          109 86 hstemhm
          35 76 85 86 hintmask 11010000
          -85 callgsubr
          hintmask 00101000
          -125 526 -82 callsubr
        </CharString>
        <CharString name="cedilla">
          18 callgsubr
        </CharString>
        <CharString name="cedilla.dup">
          18 callgsubr
        </CharString>
        <CharString name="cent">
          435 -9 62 344 62 hstem
          35 76 97 62 vstem
          407 42 rmoveto
          3 -3 31 -1 4 vhcurveto
          -2 28 -40 -32 -43 -19 -48 -4 rlinecurve
          344 vlineto
          54 -3 26 -16 39 -26 12 65 rcurveline
          -51 30 -32 10 -48 2 rrcurveto
          47 -62 -51 vlineto
          -111 -22 -62 -108 -102 vvcurveto
          -114 73 -96 100 -19 vhcurveto
          -56 62 53 vlineto
          43 3 48 14 46 34 rrcurveto
          -199 16 rmoveto
          -60 20 -37 64 81 vvcurveto
          70 28 76 69 22 vhcurveto
          endchar
        </CharString>
        <CharString name="cent.oldstyle">
          22 callsubr
          hstem
          35 76 214 76 vstem
          407 42 rmoveto
          3 -3 31 -1 4 vhcurveto
          -2 28 rlineto
          -37 -46 -51 -19 -56 hhcurveto
          -13 -12 2 3 -11 hvcurveto
          95 335 32 -7 21 -14 29 -19 rlinecurve
          12 65 -30 17 -23 11 -23 6 rlinecurve
          15 55 rlineto
          -64 hlineto
          -14 -47 rlineto
          -11 hlineto
          -138 -78 -122 -114 -85 40 -74 62 -41 hvcurveto
          -24 -85 rlineto
          64 hlineto
          17 59 rlineto
          -5 17 18 -2 18 hhcurveto
          49 56 12 40 55 hvcurveto
          -163 355 rmoveto
          -87 -306 rlineto
          -29 31 -17 47 54 vvcurveto
          81 38 89 95 4 vhcurveto
          endchar
        </CharString>
        <CharString name="centigrade">
          843 -20 63 0 63 372 37 138 63 -58 37 hstemhm
          284 86 hintmask 01010100
          793 43 rmoveto
          21 -5 21 -1 21 vhcurveto
          -24 -13 -21 -18 -25 -12 rrcurveto
          -17 -37 -42 -3 -40 hhcurveto
          -156 -72 181 124 128 67 153 136 22 hvcurveto
          1 8 8 1 8 hhcurveto
          53 51 -12 -29 46 hvcurveto
          7 -5 6 -5 8 -3 14 82 rcurveline
          21 -55 -59 14 -59 hhcurveto
          -198 -127 -182 -186 hvcurveto
          hintmask 10101000
          -175 116 -193 200 59 55 9 33 56 vhcurveto
          15 9 rlineto
          5 4 3 1 7 vvcurveto
          -575 543 rmoveto
          55 -43 54 -68 vhcurveto
          -9 hlineto
          -56 -8 -41 -47 -54 vvcurveto
          -55 43 -53 68 vhcurveto
          9 hlineto
          55 8 42 45 55 vvcurveto
          -37 hmoveto
          -38 -33 -33 -38 vhcurveto
          -5 hlineto
          -35 3 -27 28 -5 34 rrcurveto
          7 vlineto
          38 33 33 38 vhcurveto
          5 hlineto
          35 -3 27 -28 5 -34 rrcurveto
          endchar
        </CharString>
        <CharString name="circumflex">
          490 42 callsubr
          400 525 -89 callsubr
          endchar
        </CharString>
        <CharString name="circumflex.cap">
          60 callsubr
          134 -20 hstem
          401 485 -103 callgsubr
          endchar
        </CharString>
        <CharString name="circumflex.dup">
          490 42 callsubr
          400 525 -89 callsubr
          endchar
        </CharString>
        <CharString name="colon">
          272 0 81 282 34 callgsubr
          363 17 callgsubr
          81 -363 17 callgsubr
          endchar
        </CharString>
        <CharString name="colonmonetary">
          84 callsubr
          161 62 61 callsubr
          -13 612 9 hlineto
          55 callsubr
          -11 72 -62 -81 hlineto
          -148 -38 -99 -152 -169 vvcurveto
          -167 97 -153 150 -39 vhcurveto
          -81 62 72 12 vlineto
          78 40 11 45 71 hvcurveto
          -263 20 rmoveto
          -102 41 -59 124 127 vvcurveto
          136 65 117 96 39 vhcurveto
          endchar
        </CharString>
        <CharString name="comma">
          272 -104 -21 125 34 callgsubr
          1 -60 callsubr
          endchar
        </CharString>
        <CharString name="copyleft">
          694 0 35 476 35 113 35 hstem
          0 35 624 -85 callsubr
          -126 hmoveto
          127 -87 112 -121 -38 -35 -6 -17 -43 vhcurveto
          10 -52 rlineto
          32 44 40 3 23 hhcurveto
          87 64 -90 -109 -100 -57 -98 -96 -52 -25 10 31 -41 hvcurveto
          -4 -45 rlineto
          -29 46 26 -7 50 hhcurveto
          124 85 113 125 hvcurveto
          endchar
        </CharString>
        <CharString name="copyright">
          694 0 35 476 35 113 35 hstem
          0 35 624 -85 callsubr
          -167 -202 rmoveto
          -3 45 rlineto
          -31 -41 -26 -10 -51 hhcurveto
          -96 -57 98 100 108 64 91 86 23 41 -3 -32 44 hvcurveto
          9 52 rlineto
          17 -43 -34 6 -39 hhcurveto
          -121 -86 -112 -127 -125 84 -113 124 51 25 7 29 46 hvcurveto
          endchar
        </CharString>
        <CharString name="copyright.alt">
          666 -111 35 63 35 361 35 102 35 hstem
          0 35 122 55 419 35 vstem
          666 222 rmoveto
          205 -128 128 -205 -204 -129 -128 -205 -204 129 -129 204 205 128 129 204 vhcurveto
          -35 hmoveto
          -183 -115 -115 -183 -183 -115 115 183 183 115 115 183 183 115 -115 -183 vhcurveto
          -148 -200 rmoveto
          -4 45 rlineto
          -31 -40 -25 -10 -51 hhcurveto
          -95 -56 97 99 107 63 89 85 23 40 -3 -32 43 hvcurveto
          10 52 rlineto
          17 -43 -34 6 -38 hhcurveto
          -119 -85 -110 -126 -123 83 -112 122 50 26 7 28 45 hvcurveto
          endchar
        </CharString>
        <CharString name="currency">
          762 18 36 8 36 304 36 7 36 hstem
          149 36 7 36 305 36 7 36 vstem
          612 480 rmoveto
          -14 13 -12 -12 -10 -10 -76 -75 rcurveline
          26 -32 -42 16 -45 hhcurveto
          -46 -42 -16 -27 -32 hvcurveto
          -76 76 -10 10 -12 12 -13 -12 rlinecurve
          -13 -14 12 -12 10 -10 76 -76 rcurveline
          -27 -32 -16 -42 -45 vvcurveto
          -45 17 -42 26 -33 vhcurveto
          -76 -76 -10 -10 -12 -12 12 -13 rlinecurve
          14 -13 12 12 10 10 76 76 rcurveline
          -26 33 42 -16 45 hhcurveto
          45 41 16 26 33 hvcurveto
          76 -76 10 -10 12 -12 13 12 rlinecurve
          13 14 -12 12 -10 10 -76 76 rcurveline
          27 33 16 41 46 vvcurveto
          45 -16 42 -27 32 vhcurveto
          76 76 10 10 12 12 -12 13 rlinecurve
          -79 -230 rmoveto
          -84 -68 -68 -84 -84 -69 68 84 84 69 68 84 84 68 -68 -84 vhcurveto
          endchar
        </CharString>
        <CharString name="cwm">
          0 endchar
        </CharString>
        <CharString name="cwmascender">
          0 endchar
        </CharString>
        <CharString name="cwmcapital">
          0 endchar
        </CharString>
        <CharString name="d">
          502 -10 88 callsubr
          236 76 -74 74 hintmask 11110100
          -30 callgsubr
          hintmask 11011000
          -40 callsubr
          endchar
        </CharString>
        <CharString name="dagger">
          444 -195 -21 613 67 241 -20 hstem
          164 67 -43 67 -43 67 cntrmask 00011100
          387 430 46 callsubr
          20 1 28 11 65 rrcurveto
          5 37 6 37 37 vvcurveto
          8 0 33 -33 -34 0 -32 -9 -35 9 -58 4 -24 vhcurveto
          7 -46 3 -32 1 -29 6 callgsubr
          -2 -25 -3 -20 -5 -25 rrcurveto
          -14 -72 0 -8 -53 vvcurveto
          -151 11 -168 9 -95 vhcurveto
          -14 1 1 -6 11 hhcurveto
          12 0 5 13 2 hvcurveto
          6 50 3 53 2 51 rrcurveto
          4 63 5 103 96 vvcurveto
          54 0 7 -14 71 vhcurveto
          -5 23 -3 21 -2 27 46 callgsubr
          endchar
        </CharString>
        <CharString name="daggerdbl">
          444 -184 -21 194 66 389 67 194 -20 hstem
          164 67 -43 67 -43 67 cntrmask 00001110
          387 477 46 callsubr
          30 7 34 3 14 rrcurveto
          6 33 7 40 28 vvcurveto
          7 0 32 -34 -10 -23 -3 -36 -20 4 -29 7 -35 vhcurveto
          7 -41 5 -28 1 -26 6 callgsubr
          -1 -30 -7 -34 -3 -14 rrcurveto
          -6 -33 -7 -40 -28 vvcurveto
          -35 22 -4 11 30 4 25 14 20 -4 29 -7 35 vhcurveto
          -7 41 -5 28 -1 26 46 callgsubr
          -455 vmoveto
          17 -12 16 -21 -20 -17 -3 -8 -31 vhcurveto
          -26 -8 -7 -2 -22 -2 2 28 4 24 7 42 rrcurveto
          11 56 0 23 5 vvcurveto
          35 -22 4 -11 -30 -4 -25 -14 -29 8 -43 6 -34 vhcurveto
          3 -11 5 -31 2 -30 -23 2 -3 1 -40 11 rrcurveto
          9 -32 -17 0 -7 hhcurveto
          -25 -9 -20 -13 -15 10 -18 24 24 24 6 4 11 hvcurveto
          39 10 7 1 17 2 -2 -28 -4 -24 -7 -42 rrcurveto
          -11 -56 0 -23 -5 vvcurveto
          -35 22 -4 11 30 4 25 14 29 -8 43 -6 34 vhcurveto
          -3 11 -5 31 -2 30 23 -2 3 -1 40 -11 rrcurveto
          -9 33 18 0 5 hhcurveto
          24 10 18 15 hvcurveto
          endchar
        </CharString>
        <CharString name="dblbracketleft">
          394 -249 37 926 37 hstem
          116 37 85 37 vstem
          372 -249 rmoveto
          37 -97 926 97 37 -256 -1000 vlineto
          122 37 rmoveto
          -85 926 85 hlineto
          endchar
        </CharString>
        <CharString name="dblbracketright">
          394 -249 37 926 37 hstem
          118 37 85 37 vstem
          277 -249 rmoveto
          1000 -255 -37 96 -926 -96 -37 vlineto
          218 37 rmoveto
          -85 926 85 hlineto
          endchar
        </CharString>
        <CharString name="dblgrave.ts1">
          489 563 -21 188 -20 hstem
          220 542 rmoveto
          64 callsubr
          222 hmoveto
          64 callsubr
          endchar
        </CharString>
        <CharString name="dblverticalbar">
          386 87 callgsubr
          68 40 vstem
          159 -217 rmoveto
          -5 callsubr
          108 hmoveto
          -5 callsubr
          endchar
        </CharString>
        <CharString name="dcaron">
          502 -10 60 344 60 76 -21 113 72 hstemhm
          35 76 236 76 -74 74 hintmask 11011010
          -30 callgsubr
          hintmask 11111100
          -40 callsubr
          185 281 -86 callgsubr
        </CharString>
        <CharString name="dcroat">
          502 -10 60 344 60 84 62 94 -20 hstemhm
          35 76 236 76 -74 74 0 76 hintmask 00110001
          499 538 rmoveto
          62 -76 94 vlineto
          hintmask 11111010
          -74 -94 -148 -62 148 -136 hlineto
          38 -46 -52 14 -43 hhcurveto
          -95 -78 -102 -130 -129 74 -103 95 hvcurveto
          hintmask 00100100
          37 56 12 49 50 hvcurveto
          -51 76 538 vlineto
          hintmask 11101001
          -76 -420 rmoveto
          -43 -24 -35 -25 -44 hhcurveto
          -61 -72 47 124 133 85 40 58 hvcurveto
          hintmask 00000100
          39 32 -20 -33 22 hvcurveto
          endchar
        </CharString>
        <CharString name="ddotbelow">
          502 -7 callgsubr
          104 88 callsubr
          97 86 53 76 -74 74 hintmask 01111101
          -30 callgsubr
          hintmask 01101010
          -40 callsubr
          hintmask 10000100
          -53 -541 -82 callsubr
        </CharString>
        <CharString name="degree">
          367 422 36 200 36 hstem
          48 36 200 36 vstem
          320 558 rmoveto
          76 -61 60 -75 -76 -60 -60 -76 -75 60 -61 76 75 61 61 75 vhcurveto
          -36 hmoveto
          -55 -45 -45 -55 -56 -44 45 55 56 44 44 56 55 45 -44 -56 vhcurveto
          endchar
        </CharString>
        <CharString name="diameter">
          762 -56 36 540 36 hstem
          75 36 540 36 vstem
          707 558 rmoveto
          10 -8 8 -10 -5 -4 -2 -3 -4 vhcurveto
          -92 -92 rlineto
          48 -54 -71 29 -78 hhcurveto
          -169 -137 -137 -169 -78 29 -71 48 -54 hvcurveto
          -93 -93 rlineto
          -3 -4 -2 -4 -5 vvcurveto
          -10 8 -8 10 5 4 2 3 4 vhcurveto
          93 93 rlineto
          -48 54 71 -29 78 hhcurveto
          169 137 137 169 78 -29 71 -48 54 hvcurveto
          92 92 rlineto
          3 4 2 4 5 vvcurveto
          -56 -308 rmoveto
          -149 -121 -121 -149 -68 -62 25 42 -48 vhcurveto
          381 381 rlineto
          42 -48 25 -62 -68 vvcurveto
          -92 203 rmoveto
          -381 -381 rlineto
          -42 48 -25 62 68 vvcurveto
          149 121 121 149 68 62 -25 -42 48 vhcurveto
          endchar
        </CharString>
        <CharString name="died">
          489 -6 -21 394 67 -65 67 194 -20 hstemhm
          206 77 hintmask 00111000
          434 369 rmoveto
          67 -151 194 -77 vlineto
          hintmask 11001000
          -196 -152 -67 152 -394 77 vlineto
          hintmask 00101000
          396 vlineto
          endchar
        </CharString>
        <CharString name="dieresis">
          490 572 78 hstem
          136 77 64 77 vstem
          16 callsubr
          endchar
        </CharString>
        <CharString name="dieresis.cap">
          490 485 78 hstem
          123 77 90 77 vstem
          15 callsubr
          endchar
        </CharString>
        <CharString name="dieresis.dup">
          490 572 78 hstem
          136 77 64 77 vstem
          16 callsubr
          endchar
        </CharString>
        <CharString name="dieresis.ts1">
          489 599 81 hstem
          109 81 108 81 vstem
          190 599 17 callgsubr
          270 hmoveto
          81 -81 -81 vlineto
          endchar
        </CharString>
        <CharString name="discount">
          489 1 118 -79 118 447 118 -89 118 -21 20 hstemhm
          73 118 107 118 hintmask 01101000
          433 731 rmoveto
          10 -6 10 -10 vhcurveto
          0 -4 0 -2 -1 vhcurveto
          -20 -6 -34 -92 -24 -47 -215 -447 rcurveline
          -60 -126 rlineto
          -2 -4 -2 -5 -5 vvcurveto
          hintmask 10000100
          -9 1 9 -8 9 hhcurveto
          2 hlineto
          hintmask 01101010
          16 3 9 28 3 8 186 386 rcurveline
          62 130 27 55 30 56 24 56 rlinecurve
          1 3 0 2 3 vvcurveto
          -17 -712 rmoveto
          73 vlineto
          hintmask 10010110
          17 -7 10 -18 vhcurveto
          -67 hlineto
          -4 -4 0 -1 -4 hvcurveto
          -7 -2 -6 -5 -1 -8 rrcurveto
          -79 vlineto
          -23 15 0 13 vhcurveto
          63 hlineto
          14 11 4 14 2 hvcurveto
          -225 633 rmoveto
          72 vlineto
          17 -6 11 -19 vhcurveto
          -64 hlineto
          hintmask 00001100
          -4 -4 0 -1 -4 hvcurveto
          -13 -2 -4 -11 -12 vvcurveto
          -70 vlineto
          hintmask 00010100
          -18 11 -4 13 vhcurveto
          67 hlineto
          13 12 2 16 -17 callsubr
        </CharString>
        <CharString name="divide">
          762 91 81 60 37 60 81 hstem
          340 81 cntrmask 11100000
          707 250 rmoveto
          -26 callsubr
          -286 79 17 callgsubr
          81 -238 17 callgsubr
          endchar
        </CharString>
        <CharString name="divorced">
          489 -92 -21 141 70 306 70 141 -20 hstemhm
          -197 69 215 74 45 77 44 74 214 70 -69 69 hintmask 1111111101000000
          161 249 rmoveto
          101 -64 124 -116 vhcurveto
          -4 -4 -1 -4 hhcurveto
          -112 -13 -54 -110 -99 vvcurveto
          -99 63 -124 114 116 65 120 101 vhcurveto
          524 2 rmoveto
          100 -63 123 -113 vhcurveto
          -5 -4 -1 -5 hhcurveto
          -112 -14 -56 -107 -100 vvcurveto
          -101 65 -123 115 20 22 6 8 18 vhcurveto
          80 37 38 86 86 vvcurveto
          -402 -364 rmoveto
          728 -77 -728 vlineto
          -119 363 rmoveto
          -63 -24 -83 -77 -6 vhcurveto
          -5 hlineto
          -75 -27 73 63 -7 hvcurveto
          11 vlineto
          58 16 92 86 9 vhcurveto
          87 26 -85 -69 hvcurveto
          529 -1 rmoveto
          hintmask 0010000110000000
          -5 0 -6 -1 -5 vhcurveto
          -63 -5 -30 -71 -72 hhcurveto
          -79 -28 84 67 66 24 88 89 hvcurveto
          hintmask 0000000001000000
          77 25 -97 -58 hvcurveto
          endchar
        </CharString>
        <CharString name="dlinebelow">
          502 -188 63 115 88 callsubr
          236 76 -74 74 hintmask 01111010
          -30 callgsubr
          hintmask 01101100
          -40 callsubr
          hintmask 10000000
          80 -529 -57 callsubr
        </CharString>
        <CharString name="dollar">
          490 -35 -21 47 65 583 65 46 -20 hstem
          54 70 92 58 91 70 vstem
          435 195 rmoveto
          68 -36 106 -125 29 vhcurveto
          243 vlineto
          53 -4 45 -24 34 -30 11 62 rcurveline
          4 -55 47 -88 7 vhcurveto
          47 -58 -48 vlineto
          -97 -16 -65 -82 -91 vvcurveto
          -42 19 -115 143 -32 vhcurveto
          -270 vlineto
          -81 7 -54 43 -25 23 -12 -68 rcurveline
          43 -32 55 -29 74 -7 rrcurveto
          -47 58 49 vlineto
          91 15 70 84 103 vvcurveto
          -219 218 rmoveto
          -66 16 -26 54 43 vvcurveto
          46 30 51 62 16 vhcurveto
          149 -456 rmoveto
          -61 -37 -51 -54 -15 vhcurveto
          253 vlineto
          61 -17 30 -57 -52 vvcurveto
          endchar
        </CharString>
        <CharString name="dollar.oldstyle">
          598 -10 65 -54 -21 91 62 544 62 12 -20 hstemhm
          54 68 -67 68 94 58 47 58 95 68 hintmask 0001000011000000
          543 203 rmoveto
          3 vlineto
          -1 84 -64 69 -75 31 -23 8 rcurveline
          272 vlineto
          32 -5 32 -12 29 -14 14 -7 13 -10 15 -6 rrcurveto
          4 19 7 22 20 vvcurveto
          26 -141 31 -5 vhcurveto
          hintmask 0000100010000000
          17 -58 vlineto
          hintmask 0001000110000000
          -12 -47 vlineto
          hintmask 0000110100000000
          12 -58 -21 vlineto
          -28 -10 rlineto
          -72 -30 -63 -63 -83 vvcurveto
          -3 vlineto
          1 -83 68 -62 73 -27 rrcurveto
          11 -4 10 -3 0 vvcurveto
          -300 vlineto
          hintmask 0110001100000000
          -32 8 -32 9 -30 14 -24 12 -21 15 -23 13 rrcurveto
          -4 -20 -7 -24 -18 vvcurveto
          -14 25 -8 16 -8 vhcurveto
          41 -21 45 -15 46 -7 rrcurveto
          -18 58 12 vlineto
          hintmask 1000000010000000
          -1 6 12 -1 6 hhcurveto
          10 4 1 1 9 hvcurveto
          hintmask 0101010111000000
          -12 58 22 vlineto
          0 19 6 11 6 vhcurveto
          77 35 56 70 84 vvcurveto
          -221 211 rmoveto
          -47 12 rlineto
          251 47 vlineto
          -105 -234 rmoveto
          -48 16 -47 40 57 vvcurveto
          52 51 38 44 17 vhcurveto
          258 -470 rmoveto
          -55 -44 -49 -51 -19 vhcurveto
          246 vlineto
          55 -20 40 -50 -53 vvcurveto
          -153 -138 rmoveto
          hintmask 1000000110000000
          -47 291 hlineto
          47 -12 rlineto
          endchar
        </CharString>
        <CharString name="dong">
          502 -62 62 hstem
          474 546 rmoveto
          59 -72 89 -70 -89 -141 -59 141 -129 vlineto
          36 -44 -50 13 -40 hhcurveto
          -91 -74 -97 -123 -123 71 -98 90 35 53 12 46 48 hvcurveto
          -48 72 511 vlineto
          72 -608 rmoveto
          62 -441 -62 vlineto
          297 209 rmoveto
          -41 -23 -33 -24 -42 hhcurveto
          -58 -69 45 118 126 81 38 55 37 31 -19 -31 21 hvcurveto
          endchar
        </CharString>
        <CharString name="dotaccent">
          272 568 81 callsubr
          568 -82 callsubr
        </CharString>
        <CharString name="dotaccent.alt">
          272 526 81 callsubr
          526 -82 callsubr
        </CharString>
        <CharString name="dotaccent.cap">
          272 485 81 callsubr
          485 -82 callsubr
        </CharString>
        <CharString name="dotlessi">
          -23 callsubr
          hstem
          78 74 vstem
          -43 callsubr
          endchar
        </CharString>
        <CharString name="dotlessj">
          -15 callsubr
        </CharString>
        <CharString name="e">
          -51 callgsubr
          hstem
          33 75 240 59 vstem
          -106 callsubr
          endchar
        </CharString>
        <CharString name="eacute">
          -51 callgsubr
          89 -21 167 -98 callsubr
          7 415 -77 callgsubr
        </CharString>
        <CharString name="ebreve">
          -51 callgsubr
          63 65 113 -98 callsubr
          35 421 -105 callsubr
          endchar
        </CharString>
        <CharString name="ecaron">
          -51 callgsubr
          87 -21 172 -98 callsubr
          25 418 -82 callgsubr
        </CharString>
        <CharString name="ecircumflex">
          -51 callgsubr
          87 -21 172 -98 callsubr
          25 246 -89 callsubr
          endchar
        </CharString>
        <CharString name="ecircumflexacute">
          -51 callgsubr
          87 -21 291 -98 callsubr
          26 246 -78 callgsubr
        </CharString>
        <CharString name="ecircumflexdotbelow">
          435 -7 callgsubr
          104 -42 callsubr
          87 -21 172 -20 82 callgsubr
          hintmask 0111111010000000
          -106 callsubr
          25 246 -89 callsubr
          hintmask 1000000100000000
          -53 -725 -82 callsubr
        </CharString>
        <CharString name="ecircumflexgrave">
          -51 callgsubr
          87 -21 134 -98 callsubr
          26 246 -78 callsubr
        </CharString>
        <CharString name="ecircumflexhookabove">
          -51 callgsubr
          87 -21 365 -98 callgsubr
          hintmask 00011010
          26 246 -103 callgsubr
          93 286 -107 callgsubr
        </CharString>
        <CharString name="ecircumflextilde">
          -51 callgsubr
          87 -21 189 31 callgsubr
          33 75 240 59 hintmask 11100011
          -106 callsubr
          hintmask 00010100
          26 246 -103 callgsubr
          66 307 -90 callgsubr
        </CharString>
        <CharString name="edblgrave">
          -51 callgsubr
          89 -21 167 -98 callsubr
          9 248 -88 callsubr
        </CharString>
        <CharString name="edieresis">
          -51 callgsubr
          113 78 hstemhm
          33 75 1 77 64 77 21 59 hintmask 11101001
          -106 callsubr
          hintmask 00010110
          -162 293 -7 callsubr
        </CharString>
        <CharString name="edotaccent">
          -51 callgsubr
          109 86 82 callgsubr
          hintmask 11101010
          -106 callsubr
          hintmask 00010100
          -87 289 -82 callsubr
        </CharString>
        <CharString name="edotbelow">
          435 -7 callgsubr
          104 -42 callsubr
          82 callgsubr
          hintmask 01111010
          -106 callsubr
          hintmask 10000100
          -87 -479 -82 callsubr
        </CharString>
        <CharString name="egrave">
          -51 callgsubr
          89 -21 167 -98 callsubr
          -61 248 -58 callgsubr
        </CharString>
        <CharString name="ehookabove">
          -51 callgsubr
          65 -21 216 -98 callsubr
          -35 361 -107 callgsubr
        </CharString>
        <CharString name="eight">
          490 -21 11 callgsubr
          hstem
          41 79 249 79 vstem
          448 180 rmoveto
          80 -55 67 -81 27 vhcurveto
          63 19 60 55 74 vvcurveto
          94 -84 80 -106 -110 -81 -83 -91 -75 61 -55 62 -18 vhcurveto
          -57 callgsubr
          -67 -58 48 94 107 72 36 52 56 69 -39 -104 vhcurveto
          endchar
        </CharString>
        <CharString name="eight.oldstyle">
          553 -21 11 callgsubr
          hstemhm
          73 55 callgsubr
          480 -42 callgsubr
        </CharString>
        <CharString name="eight.prop">
          553 -21 11 callgsubr
          hstem
          73 79 249 79 vstem
          480 180 rmoveto
          80 -55 67 -81 27 vhcurveto
          63 19 60 55 74 vvcurveto
          94 -84 80 -106 -110 -81 -83 -91 -75 61 -55 62 -18 vhcurveto
          -57 callgsubr
          -67 -58 48 94 107 72 36 52 56 69 -39 -104 vhcurveto
          endchar
        </CharString>
        <CharString name="eight.taboldstyle">
          490 -21 11 callgsubr
          hstemhm
          41 55 callgsubr
          448 -42 callgsubr
        </CharString>
        <CharString name="ellipsis">
          612 0 81 hstem
          96 81 89 81 89 81 cntrmask 01110000
          177 hmoveto
          81 -81 -81 vlineto
          251 hmoveto
          81 -81 -81 vlineto
          251 hmoveto
          81 -81 -81 vlineto
          endchar
        </CharString>
        <CharString name="emacron">
          -51 callgsubr
          120 63 hstemhm
          33 75 240 59 hintmask 11101100
          -106 callsubr
          hintmask 00010000
          46 300 -57 callsubr
        </CharString>
        <CharString name="emdash">
          979 244 60 hstem
          0 978 vstem
          978 244 rmoveto
          60 -978 -60 vlineto
          endchar
        </CharString>
        <CharString name="emdash.alt">
          653 245 60 hstem
          652 245 rmoveto
          60 -652 -60 vlineto
          endchar
        </CharString>
        <CharString name="endash">
          490 244 60 hstem
          0 489 vstem
          489 244 rmoveto
          60 -489 -60 vlineto
          endchar
        </CharString>
        <CharString name="eng">
          502 -208 62 540 60 hstem
          -32 callgsubr
          vstem
          -69 callsubr
          -70 -12 -76 -60 vhcurveto
          -62 vlineto
          95 53 102 106 hvcurveto
          endchar
        </CharString>
        <CharString name="eogonek">
          435 -212 70 -45 60 117 -42 callsubr
          hstemhm
          33 69 66 63 hintmask 01111110
          0 callgsubr
          hintmask 10000000
          -43 1 31 -42 67 hhcurveto
          hintmask 01000000
          33 25 6 19 40 hvcurveto
          -14 59 rlineto
          hintmask 10111110
          -22 callgsubr
          endchar
        </CharString>
        <CharString name="eogonekacute">
          435 -212 70 -45 60 117 -42 callsubr
          23 callsubr
          33 69 66 63 hintmask 0111100110000000
          0 callgsubr
          hintmask 1000000000000000
          -43 1 31 -42 67 hhcurveto
          hintmask 0100000000000000
          33 25 6 19 40 hvcurveto
          -14 59 rlineto
          hintmask 1011100110000000
          -22 callgsubr
          hintmask 0000011000000000
          7 415 -77 callgsubr
        </CharString>
        <CharString name="equal">
          762 135 37 155 37 hstem
          54 653 vstem
          707 345 rmoveto
          -26 callsubr
          -192 vmoveto
          -26 callsubr
          endchar
        </CharString>
        <CharString name="ereversed">
          435 -10 60 175 54 120 84 callgsubr
          225 rmoveto
          130 -90 104 -108 -29 -70 -8 -69 -41 vhcurveto
          -32 -53 -4 -61 -43 vvcurveto
          305 hlineto
          -106 -2 -66 -69 -77 hhcurveto
          -30 -59 7 50 -59 hvcurveto
          -4 -3 -23 0 vhcurveto
          0 -3 -33 -4 vvcurveto
          -40 55 55 -13 46 hhcurveto
          116 96 103 132 hvcurveto
          -75 54 rmoveto
          -240 hlineto
          106 17 69 14 31 hhcurveto
          59 47 -53 -67 17 hvcurveto
          endchar
        </CharString>
        <CharString name="estimated">
          655 -9 60 311 55 233 60 hstem
          27 83 vstem
          627 362 rmoveto
          97 -19 107 -72 71 vhcurveto
          49 -49 -73 24 -70 hhcurveto
          -200 -117 -189 -176 hvcurveto
          -8 vlineto
          4 -169 119 -153 175 -23 rrcurveto
          -1 9 8 0 9 hhcurveto
          86 82 15 29 82 hvcurveto
          8 3 12 2 10 vvcurveto
          19 -5 20 -1 19 vhcurveto
          -22 -8 -22 -10 -22 -8 rrcurveto
          -20 -62 -65 -11 -65 hhcurveto
          -13 hlineto
          -127 9 -97 121 -10 146 rrcurveto
          35 vlineto
          439 55 rmoveto
          -434 hlineto
          111 25 69 122 134 hhcurveto
          54 54 -22 -42 36 hvcurveto
          40 -46 16 -65 6 -58 rrcurveto
          endchar
        </CharString>
        <CharString name="eth">
          -32 callsubr
          hstem
          33 70 282 77 vstem
          455 219 rmoveto
          3 160 -64 151 -113 102 63 49 rcurveline
          -36 46 -74 -58 -34 24 -39 21 -41 15 rlinecurve
          -39 -49 35 -14 33 -18 31 -21 rlinecurve
          -61 -48 36 -46 72 57 48 -44 41 -54 29 -60 rlinecurve
          9 -16 -38 18 -47 hhcurveto
          -114 -97 -105 -134 -129 97 -101 114 105 103 89 140 3 hvcurveto
          -70 6 rmoveto
          -96 -56 -77 -85 -73 -68 61 117 118 74 51 66 86 56 -77 -97 vhcurveto
          endchar
        </CharString>
        <CharString name="etilde">
          -51 callgsubr
          93 60 -2 60 -101 callsubr
          hintmask 00001000
          32 391 -97 callsubr
        </CharString>
        <CharString name="eturned">
          -40 callgsubr
        </CharString>
        <CharString name="exclam">
          311 0 81 113 -21 521 -20 hstem
          115 81 vstem
          196 694 rmoveto
          -81 hlineto
          8 -521 rlineto
          65 hlineto
          8 -173 17 callgsubr
          endchar
        </CharString>
        <CharString name="exclamdown">
          311 -173 -21 521 -20 112 81 hstem
          115 81 vstem
          196 419 17 callgsubr
          81 -613 rmoveto
          -8 521 rlineto
          -65 hlineto
          -8 -521 rlineto
          endchar
        </CharString>
        <CharString name="f">
          -20 callgsubr
        </CharString>
        <CharString name="f_f">
          571 21 callgsubr
          197 74 vstem
          340 628 rmoveto
          66 vlineto
          3 -12 -31 7 -35 hhcurveto
          -91 -72 -69 -101 hvcurveto
          -90 -73 -58 73 -386 35 callgsubr
          271 hmoveto
          66 vlineto
          3 -12 -31 7 -35 hhcurveto
          -91 -72 -69 -101 hvcurveto
          -534 35 callgsubr
          endchar
        </CharString>
        <CharString name="f_f_i">
          795 21 -21 386 58 170 81 -51 74 callsubr
          hintmask 11100001
          719 26 callsubr
          122 vlineto
          hintmask 00010000
          60 32 18 27 30 24 -15 -2 4 vhcurveto
          hintmask 00100000
          68 vlineto
          hintmask 11011010
          7 -21 -6 2 -31 hhcurveto
          -74 -57 -71 -97 hvcurveto
          -536 74 386 vlineto
          -132 242 20 callsubr
          hintmask 01010100
          64 callgsubr
          endchar
        </CharString>
        <CharString name="f_f_l">
          795 21 -21 386 58 200 74 callsubr
          hintmask 11110000
          313 628 20 callsubr
          hintmask 11101110
          64 callgsubr
          403 -628 rmoveto
          694 72 callsubr
          -82 -21 callsubr
          -536 74 386 vlineto
          endchar
        </CharString>
        <CharString name="f_i">
          523 21 -21 386 58 122 60 -12 81 -51 60 hstemhm
          99 74 197 74 hintmask 11010010
          447 26 callsubr
          vlineto
          hintmask 11101100
          122 vlineto
          60 32 18 27 22 22 -8 -10 14 vhcurveto
          68 vlineto
          8 -20 -7 2 -31 hhcurveto
          -74 -57 -71 -97 hvcurveto
          -92 7 callgsubr
          vlineto
          endchar
        </CharString>
        <CharString name="f_k">
          780 33 callgsubr
          hstemhm
          26 73 0 72 199 73 0 73 48 72 hintmask 01101000
          288 -21 callsubr
          -92 vlineto
          hintmask 11010101
          7 callgsubr
          hlineto
          577 -386 rmoveto
          -26 callgsubr
          hintmask 10000010
          58 callgsubr
          endchar
        </CharString>
        <CharString name="f_l">
          523 21 callgsubr
          197 74 vstem
          288 -21 callsubr
          -92 7 callgsubr
          vlineto
          271 -386 rmoveto
          694 72 callsubr
          endchar
        </CharString>
        <CharString name="five">
          490 -21 52 callsubr
          203 -71 callsubr
        </CharString>
        <CharString name="five.oldstyle">
          548 -215 50 callsubr
          9 -71 callsubr
        </CharString>
        <CharString name="five.prop">
          548 -21 50 callsubr
          203 -71 callsubr
        </CharString>
        <CharString name="five.taboldstyle">
          490 -215 52 callsubr
          9 -71 callsubr
        </CharString>
        <CharString name="florin">
          -20 callgsubr
        </CharString>
        <CharString name="four">
          490 21 -21 172 60 423 -20 hstem
          291 74 vstem
          462 -5 callgsubr
        </CharString>
        <CharString name="four.oldstyle">
          508 -173 -21 194 60 422 -20 hstemhm
          296 79 -74 74 hintmask 01101000
          472 -6 callsubr
        </CharString>
        <CharString name="four.prop">
          508 21 -21 172 60 423 -20 hstem
          301 74 vstem
          472 -5 callgsubr
        </CharString>
        <CharString name="four.taboldstyle">
          490 -173 -21 194 60 422 -20 hstemhm
          286 79 -74 74 hintmask 01101000
          462 -6 callsubr
        </CharString>
        <CharString name="fraction">
          542 488 28 callsubr
        </CharString>
        <CharString name="fraction.alt">
          0 217 28 callsubr
        </CharString>
        <CharString name="g">
          -38 callsubr
          -16 callsubr
          hintmask 0000101000000000
          -4 callsubr
          hintmask 1111010111000000
          -51 -33 -12 -43 -28 vvcurveto
          -73 95 -61 122 122 96 59 76 140 -162 0 -41 vhcurveto
          -85 hlineto
          -14 -43 0 53 22 4 6 6 9 hvcurveto
          -12 17 33 -17 40 hhcurveto
          86 71 71 91 36 -13 37 -20 28 hvcurveto
          0 2 -2 1 -2 vhcurveto
          2 21 22 3 37 hhcurveto
          3 23 0 -2 25 hvcurveto
          -170 -100 rmoveto
          -89 -56 -18 -31 vhcurveto
          hintmask 1000101010000000
          -44 -44 30 76 89 56 18 31 44 44 -30 -76 hvcurveto
          87 -364 rmoveto
          -46 -69 -33 -78 vhcurveto
          hintmask 0100010001000000
          -78 -70 31 49 3 0 65 76 hvcurveto
          87 hlineto
          22 110 0 -69 hvcurveto
          endchar
        </CharString>
        <CharString name="gacute">
          -38 callsubr
          94 -21 167 -20 -16 callsubr
          hintmask 0000100010000000
          475 393 -103 callsubr
          hintmask 0000011000000000
          -44 765 -77 callgsubr
        </CharString>
        <CharString name="gbreve">
          -38 callsubr
          68 65 63 callsubr
          hintmask 0000100010000000
          475 393 -103 callsubr
          hintmask 0000011000000000
          -16 771 -105 callsubr
          endchar
        </CharString>
        <CharString name="gcaron">
          -38 callsubr
          92 -21 172 -20 -16 callsubr
          hintmask 0000100010000000
          475 393 -103 callsubr
          hintmask 0000011000000000
          -26 768 -82 callgsubr
        </CharString>
        <CharString name="gcedilla">
          -38 callsubr
          86 72 63 callsubr
          hintmask 0000111010000000
          248 540 rmoveto
          72 -23 vlineto
          23 113 rlineto
          -36 hlineto
          -37 -113 rlineto
          -72 vlineto
          300 -147 -103 callsubr
          endchar
        </CharString>
        <CharString name="gcircumflex">
          -38 callsubr
          92 -21 172 -20 -16 callsubr
          hintmask 0000100010000000
          475 393 -103 callsubr
          hintmask 0000011000000000
          -26 596 -89 callsubr
          endchar
        </CharString>
        <CharString name="gcommaaccent">
          -38 callsubr
          86 72 63 callsubr
          hintmask 0000111010000000
          248 540 rmoveto
          72 -23 vlineto
          23 113 rlineto
          -36 hlineto
          -37 -113 rlineto
          -72 vlineto
          300 -147 -103 callsubr
          endchar
        </CharString>
        <CharString name="gdotaccent">
          -38 callsubr
          114 86 hstemhm
          27 70 -36 69 38 86 -80 70 61 69 18 70 hintmask 0000100100000000
          -4 callsubr
          hintmask 1111001001110000
          -51 -33 -12 -43 -28 vvcurveto
          -73 95 -61 122 122 96 59 76 140 -162 0 -41 vhcurveto
          -85 hlineto
          -14 -43 0 53 22 4 6 6 9 hvcurveto
          -12 17 33 -17 40 hhcurveto
          86 71 71 91 36 -13 37 -20 28 hvcurveto
          0 2 -2 1 -2 vhcurveto
          2 21 22 3 37 hhcurveto
          3 23 0 -2 25 hvcurveto
          -170 -100 rmoveto
          -89 -56 -18 -31 vhcurveto
          hintmask 1000100100100000
          -44 -44 30 76 89 56 18 31 44 44 -30 -76 hvcurveto
          87 -364 rmoveto
          -46 -69 -33 -78 vhcurveto
          hintmask 0100001000010000
          -78 -70 31 49 3 0 65 76 hvcurveto
          87 hlineto
          22 110 0 -69 hvcurveto
          hintmask 0000010010000000
          -138 639 -82 callsubr
        </CharString>
        <CharString name="germandbls">
          -43 callgsubr
        </CharString>
        <CharString name="germandbls.dup">
          -43 callgsubr
        </CharString>
        <CharString name="gnaborretni">
          462 327 24 callgsubr
          -51 -36 -49 -13 -37 -4 rlinecurve
          -4 352 rlineto
          3 21 2 21 22 50 callgsubr
          -75 36 -66 94 -12 vhcurveto
          -23 65 22 vlineto
          69 6 56 26 33 20 rrcurveto
          -219 219 rmoveto
          -3 -209 rlineto
          -42 10 -13 32 48 vvcurveto
          46 14 16 13 16 vhcurveto
          11 13 10 14 10 14 rrcurveto
          endchar
        </CharString>
        <CharString name="grave">
          490 548 -11 callgsubr
          hstem
          314 527 -58 callgsubr
        </CharString>
        <CharString name="grave.cap">
          490 516 52 callgsubr
          hstem
          341 495 -67 callgsubr
        </CharString>
        <CharString name="grave.ts1">
          489 562 -21 189 -20 hstem
          288 541 rmoveto
          -131 188 -24 1 rlineto
          -52 hlineto
          148 -189 rlineto
          endchar
        </CharString>
        <CharString name="greater">
          65 callgsubr
          250 rmoveto
          6 -2 7 -18 8 vhcurveto
          -541 249 rlineto
          -13 6 -4 1 0 vvcurveto
          -12 -7 -10 -8 -12 8 -4 13 -6 hvcurveto
          514 -237 -515 -238 rlineto
          -20 -9 0 -7 -6 vvcurveto
          -8 7 -10 12 vhcurveto
          0 3 1 14 6 vhcurveto
          541 249 rlineto
          19 9 1 6 7 vvcurveto
          endchar
        </CharString>
        <CharString name="guarani">
          653 -21 62 201 60 351 62 hstem
          66 86 117 62 180 76 vstem
          587 28 rmoveto
          274 -207 -60 131 -180 vlineto
          -13 -39 -47 -8 -41 hhcurveto
          -18 -18 3 5 -17 hvcurveto
          597 vlineto
          4 17 18 3 18 hhcurveto
          76 52 -24 -44 52 hvcurveto
          15 81 rlineto
          38 -72 -60 11 -62 hhcurveto
          -18 -18 -2 -3 -18 hvcurveto
          77 -62 -96 vlineto
          -122 -54 -81 -136 -154 vvcurveto
          -157 84 -134 119 -53 vhcurveto
          -96 62 77 vlineto
          -3 17 17 -2 18 hhcurveto
          55 75 12 37 74 hvcurveto
          -318 52 rmoveto
          -71 52 -46 101 114 vvcurveto
          114 46 101 71 53 vhcurveto
          endchar
        </CharString>
        <CharString name="guillemotleft">
          490 21 -21 449 -20 hstem
          272 9 callgsubr
          223 9 callgsubr
          endchar
        </CharString>
        <CharString name="guillemotright">
          490 21 -21 449 -20 hstem
          381 225 rmoveto
          -103 224 rlineto
          -60 hlineto
          87 -224 -87 -225 rlineto
          60 hlineto
          -60 39 callsubr
        </CharString>
        <CharString name="guilsinglleft">
          327 21 -21 449 -20 hstem
          272 9 callgsubr
          endchar
        </CharString>
        <CharString name="guilsinglright">
          327 21 -21 449 -20 hstem
          218 39 callsubr
        </CharString>
        <CharString name="h">
          5 callgsubr
          240 -20 hstem
          -32 callgsubr
          vstem
          -70 callgsubr
          endchar
        </CharString>
        <CharString name="h_uni0303">
          5 callgsubr
          240 -20 61 60 -2 60 49 callgsubr
          hintmask 11100110
          -70 callgsubr
          hintmask 00001000
          65 853 -97 callsubr
        </CharString>
        <CharString name="hbar">
          5 callgsubr
          84 62 94 -20 hstemhm
          1 76 0 -15 callgsubr
          hintmask 11111010
          -37 callgsubr
          153 100 62 -100 94 -74 -94 -76 -62 76 -538 vlineto
          hintmask 11000110
          76 249 hlineto
          62 23 83 76 93 3 -65 -35 49 callsubr
          endchar
        </CharString>
        <CharString name="hbrevebelow">
          502 76 callsubr
          109 77 callsubr
          240 -20 49 callgsubr
          hintmask 00111110
          -70 callgsubr
          hintmask 11000000
          68 -68 -105 callsubr
          endchar
        </CharString>
        <CharString name="hcircumflex">
          5 callgsubr
          240 -20 82 -21 134 -20 49 callgsubr
          hintmask 11100110
          -70 callgsubr
          hintmask 00011010
          59 735 -103 callgsubr
          endchar
        </CharString>
        <CharString name="hdieresis">
          5 callgsubr
          240 -20 61 78 hstemhm
          77 76 -24 77 90 77 -25 76 hintmask 11101001
          -70 callgsubr
          hintmask 00010110
          -142 735 -70 callsubr
          endchar
        </CharString>
        <CharString name="hdotbelow">
          502 4 callgsubr
          394 60 240 69 callsubr
          hintmask 01111010
          -70 callgsubr
          hintmask 10000100
          -54 -200 -82 callsubr
        </CharString>
        <CharString name="hungarumlaut">
          490 548 -11 callgsubr
          hstem
          244 694 -64 callgsubr
        </CharString>
        <CharString name="hungarumlaut.cap">
          490 516 -11 callgsubr
          hstem
          244 662 -64 callgsubr
        </CharString>
        <CharString name="hungarumlaut.ts1">
          489 561 -21 190 -20 hstem
          244 730 79 callsubr
          243 190 79 callsubr
          endchar
        </CharString>
        <CharString name="hyphen">
          -2 callsubr
        </CharString>
        <CharString name="hyphen.alt">
          163 193 58 hstem
          269 193 rmoveto
          58 -258 -58 vlineto
          endchar
        </CharString>
        <CharString name="hyphen.dup">
          -2 callsubr
        </CharString>
        <CharString name="hyphen.prop">
          326 304 58 hstem
          33 260 vstem
          293 304 19 callsubr
        </CharString>
        <CharString name="hyphendbl">
          326 87 58 134 58 hstem
          271 279 rmoveto
          58 -260 -58 vlineto
          260 -192 19 callsubr
        </CharString>
        <CharString name="hyphendbl.alt">
          163 87 58 134 58 hstem
          269 279 rmoveto
          58 -258 -58 vlineto
          258 -192 rmoveto
          58 -258 -58 vlineto
          endchar
        </CharString>
        <CharString name="i">
          -23 callsubr
          144 86 hstemhm
          72 86 -80 -28 callsubr
          hintmask 00110000
          80 568 -82 callsubr
        </CharString>
        <CharString name="i_j">
          465 -204 63 709 86 72 callgsubr
          148 86 -74 74 hintmask 01100100
          158 568 -74 callsubr
          314 hmoveto
          86 vlineto
          hintmask 01011000
          -86 -86 hlineto
          -148 -568 rmoveto
          444 -74 -444 vlineto
          308 -59 rmoveto
          503 vlineto
          hintmask 10000100
          -74 -513 hlineto
          -68 -61 -4 -15 -39 -27 20 11 -10 vhcurveto
          -15 -60 rlineto
          -19 32 40 -15 46 hhcurveto
          63 60 52 93 hvcurveto
          endchar
        </CharString>
        <CharString name="iacute">
          -23 callsubr
          124 -21 167 -23 callgsubr
          hintmask 00111000
          206 694 -77 callgsubr
        </CharString>
        <CharString name="ibreve">
          -23 callsubr
          98 65 113 8 callgsubr
          202 700 -105 callsubr
          endchar
        </CharString>
        <CharString name="icaron">
          -23 callsubr
          122 -21 172 8 callgsubr
          192 697 -82 callgsubr
        </CharString>
        <CharString name="icircumflex">
          -23 callsubr
          122 -21 172 8 callgsubr
          192 525 -89 callsubr
          endchar
        </CharString>
        <CharString name="idblgrave">
          -23 callsubr
          124 -21 167 8 callgsubr
          176 527 -88 callsubr
        </CharString>
        <CharString name="idieresis">
          -23 callsubr
          148 78 hstemhm
          6 77 -5 74 -5 77 hintmask 11001000
          -43 callsubr
          hintmask 00110100
          5 572 -7 callsubr
        </CharString>
        <CharString name="idieresisacute">
          -23 callsubr
          148 78 77 26 callgsubr
          6 77 -5 74 -5 77 hintmask 11000010
          -43 callsubr
          hintmask 00111101
          5 572 -67 callsubr
          158 256 -95 callsubr
        </CharString>
        <CharString name="idotbelow">
          230 4 callgsubr
          444 -20 144 86 72 callgsubr
          hintmask 01100100
          -43 callsubr
          80 568 rmoveto
          hintmask 00011000
          86 -86 -86 vlineto
          hintmask 10001000
          86 -768 -82 callsubr
        </CharString>
        <CharString name="igrave">
          -23 callsubr
          124 -21 167 -23 callgsubr
          hintmask 00111000
          74 527 -58 callgsubr
        </CharString>
        <CharString name="ihookabove">
          -23 callsubr
          100 -21 216 -23 callgsubr
          hintmask 00111000
          132 640 -107 callgsubr
        </CharString>
        <CharString name="imacron">
          -23 callsubr
          155 63 hstemhm
          78 74 hintmask 11010000
          -43 callsubr
          hintmask 00100000
          213 579 -57 callsubr
        </CharString>
        <CharString name="imacron.alt">
          -23 callsubr
          155 63 hstemhm
          78 74 hintmask 11010000
          -43 callsubr
          hintmask 00100000
          131 579 2 callsubr
        </CharString>
        <CharString name="infinity">
          979 -24 54 -51 60 366 60 -51 54 hstemhm
          54 60 751 60 hintmask 10101000
          449 213 rmoveto
          -94 -50 -67 -89 -102 hhcurveto
          -83 -33 97 95 91 37 92 80 77 50 -69 -63 46 hvcurveto
          461 -51 rmoveto
          hintmask 01010100
          -91 -37 -92 -80 -77 -50 69 63 -46 vhcurveto
          -45 60 rlineto
          94 50 67 89 102 hhcurveto
          83 33 -97 -95 hvcurveto
          60 hmoveto
          130 -86 116 -123 -104 -71 -84 -95 -53 vhcurveto
          -22 30 rlineto
          hintmask 10101000
          72 -53 -63 74 -88 hhcurveto
          -122 -86 -115 -128 -130 86 -116 123 104 71 84 95 53 hvcurveto
          22 -30 rlineto
          hintmask 01000100
          -72 53 63 -74 88 hhcurveto
          122 86 115 128 hvcurveto
          endchar
        </CharString>
        <CharString name="interrobang">
          462 272 hmoveto
          81 -81 -81 vlineto
          203 549 rmoveto
          75 -36 66 -95 12 vhcurveto
          1 23 rlineto
          -65 -22 hlineto
          -69 -6 -56 -26 -33 -20 22 -62 rcurveline
          51 36 49 13 37 4 4 -352 rcurveline
          -3 -21 -2 -21 -22 vvcurveto
          -53 65 50 vlineto
          79 31 76 56 57 vhcurveto
          21 20 22 33 61 vvcurveto
          -76 2 rmoveto
          -46 -14 -16 -13 -16 vhcurveto
          -11 -13 -11 -14 -9 -14 3 209 rcurveline
          41 -10 14 -32 -48 vvcurveto
          endchar
        </CharString>
        <CharString name="iogonek">
          230 -212 70 163 54 callgsubr
          169 86 hstem
          78 74 vstem
          158 593 -74 callsubr
          127 -780 -8 callgsubr
          endchar
        </CharString>
        <CharString name="iogonekacute">
          230 -212 70 163 54 callgsubr
          124 -11 callgsubr
          hstem
          78 74 vstem
          199 -187 -8 callgsubr
          85 881 -77 callgsubr
        </CharString>
        <CharString name="itilde">
          -23 callsubr
          128 60 -2 60 -29 callgsubr
          hintmask 00010000
          199 670 -102 callgsubr
        </CharString>
        <CharString name="j">
          18 callsubr
          144 86 hstemhm
          31 74 -12 86 -74 74 hintmask 01000100
          179 -59 rmoveto
          503 -74 -513 vlineto
          hintmask 10010000
          -31 callsubr
          hintmask 00100100
          627 vmoveto
          86 vlineto
          hintmask 00101000
          -86 -86 hlineto
          endchar
        </CharString>
        <CharString name="jacute">
          18 callsubr
          124 -21 167 -36 callgsubr
          hintmask 00110100
          132 753 -77 callgsubr
        </CharString>
        <CharString name="jcaron">
          18 callsubr
          122 -21 172 -36 callgsubr
          hintmask 00110000
          112 756 -82 callgsubr
        </CharString>
        <CharString name="jcircumflex">
          18 callsubr
          122 -21 172 -36 callgsubr
          hintmask 00110000
          112 584 -89 callsubr
          endchar
        </CharString>
        <CharString name="k">
          475 -33 callsubr
          hstemhm
          78 73 0 73 hintmask 11100000
          458 hmoveto
          -26 callgsubr
          hintmask 10010000
          58 callgsubr
          endchar
        </CharString>
        <CharString name="kcedilla">
          475 -1 callgsubr
          78 73 0 73 hintmask 00111000
          458 hmoveto
          -26 callgsubr
          hintmask 11100100
          58 callgsubr
          -102 -148 -86 callgsubr
        </CharString>
        <CharString name="kcommaaccent">
          475 -1 callgsubr
          78 73 0 73 hintmask 00111000
          458 hmoveto
          -26 callgsubr
          hintmask 00100100
          58 callgsubr
          hintmask 11000100
          -102 -148 -86 callgsubr
        </CharString>
        <CharString name="l">
          230 23 callgsubr
          78 74 vstem
          -19 callsubr
          endchar
        </CharString>
        <CharString name="l_uni0303">
          230 -33 callsubr
          61 31 callgsubr
          78 74 hintmask 11001000
          -19 callsubr
          hintmask 00010000
          199 853 -102 callgsubr
        </CharString>
        <CharString name="lacute">
          230 -33 callsubr
          92 26 callgsubr
          78 74 hintmask 11001000
          -19 callsubr
          40 callsubr
        </CharString>
        <CharString name="lcaron">
          230 21 -21 530 -21 113 72 hstem
          78 74 vstem
          -19 callsubr
          183 622 -86 callgsubr
        </CharString>
        <CharString name="lcedilla">
          230 4 callsubr
          hstem
          78 74 vstem
          -19 callsubr
          73 -148 -86 callgsubr
        </CharString>
        <CharString name="lcommaaccent">
          230 -1 callgsubr
          78 74 hintmask 00111000
          -19 callsubr
          hintmask 11001000
          73 -148 -86 callgsubr
        </CharString>
        <CharString name="ldot">
          280 21 -21 325 86 283 -20 hstem
          78 74 60 86 vstem
          -19 callsubr
          220 325 -82 callsubr
        </CharString>
        <CharString name="ldotbelow">
          230 4 callgsubr
          694 -20 72 callgsubr
          hintmask 01101000
          -19 callsubr
          hintmask 10010000
          80 -200 -82 callsubr
        </CharString>
        <CharString name="ldotbelowmacron">
          230 4 callgsubr
          694 -20 81 63 72 callgsubr
          hintmask 01100100
          -19 callsubr
          80 -200 rmoveto
          hintmask 10001000
          86 -86 -86 vlineto
          hintmask 00010000
          231 955 -57 callsubr
        </CharString>
        <CharString name="leaf">
          979 390 22 -22 23 -22 22 hstem
          526 22 -22 23 -22 22 cntrmask 11111100
          989 710 rmoveto
          12 vlineto
          26 -40 2 -25 5 vhcurveto
          13 -57 -58 5 -58 hhcurveto
          -7 -8 0 -1 -7 hvcurveto
          -62 -7 -57 -6 -61 -17 -289 -83 -223 -250 -41 -307 rrcurveto
          -5 -30 -3 -32 -31 vvcurveto
          -26 46 -3 25 -5 vhcurveto
          -11 52 54 -5 53 hhcurveto
          377 339 284 393 49 hvcurveto
          3 24 3 25 25 vvcurveto
          -462 2 rmoveto
          -1 -303 -75 -58 -195 -145 rlineto
          335 vlineto
          15 9 6 11 9 vhcurveto
          42 33 62 49 74 33 73 26 rlinecurve
          189 -540 rmoveto
          -44 -36 -44 -34 -50 -28 rrcurveto
          -63 -113 -128 -30 -130 hhcurveto
          -13 hlineto
          -38 1 -39 5 -38 7 -18 3 -18 6 -18 2 224 166 rcurveline
          636 220 rmoveto
          -39 -65 -35 -55 -55 -60 rrcurveto
          -9 -9 -3 -8 -18 hhcurveto
          -448 hlineto
          264 196 rlineto
          411 336 rmoveto
          -299 -223 -105 -79 rlineto
          271 vlineto
          3 -1 4 4 vvcurveto
          16 14 2 13 2 vhcurveto
          16 61 64 8 63 hhcurveto
          52 51 -5 -11 51 hvcurveto
          12 -3 12 -4 12 -1 rrcurveto
          -719 -525 rmoveto
          -2 -11 -171 -129 -50 -38 3 18 0 19 1 18 rlinecurve
          21 172 72 153 126 130 rrcurveto
          733 175 rmoveto
          -2 -10 1 -11 -1 -10 rrcurveto
          -73 -4 -42 -192 -35 -4 -5 1 -3 hhcurveto
          -300 hlineto
          endchar
        </CharString>
        <CharString name="less">
          65 callgsubr
          -9 rmoveto
          6 -2 7 -18 8 vhcurveto
          -515 237 515 238 rlineto
          18 8 2 7 6 vvcurveto
          11 -8 8 -11 vhcurveto
          0 -3 -1 -14 -6 vhcurveto
          -541 -249 rlineto
          -18 -8 -2 -7 -6 vvcurveto
          -7 1 -6 19 -9 vhcurveto
          541 -249 rlineto
          13 -6 4 -1 0 vvcurveto
          11 8 8 11 hvcurveto
          endchar
        </CharString>
        <CharString name="lira">
          647 -21 62 -48 62 198 62 64 62 hstemhm
          hintmask 01110000
          14 callgsubr
          rrcurveto
          6 129 62 -129 vlineto
          -6 31 -2 9 -3 8 -3 8 rlinecurve
          -3 8 rlineto
          146 62 -169 hlineto
          -3 12 rlineto
          45 callsubr
          -126 -88 -124 -129 26 vhcurveto
          -76 -62 96 hlineto
          12 -33 3 -6 1 -6 2 -7 rlinecurve
          3 -12 rlineto
          -117 -62 118 hlineto
          hintmask 10000000
          -11 -80 -49 -69 -50 -63 20 callgsubr
        </CharString>
        <CharString name="logicalnot">
          762 328 36 hstem
          671 36 vstem
          707 153 rmoveto
          193 vlineto
          10 -8 8 -10 vhcurveto
          -617 hlineto
          -10 -8 -8 -10 -10 8 -8 10 hvcurveto
          599 -175 hlineto
          -10 8 -8 10 10 8 8 10 vhcurveto
          endchar
        </CharString>
        <CharString name="longs">
          278 644 60 hstem
          78 74 vstem
          318 628 rmoveto
          66 vlineto
          0 -40 10 -37 -95 -68 -73 -97 vhcurveto
          -534 74 564 vlineto
          68 55 12 33 35 31 -11 -5 12 vhcurveto
          endchar
        </CharString>
        <CharString name="lslash">
          314 23 callgsubr
          125 74 vstem
          308 448 rmoveto
          -40 44 -69 -61 rlineto
          263 -74 -324 vlineto
          -98 -88 38 -45 60 54 rlineto
          -291 74 354 vlineto
          endchar
        </CharString>
        <CharString name="m">
          774 38 callsubr
          hstem
          77 76 196 76 196 76 cntrmask 00111000
          -21 callgsubr
          endchar
        </CharString>
        <CharString name="macron">
          490 579 63 hstem
          421 579 -57 callsubr
        </CharString>
        <CharString name="macron.alt">
          490 579 63 hstem
          339 579 2 callsubr
        </CharString>
        <CharString name="macron.cap">
          490 505 63 hstem
          421 505 -57 callsubr
        </CharString>
        <CharString name="macron.cap.alt">
          490 505 63 hstem
          339 505 2 callsubr
        </CharString>
        <CharString name="macron.dup">
          490 579 63 hstem
          421 579 -57 callsubr
        </CharString>
        <CharString name="macron.ts1">
          761 692 37 -36 37 hstemhm
          hintmask 01000000
          678 712 rmoveto
          9 -6 8 -10 1 vhcurveto
          -559 hlineto
          hintmask 10000000
          -3 -3 0 -1 -2 hvcurveto
          -9 -2 -5 -8 -8 vvcurveto
          hintmask 01000000
          -10 8 -8 15 vhcurveto
          530 hlineto
          hintmask 10000000
          5 7 -1 6 hhcurveto
          13 13 6 14 hvcurveto
          endchar
        </CharString>
        <CharString name="married">
          489 29 69 84 69 -2 69 86 69 1 -20 hstemhm
          128 69 -40 174 -40 69 cntrmask 00000111
          hintmask 00010111
          577 252 rmoveto
          115 -90 106 -119 -35 -38 -10 -18 -30 vhcurveto
          -5 -6 -10 -7 -5 hhcurveto
          -5 -6 6 2 -4 hvcurveto
          hintmask 00001111
          20 -30 -41 13 -37 hhcurveto
          hintmask 10110111
          -5 -5 -1 -5 hhcurveto
          -119 -14 -76 -100 -109 vvcurveto
          -114 89 -107 120 35 38 10 18 30 vhcurveto
          5 6 10 7 5 hhcurveto
          9 22 -19 -6 17 hvcurveto
          -10 25 26 -5 27 hhcurveto
          120 87 109 114 hvcurveto
          -380 -131 rmoveto
          -22 -12 -22 -9 -25 -2 rrcurveto
          -8 hlineto
          -92 -48 75 77 76 45 78 95 hvcurveto
          7 hlineto
          26 -2 22 -9 22 -12 rrcurveto
          -27 -37 -13 -46 -46 vvcurveto
          -44 11 -55 29 -32 vhcurveto
          311 130 rmoveto
          -76 -45 -78 -95 vhcurveto
          -7 hlineto
          -26 2 -22 9 -22 12 rrcurveto
          27 37 13 46 46 vvcurveto
          44 -11 55 -29 31 vhcurveto
          1 vlineto
          22 12 22 9 25 2 rrcurveto
          8 hlineto
          hintmask 01000111
          92 48 -75 -77 hvcurveto
          -252 3 rmoveto
          -25 -6 -23 -5 -24 vhcurveto
          -2 hlineto
          -4 17 -5 16 -2 18 rrcurveto
          14 vlineto
          hintmask 00100111
          25 6 22 5 24 vhcurveto
          2 hlineto
          4 -17 5 -16 2 -18 rrcurveto
          endchar
        </CharString>
        <CharString name="mdotbelow">
          774 4 callgsubr
          394 60 hstemhm
          77 76 191 86 -81 76 196 76 hintmask 01110110
          -21 callgsubr
          hintmask 10001000
          -191 -200 -82 callsubr
        </CharString>
        <CharString name="minus">
          762 232 37 hstem
          707 250 rmoveto
          -26 callsubr
          endchar
        </CharString>
        <CharString name="multiply">
          762 -39 callsubr
          endchar
        </CharString>
        <CharString name="n">
          5 callgsubr
          hstem
          -32 callgsubr
          vstem
          -69 callsubr
          endchar
        </CharString>
        <CharString name="nacute">
          5 callgsubr
          94 -21 167 -8 callsubr
          40 694 -77 callgsubr
        </CharString>
        <CharString name="naira">
          686 80 callsubr
          91 77 349 77 vstem
          635 253 rmoveto
          62 -41 64 41 62 -41 253 -77 -253 -179 vlineto
          -124 253 rlineto
          -123 -253 -41 -62 41 -64 -41 -62 41 -253 77 253 179 hlineto
          124 -253 rlineto
          123 253 hlineto
          -339 188 rmoveto
          -87 179 1 hlineto
          81 -168 rlineto
          67 -137 rmoveto
          -149 64 118 hlineto
          231 -64 rmoveto
          -118 hlineto
          -31 64 rlineto
          149 hlineto
          -305 vmoveto
          -1 hlineto
          -81 168 -5 11 rlineto
          87 hlineto
          endchar
        </CharString>
        <CharString name="ncaron">
          5 callgsubr
          92 -21 172 -8 callsubr
          58 697 -82 callgsubr
        </CharString>
        <CharString name="ncedilla">
          502 68 callgsubr
          394 60 hstem
          -32 callgsubr
          vstem
          -69 callsubr
          -61 -148 -86 callgsubr
        </CharString>
        <CharString name="ncommaaccent">
          502 68 callgsubr
          394 60 49 callgsubr
          hintmask 00111100
          -69 callsubr
          hintmask 11000000
          -61 -148 -86 callgsubr
        </CharString>
        <CharString name="ndotaccent">
          5 callgsubr
          114 86 hstemhm
          77 76 55 86 54 76 hintmask 11010100
          -69 callsubr
          hintmask 00101000
          -54 568 -82 callsubr
        </CharString>
        <CharString name="ndotbelow">
          502 4 callgsubr
          394 60 hstemhm
          77 76 55 86 54 76 hintmask 01110100
          -69 callsubr
          hintmask 10001000
          -54 -200 -82 callsubr
        </CharString>
        <CharString name="nine">
          490 -21 51 callgsubr
          42 79 -50 81 214 81 hintmask 11111010
          447 -49 callgsubr
        </CharString>
        <CharString name="nine.oldstyle">
          551 -215 51 callgsubr
          73 79 -50 81 212 83 -81 81 hintmask 11111001
          478 -50 callsubr
        </CharString>
        <CharString name="nine.prop">
          551 -21 51 callgsubr
          73 79 -50 81 214 81 hintmask 11111010
          478 -49 callgsubr
        </CharString>
        <CharString name="nine.taboldstyle">
          490 -215 51 callgsubr
          42 79 -50 81 212 83 -81 81 hintmask 11111001
          447 -50 callsubr
        </CharString>
        <CharString name="ntilde">
          5 callgsubr
          98 60 -2 60 49 callgsubr
          hintmask 11001100
          -69 callsubr
          hintmask 00010000
          65 670 -102 callgsubr
        </CharString>
        <CharString name="numbersign">
          816 -194 37 292 37 155 37 293 37 hstem
          54 707 vstem
          761 153 rmoveto
          19 -17 0 -15 vhcurveto
          -210 hlineto
          41 155 rlineto
          169 hlineto
          14 18 0 18 19 -17 0 -15 hvcurveto
          -158 25 callgsubr
          -187 25 callgsubr
          -220 -4 callgsubr
          210 hlineto
          -41 -155 rlineto
          -169 -4 callgsubr
          158 24 callsubr
          187 24 callsubr
          220 hlineto
          14 18 0 18 hvcurveto
          -239 174 rmoveto
          -41 -155 rlineto
          -188 hlineto
          41 155 rlineto
          endchar
        </CharString>
        <CharString name="numero">
          794 22 -21 163 58 50 64 151 60 148 -20 hstemhm
          95 77 193 77 82 59 77 58 -58 60 hintmask 0011000101000000
          720 405 rmoveto
          59 -32 83 -66 -67 -31 -76 -66 -56 31 -77 67 66 32 77 56 vhcurveto
          -2 -241 rmoveto
          hintmask 1111111110000000
          58 -192 -58 vlineto
          -84 -163 rmoveto
          694 -77 -622 vlineto
          -2 33 -5 31 -11 40 -138 518 rcurveline
          -114 -694 77 612 hlineto
          4 -36 1 -11 5 -20 146 -545 rcurveline
          332 405 rmoveto
          -31 -12 -39 -26 -30 -9 39 31 36 5 45 34 34 4 -45 -36 vhcurveto
          endchar
        </CharString>
        <CharString name="o">
          -32 callsubr
          hstem
          30 76 277 76 vstem
          -104 callsubr
          endchar
        </CharString>
        <CharString name="oacute">
          -32 callsubr
          89 -21 167 -20 -9 callsubr
          hintmask 11001100
          -104 callsubr
          hintmask 00110000
          -1 464 -77 callgsubr
        </CharString>
        <CharString name="obreve">
          -32 callsubr
          63 65 113 -20 -9 callsubr
          hintmask 11001100
          -104 callsubr
          hintmask 00110000
          27 470 -105 callsubr
          endchar
        </CharString>
        <CharString name="ocaron">
          -32 callsubr
          87 -21 172 -20 -9 callsubr
          hintmask 11001100
          -104 callsubr
          hintmask 00110000
          17 467 -82 callgsubr
        </CharString>
        <CharString name="ocircumflex">
          -32 callsubr
          87 -21 172 -20 -9 callsubr
          hintmask 11001100
          -104 callsubr
          hintmask 00110000
          17 295 -89 callsubr
          endchar
        </CharString>
        <CharString name="ocircumflexacute">
          -32 callsubr
          87 -21 291 -20 -9 callsubr
          hintmask 11001100
          -104 callsubr
          hintmask 00110000
          18 295 -78 callgsubr
        </CharString>
        <CharString name="ocircumflexdotbelow">
          490 -7 callgsubr
          104 62 347 60 87 -21 172 -20 hstemhm
          30 76 96 86 95 76 hintmask 01111101
          -104 callsubr
          17 295 -89 callsubr
          hintmask 10000010
          -53 -725 -82 callsubr
        </CharString>
        <CharString name="ocircumflexgrave">
          -32 callsubr
          87 -21 134 -20 -9 callsubr
          hintmask 11001100
          -104 callsubr
          hintmask 00110000
          18 295 -78 callsubr
        </CharString>
        <CharString name="ocircumflexhookabove">
          -32 callsubr
          87 -21 365 -20 -9 callsubr
          hintmask 11001100
          -104 callsubr
          hintmask 00110000
          18 295 -103 callgsubr
          93 286 -107 callgsubr
        </CharString>
        <CharString name="ocircumflextilde">
          -32 callsubr
          87 -21 189 60 -2 60 -9 callsubr
          hintmask 11000110
          -104 callsubr
          hintmask 00101000
          18 295 -103 callgsubr
          66 307 -97 callsubr
        </CharString>
        <CharString name="odblgrave">
          -32 callsubr
          89 -21 167 -20 -9 callsubr
          hintmask 11001100
          -104 callsubr
          hintmask 00110000
          1 297 -88 callsubr
        </CharString>
        <CharString name="odieresis">
          -32 callsubr
          113 78 hstemhm
          30 76 30 77 64 77 29 76 hintmask 11010010
          -104 callsubr
          hintmask 00101100
          -170 342 -7 callsubr
        </CharString>
        <CharString name="odotbelow">
          490 -7 callgsubr
          104 62 347 60 hstemhm
          30 76 96 86 95 76 hintmask 01110100
          -104 callsubr
          hintmask 10001000
          -95 -430 -82 callsubr
        </CharString>
        <CharString name="oe">
          -62 callgsubr
        </CharString>
        <CharString name="oe.dup">
          -62 callgsubr
        </CharString>
        <CharString name="ogonek">
          490 -212 70 hstem
          343 -50 callgsubr
          -63 hlineto
          -50 -28 -40 -48 3 -51 rrcurveto
          -60 callgsubr
          endchar
        </CharString>
        <CharString name="ograve">
          -32 callsubr
          89 -21 167 -20 -9 callsubr
          hintmask 11001100
          -104 callsubr
          hintmask 00110000
          -69 297 -58 callgsubr
        </CharString>
        <CharString name="ohm">
          -55 callgsubr
        </CharString>
        <CharString name="ohookabove">
          -32 callsubr
          65 -21 216 -20 -9 callsubr
          hintmask 11001100
          -104 callsubr
          hintmask 00110000
          -43 410 -107 callgsubr
        </CharString>
        <CharString name="ohorn">
          37 callgsubr
          48 callgsubr
          hintmask 00100100
          457 445 19 callgsubr
          hintmask 00001000
          -1 -1 rlineto
          -79 vlineto
          hintmask 11010100
          1 -1 rlineto
          23 hlineto
          -33 -29 rlineto
          28 -35 -43 17 -45 hhcurveto
          -58 -53 -27 -43 -38 hvcurveto
          -41 -47 -21 -61 -62 vvcurveto
          -60 21 -59 41 -44 vhcurveto
          -42 38 54 -25 57 hhcurveto
          57 54 25 42 38 hvcurveto
          hintmask 11011000
          41 44 21 59 60 vvcurveto
          62 -21 61 -41 47 vhcurveto
          -3 3 rlineto
          -5 -162 rmoveto
          -46 -10 -47 -29 -36 vhcurveto
          -31 -24 -38 -19 -40 hhcurveto
          -40 -38 19 31 -25 hvcurveto
          -28 36 -11 47 46 vvcurveto
          44 11 44 28 33 vhcurveto
          31 26 37 17 40 hhcurveto
          39 38 -17 -31 25 hvcurveto
          28 -33 11 -44 -44 vvcurveto
          endchar
        </CharString>
        <CharString name="ohornacute">
          37 callgsubr
          43 -21 167 -20 48 callgsubr
          hintmask 00100001
          -92 callgsubr
          hintmask 00011000
          -30 463 -77 callgsubr
        </CharString>
        <CharString name="ohorndotbelow">
          489 -7 callgsubr
          104 62 348 60 65 -20 hstemhm
          33 69 100 86 88 79 -78 79 hintmask 00010001
          457 445 19 callgsubr
          hintmask 00000010
          -1 -1 rlineto
          -79 vlineto
          hintmask 01101001
          1 -1 rlineto
          23 hlineto
          -33 -29 rlineto
          28 -35 -43 17 -45 hhcurveto
          -58 -53 -27 -43 -38 hvcurveto
          -41 -47 -21 -61 -62 vvcurveto
          -60 21 -59 41 -44 vhcurveto
          -42 38 54 -25 57 hhcurveto
          57 54 25 42 38 hvcurveto
          hintmask 01101010
          41 44 21 59 60 vvcurveto
          62 -21 61 -41 47 vhcurveto
          -3 3 rlineto
          -5 -162 rmoveto
          -46 -10 -47 -29 -36 vhcurveto
          -31 -24 -38 -19 -40 hhcurveto
          -40 -38 19 31 -25 hvcurveto
          -28 36 -11 47 46 vvcurveto
          44 11 44 28 33 vhcurveto
          31 26 37 17 40 hhcurveto
          39 38 -17 -31 25 hvcurveto
          28 -33 11 -44 -44 vvcurveto
          hintmask 10000100
          -97 -431 -82 callsubr
        </CharString>
        <CharString name="ohorngrave">
          37 callgsubr
          43 -21 167 -20 48 callgsubr
          hintmask 00100001
          -92 callgsubr
          hintmask 00011000
          -71 296 -58 callgsubr
        </CharString>
        <CharString name="ohornhookabove">
          489 -10 62 348 60 64 -21 22 -20 214 -20 48 callgsubr
          hintmask 00010001
          -92 callgsubr
          hintmask 00101000
          -45 409 -107 callgsubr
        </CharString>
        <CharString name="ohorntilde">
          37 callgsubr
          47 60 -2 60 48 callgsubr
          hintmask 00100001
          -92 callgsubr
          hintmask 00001000
          22 439 -97 callsubr
        </CharString>
        <CharString name="ohungarumlaut">
          -32 callsubr
          89 -21 167 -20 -9 callsubr
          hintmask 11001100
          -104 callsubr
          hintmask 00111000
          -139 464 -64 callgsubr
        </CharString>
        <CharString name="omacron">
          -32 callsubr
          120 63 -9 callsubr
          hintmask 11011000
          -104 callsubr
          hintmask 00100000
          38 349 -57 callsubr
        </CharString>
        <CharString name="one">
          490 0 58 494 59 65 -20 hstem
          216 78 vstem
          416 1 callsubr
        </CharString>
        <CharString name="one.oldstyle">
          397 0 58 322 58 44 -20 hstem
          164 75 vstem
          361 3 callsubr
        </CharString>
        <CharString name="one.prop">
          401 0 58 494 59 65 -20 hstem
          165 78 vstem
          365 1 callsubr
        </CharString>
        <CharString name="one.superior">
          363 -24 callgsubr
          endchar
        </CharString>
        <CharString name="one.taboldstyle">
          490 0 58 322 58 44 -20 hstem
          220 75 vstem
          417 3 callsubr
        </CharString>
        <CharString name="onehalf">
          765 0 38 269 38 23 38 hstem
          581 63 vstem
          -24 callgsubr
          634 -310 rmoveto
          41 -129 vlineto
          -8 -9 -1 -9 hhcurveto
          -77 hlineto
          19 16 67 56 47 34 rrcurveto
          53 39 46 38 55 vvcurveto
          66 -56 62 -95 -78 -39 -43 -56 -20 vhcurveto
          23 -24 0 -1 7 -7 rrcurveto
          64 18 26 29 54 hhcurveto
          62 40 -40 -51 -32 -15 -34 -48 -40 hvcurveto
          -161 -133 rlineto
          -38 vlineto
          179 28 callsubr
        </CharString>
        <CharString name="onequarter">
          765 103 36 hstemhm
          156 56 34 54 88 56 79 55 0 54 hintmask 11110100
          -24 callgsubr
          634 -207 -2 callgsubr
          hintmask 10001000
          56 callgsubr
        </CharString>
        <CharString name="oogonek">
          490 -187 60 117 62 347 60 hstem
          30 76 277 76 vstem
          -41 callgsubr
          endchar
        </CharString>
        <CharString name="oogonekacute">
          490 -187 60 117 62 347 60 89 -21 167 -20 -9 callsubr
          hintmask 11100110
          -41 callgsubr
          hintmask 00011000
          -1 464 -77 callgsubr
        </CharString>
        <CharString name="openbullet">
          762 128 36 208 36 hstem
          241 36 208 36 67 callgsubr
          244 140 rmoveto
          -57 -47 -47 -57 -57 -47 47 57 57 47 47 57 57 47 -47 -57 vhcurveto
          endchar
        </CharString>
        <CharString name="ordfeminine">
          365 328 394 rmoveto
          205 vlineto
          67 -58 49 -78 -50 -38 -9 -20 -41 vhcurveto
          5 -46 rlineto
          22 37 39 13 48 hhcurveto
          39 34 -26 -51 hvcurveto
          -29 vlineto
          -38 -1 -51 -2 -50 -14 rrcurveto
          -56 -16 -33 -26 -35 vvcurveto
          -31 22 -57 71 46 59 11 22 31 vhcurveto
          -26 vlineto
          31 -59 rmoveto
          12 -13 10 -18 vhcurveto
          -167 85 callsubr
          167 hlineto
          18 13 9 12 hvcurveto
          -32 153 rmoveto
          -14 0 -17 -28 -14 vhcurveto
          -12 -23 -28 -2 -13 hhcurveto
          -45 -31 20 26 48 116 10 52 hvcurveto
          endchar
        </CharString>
        <CharString name="ordmasculine">
          411 386 548 rmoveto
          95 -84 72 -96 -99 -82 -74 -93 -92 84 -69 96 99 82 71 90 vhcurveto
          -31 -213 rmoveto
          12 -14 10 -17 vhcurveto
          -237 85 callsubr
          237 hlineto
          17 14 9 12 hvcurveto
          -33 220 rmoveto
          -86 -60 -38 -56 -61 -56 42 82 85 63 33 53 58 59 -36 -82 vhcurveto
          endchar
        </CharString>
        <CharString name="orogate">
          490 30 76 109 60 108 76 vstem
          459 220 rmoveto
          123 -82 97 -102 17 vhcurveto
          174 -60 -174 vlineto
          -104 -16 -81 -99 -122 vvcurveto
          -120 84 -93 101 -15 vhcurveto
          -178 60 178 vlineto
          104 16 80 94 118 vvcurveto
          -76 10 rmoveto
          -123 -71 -55 -67 -72 -67 60 118 121 75 48 63 69 70 -52 -117 vhcurveto
          endchar
        </CharString>
</ttFont>
